SplineFontDB: 3.2
FontName: TacticalFont
FullName: Tactical Font
FamilyName: TacticalFont
Weight: Regular
Copyright: 2021 Da Real Royal
Version: 0.3
ItalicAngle: -1
UnderlinePosition: -47
UnderlineWidth: 49
Ascent: 800
Descent: 200
InvalidEm: 0
LayerCount: 2
Layer: 0 1 "Back" 1
Layer: 1 1 "Fore" 0
XUID: [1021 889 -1627666241 17537]
BaseHoriz: 0
StyleMap: 0x0040
FSType: 0
OS2Version: 0
OS2_WeightWidthSlopeOnly: 0
OS2_UseTypoMetrics: 0
CreationTime: 1607446369
ModificationTime: 1622062733
PfmFamily: 17
TTFWeight: 400
TTFWidth: 5
LineGap: 90
VLineGap: 0
OS2TypoAscent: 0
OS2TypoAOffset: 1
OS2TypoDescent: 0
OS2TypoDOffset: 1
OS2TypoLinegap: 90
OS2WinAscent: 0
OS2WinAOffset: 1
OS2WinDescent: 0
OS2WinDOffset: 1
HheadAscent: 0
HheadAOffset: 1
HheadDescent: 0
HheadDOffset: 1
OS2Vendor: 'PfEd'
MarkAttachClasses: 1
DEI: 91125
TtTable: prep
PUSHW_1
 511
SCANCTRL
PUSHB_1
 1
SCANTYPE
SVTCA[y-axis]
MPPEM
PUSHB_1
 8
LT
IF
PUSHB_2
 1
 1
INSTCTRL
EIF
PUSHB_2
 70
 6
CALL
IF
POP
PUSHB_1
 16
EIF
MPPEM
PUSHB_1
 20
GT
IF
POP
PUSHB_1
 128
EIF
SCVTCI
PUSHB_1
 6
CALL
NOT
IF
EIF
PUSHB_1
 20
CALL
EndTTInstrs
TtTable: fpgm
PUSHB_1
 0
FDEF
PUSHB_1
 0
SZP0
MPPEM
PUSHB_1
 42
LT
IF
PUSHB_1
 74
SROUND
EIF
PUSHB_1
 0
SWAP
MIAP[rnd]
RTG
PUSHB_1
 6
CALL
IF
RTDG
EIF
MPPEM
PUSHB_1
 42
LT
IF
RDTG
EIF
DUP
MDRP[rp0,rnd,grey]
PUSHB_1
 1
SZP0
MDAP[no-rnd]
RTG
ENDF
PUSHB_1
 1
FDEF
DUP
MDRP[rp0,min,white]
PUSHB_1
 12
CALL
ENDF
PUSHB_1
 2
FDEF
MPPEM
GT
IF
RCVT
SWAP
EIF
POP
ENDF
PUSHB_1
 3
FDEF
ROUND[Black]
RTG
DUP
PUSHB_1
 64
LT
IF
POP
PUSHB_1
 64
EIF
ENDF
PUSHB_1
 4
FDEF
PUSHB_1
 6
CALL
IF
POP
SWAP
POP
ROFF
IF
MDRP[rp0,min,rnd,black]
ELSE
MDRP[min,rnd,black]
EIF
ELSE
MPPEM
GT
IF
IF
MIRP[rp0,min,rnd,black]
ELSE
MIRP[min,rnd,black]
EIF
ELSE
SWAP
POP
PUSHB_1
 5
CALL
IF
PUSHB_1
 70
SROUND
EIF
IF
MDRP[rp0,min,rnd,black]
ELSE
MDRP[min,rnd,black]
EIF
EIF
EIF
RTG
ENDF
PUSHB_1
 5
FDEF
GFV
NOT
AND
ENDF
PUSHB_1
 6
FDEF
PUSHB_2
 34
 1
GETINFO
LT
IF
PUSHB_1
 32
GETINFO
NOT
NOT
ELSE
PUSHB_1
 0
EIF
ENDF
PUSHB_1
 7
FDEF

StartChar: exclam
Encoding: 33 33 2
Width: 288
VWidth: 1236
Flags: MW
LayerCount: 2
Fore
SplineSet
90 30 m 128,-1,1
 103 45 103 45 121 45 c 1,2,3
 122 44 l 1,4,5
 141 44 141 44 154.5 32 c 128,-1,6
 168 20 168 20 168 1.5 c 128,-1,7
 168 -17 168 -17 154 -32.5 c 128,-1,8
 140 -48 140 -48 126 -48 c 2,9,-1
 123 -48 l 1,10,11
 103 -47 103 -47 90 -33.5 c 128,-1,12
 77 -20 77 -20 77 -2.5 c 128,-1,0
 77 15 77 15 90 30 c 128,-1,1
134 656 m 0,13,14
 146 670 146 670 164 670 c 2,15,-1
 165 670 l 2,16,17
 183 670 183 670 196.5 655.5 c 128,-1,18
 210 641 210 641 210 606 c 0,19,20
 210 523 210 523 198.5 455.5 c 128,-1,21
 187 388 187 388 184.5 285.5 c 128,-1,22
 182 183 182 183 170 169 c 128,-1,23
 158 155 158 155 139 155 c 0,24,-1
 138 156 l 0,25,26
 118 156 118 156 105 169.5 c 128,-1,27
 92 183 92 183 92 221 c 128,-1,28
 92 259 92 259 96 335 c 0,29,30
 108 623 108 623 134 656 c 0,13,14
EndSplineSet
Validated: 1
EndChar

StartChar: quotedbl
Encoding: 34 34 3
Width: 401
VWidth: 1093
Flags: MW
LayerCount: 2
Fore
SplineSet
89 714 m 128,-1,1
 102 728 102 728 125.5 728 c 128,-1,2
 149 728 149 728 170.5 705.5 c 128,-1,3
 192 683 192 683 193 623 c 1,4,-1
 193 587 l 2,5,6
 193 558 193 558 180 542.5 c 128,-1,7
 167 527 167 527 150 527 c 2,8,-1
 147 527 l 2,9,10
 105 527 105 527 101 588 c 0,11,12
 100 626 100 626 88 647.5 c 128,-1,13
 76 669 76 669 76 684.5 c 128,-1,0
 76 700 76 700 89 714 c 128,-1,1
221 694 m 0,14,15
 221 754 221 754 269 754 c 0,16,17
 270 754 270 754 271 754 c 0,18,19
 312 754 312 754 318 713 c 0,20,21
 320 694 320 694 320 622.5 c 128,-1,22
 320 551 320 551 311.5 526.5 c 128,-1,23
 303 502 303 502 276 502 c 0,24,25
 275 502 275 502 274 502 c 0,26,27
 248 503 248 503 238 526.5 c 128,-1,28
 228 550 228 550 224.5 611.5 c 128,-1,29
 221 673 221 673 221 694 c 0,14,15
EndSplineSet
Validated: 1
EndChar

StartChar: dollar
Encoding: 36 36 4
Width: 548
VWidth: 1220
Flags: MW
LayerCount: 2
Fore
SplineSet
446 655 m 0,0,1
 446 652 446 652 446 649 c 0,2,3
 446 627 446 627 427.5 618 c 128,-1,4
 409 609 409 609 353 607.5 c 128,-1,5
 297 606 297 606 255 580 c 0,6,7
 215 558 215 558 201 532 c 0,8,9
 177 491 177 491 177 433 c 0,10,11
 178 414 178 414 191.5 404 c 128,-1,12
 205 394 205 394 260 382 c 0,13,14
 437 344 437 344 469 244 c 0,15,16
 480 212 480 212 480 157 c 2,17,-1
 480 99 l 1,18,-1
 435 52 l 1,19,20
 389 6 389 6 357 -9 c 1,21,-1
 324 -26 l 1,22,-1
 326 -73 l 1,23,-1
 326 -86 l 1,24,25
 325 -154 325 -154 283 -154 c 0,26,27
 235 -154 235 -154 235 -85 c 2,28,-1
 235 -44 l 1,29,-1
 163 -44 l 2,30,31
 107 -44 107 -44 83 -34 c 0,32,33
 58 -24 58 -24 58 6 c 0,34,35
 58 30 58 30 79 39 c 0,36,37
 101 48 101 48 159.5 48 c 128,-1,38
 218 48 218 48 239.5 53.5 c 128,-1,39
 261 59 261 59 299.5 78.5 c 128,-1,40
 338 98 338 98 363 119.5 c 128,-1,41
 388 141 388 141 388 156 c 2,42,-1
 388 157 l 2,43,44
 388 164 388 164 378.5 199 c 128,-1,45
 369 234 369 234 333.5 253 c 128,-1,46
 298 272 298 272 231 287.5 c 128,-1,47
 164 303 164 303 146 312 c 128,-1,48
 128 321 128 321 109 341.5 c 128,-1,49
 90 362 90 362 87 376 c 0,50,51
 83 395 83 395 83 418 c 2,52,-1
 83 469 l 2,53,54
 83 517 83 517 99 558 c 128,-1,55
 115 599 115 599 172 644 c 0,56,57
 199 666 199 666 207 676 c 0,58,59
 215 688 215 688 215 702 c 2,60,-1
 215 720 l 1,61,62
 216 768 216 768 231.5 783.5 c 128,-1,63
 247 799 247 799 265 799 c 0,64,65
 266 799 266 799 267 799 c 0,66,67
 285 799 285 799 297 784.5 c 128,-1,68
 309 770 309 770 309 743 c 2,69,-1
 309 732 l 1,70,-1
 307 699 l 1,71,-1
 362 699 l 2,72,73
 446 699 446 699 446 655 c 0,0,1
EndSplineSet
Validated: 1
EndChar

StartChar: ampersand
Encoding: 38 38 5
Width: 741
VWidth: 1209
Flags: MW
LayerCount: 2
Fore
SplineSet
448 103.5 m 128,-1,1
 448 112 448 112 367 224.5 c 128,-1,2
 286 337 286 337 278 338 c 0,3,4
 265 338 265 338 231 306 c 0,5,6
 197 276 197 276 181 248 c 0,7,8
 166 221 166 221 166 177 c 0,9,10
 166 128 166 128 185 88 c 0,11,12
 203 48 203 48 230 31 c 0,13,14
 251 19 251 19 259 19 c 2,15,-1
 269 19 l 2,16,17
 308 19 308 19 378 57 c 128,-1,0
 448 95 448 95 448 103.5 c 128,-1,1
543 656 m 0,18,19
 543 663 543 663 485.5 692 c 128,-1,20
 428 721 428 721 405 722 c 0,21,22
 404 722 404 722 403 722 c 0,23,24
 376 722 376 722 323.5 695.5 c 128,-1,25
 271 669 271 669 255 650 c 0,26,27
 251 646 251 646 251 629.5 c 128,-1,28
 251 613 251 613 267 556.5 c 128,-1,29
 283 500 283 500 296 486 c 0,30,31
 298 484 298 484 309 484 c 128,-1,32
 320 484 320 484 382.5 522 c 128,-1,33
 445 560 445 560 494 600.5 c 128,-1,34
 543 641 543 641 543 656 c 0,18,19
157 684 m 0,35,36
 181 721 181 721 184.5 721 c 128,-1,37
 188 721 188 721 254 755 c 4,38,39
 319 790 319 790 331 794 c 4,40,41
 346 800 346 800 370 800 c 0,42,43
 380 800 380 800 392 799 c 5,44,-1
 410 799 l 5,45,46
 444 798 444 798 520.5 772 c 132,-1,47
 597 746 597 746 615.5 727 c 128,-1,48
 634 708 634 708 637 699.5 c 128,-1,49
 640 691 640 691 640 657.5 c 128,-1,50
 640 624 640 624 626 598 c 128,-1,51
 612 572 612 572 558.5 526 c 128,-1,52
 505 480 505 480 444 442 c 2,53,-1
 364 392 l 1,54,-1
 421 317 l 2,55,56
 492 224 492 224 506.5 199.5 c 128,-1,57
 521 175 521 175 527 172 c 0,58,59
 535 172 535 172 551 185 c 0,60,61
 566 198 566 198 566 209 c 128,-1,62
 566 220 566 220 583 233 c 128,-1,63
 600 246 600 246 619 246 c 128,-1,64
 638 246 638 246 652 230 c 128,-1,65
 666 214 666 214 666 198 c 0,66,67
 666 163 666 163 624 121 c 2,68,-1
 589 86 l 1,69,-1
 637 37 l 2,70,71
 683 -11 683 -11 684 -35 c 0,72,73
 684 -46 684 -46 670 -61.5 c 128,-1,74
 656 -77 656 -77 640 -77 c 0,75,76
 615 -77 615 -77 563 -25 c 1,77,-1
 512 24 l 1,78,-1
 469 -5 l 1,79,80
 413 -46 413 -46 379 -58 c 0,81,82
 334 -75 334 -75 277 -75 c 0,83,84
 274 -75 274 -75 271 -75 c 0,85,86
 263 -76 263 -76 258 -76 c 0,87,88
 221 -76 221 -76 183 -58 c 0,89,90
 72 -4 72 -4 72 172 c 0,91,92
 72 175 72 175 72 178 c 0,93,94
 73 262 73 262 89 290.5 c 128,-1,95
 105 319 105 319 152 367 c 0,96,97
 188 402 188 402 212 414 c 0,98,99
 214 415 214 415 212.5 423 c 128,-1,100
 211 431 211 431 197.5 453 c 128,-1,101
 184 475 184 475 167.5 538 c 128,-1,102
 151 601 151 601 151 638.5 c 128,-1,103
 151 676 151 676 157 684 c 0,35,36
EndSplineSet
Validated: 1
EndChar

StartChar: quotesingle
Encoding: 39 39 6
Width: 302
VWidth: 1089
Flags: MW
LayerCount: 2
Fore
SplineSet
134 554.5 m 128,-1,1
 121 570 121 570 121 597.5 c 128,-1,2
 121 625 121 625 100 641.5 c 128,-1,3
 79 658 79 658 79 682 c 128,-1,4
 79 706 79 706 92 719.5 c 128,-1,5
 105 733 105 733 122 733 c 0,6,7
 123 733 123 733 124 733 c 0,8,9
 145 733 145 733 179 704 c 0,10,11
 200 683 200 683 208 670 c 0,12,13
 219 652 219 652 219 603 c 0,14,15
 219 598 219 598 219 594 c 0,16,17
 218 539 218 539 174 539 c 0,18,19
 173 539 173 539 172 539 c 0,20,0
 147 539 147 539 134 554.5 c 128,-1,1
EndSplineSet
Validated: 1
EndChar

StartChar: comma
Encoding: 44 44 7
Width: 315
VWidth: 1337
Flags: MW
LayerCount: 2
Fore
SplineSet
179 204 m 0,0,1
 181 204 181 204 189.5 204 c 128,-1,2
 198 204 198 204 213 191.5 c 128,-1,3
 228 179 228 179 228 142 c 0,4,5
 228 139 228 139 229 135 c 0,6,7
 229 102 229 102 224 76 c 0,8,9
 219 47 219 47 183.5 8 c 128,-1,10
 148 -31 148 -31 130 -31 c 0,11,12
 97 -31 97 -31 81 22 c 0,13,14
 80 26 80 26 80 36 c 128,-1,15
 80 46 80 46 99 61 c 0,16,17
 135 90 135 90 135 154 c 0,18,19
 135 174 135 174 149 189 c 128,-1,20
 163 204 163 204 179 204 c 0,0,1
EndSplineSet
Validated: 1
EndChar

StartChar: period
Encoding: 46 46 8
Width: 265
VWidth: 1333
Flags: MW
LayerCount: 2
Fore
SplineSet
89 94.5 m 128,-1,1
 89 112 89 112 102 126.5 c 128,-1,2
 115 141 115 141 134 141 c 128,-1,3
 153 141 153 141 166.5 128.5 c 128,-1,4
 180 116 180 116 180 97.5 c 128,-1,5
 180 79 180 79 165.5 64.5 c 128,-1,6
 151 50 151 50 133 50 c 128,-1,7
 115 50 115 50 102 63.5 c 128,-1,0
 89 77 89 77 89 94.5 c 128,-1,1
EndSplineSet
Validated: 1
EndChar

StartChar: slash
Encoding: 47 47 9
Width: 466
VWidth: 1244
Flags: MW
LayerCount: 2
Fore
SplineSet
266 514 m 0,0,1
 312 627 312 627 363 628 c 0,2,3
 382 628 382 628 397 614 c 0,4,5
 413 600 413 600 413 582 c 128,-1,6
 413 564 413 564 398 550 c 0,7,8
 379 529 379 529 355 465 c 128,-1,9
 331 401 331 401 299 335 c 0,10,11
 267 268 267 268 216 148 c 128,-1,12
 165 28 165 28 143 -9.5 c 128,-1,13
 121 -47 121 -47 100 -47 c 128,-1,14
 79 -47 79 -47 66.5 -32.5 c 128,-1,15
 54 -18 54 -18 54 4 c 2,16,-1
 54 14 l 1,17,18
 62 61 62 61 198 358 c 0,19,20
 235 439 235 439 266 514 c 0,0,1
EndSplineSet
Validated: 1
EndChar

StartChar: colon
Encoding: 58 58 10
Width: 267
VWidth: 1267
Flags: MW
LayerCount: 2
Fore
SplineSet
98 21.5 m 132,-1,1
 85 35 85 35 85 53 c 132,-1,2
 85 71 85 71 98 85.5 c 132,-1,3
 111 100 111 100 130 100 c 132,-1,4
 149 100 149 100 162.5 87.5 c 132,-1,5
 176 75 176 75 176 57 c 132,-1,6
 176 39 176 39 161.5 23.5 c 132,-1,7
 147 8 147 8 129 8 c 132,-1,0
 111 8 111 8 98 21.5 c 132,-1,1
107 466 m 4,8,9
 120 479 120 479 136 479 c 4,10,11
 137 479 137 479 144.5 479 c 132,-1,12
 152 479 152 479 170 466 c 4,13,14
 184 453 184 453 184 432 c 132,-1,15
 184 411 184 411 171.5 394.5 c 132,-1,16
 159 378 159 378 139.5 378 c 132,-1,17
 120 378 120 378 107 394 c 132,-1,18
 94 410 94 410 94 430.5 c 132,-1,19
 94 451 94 451 107 466 c 4,8,9
EndSplineSet
Validated: 1
EndChar

StartChar: semicolon
Encoding: 59 59 11
Width: 313
VWidth: 1278
Flags: MW
LayerCount: 2
Fore
SplineSet
134 107.5 m 128,-1,1
 134 127 134 127 147.5 141.5 c 128,-1,2
 161 156 161 156 179.5 156 c 128,-1,3
 198 156 198 156 211.5 137.5 c 128,-1,4
 225 119 225 119 225 90 c 0,5,6
 225 36 225 36 196 -9 c 0,7,8
 162 -62 162 -62 113 -62 c 0,9,10
 93 -62 93 -62 79.5 -49.5 c 128,-1,11
 66 -37 66 -37 66 -17 c 128,-1,12
 66 3 66 3 78.5 19 c 128,-1,13
 91 35 91 35 105 36 c 0,14,15
 113 36 113 36 123.5 62 c 128,-1,0
 134 88 134 88 134 107.5 c 128,-1,1
211 423 m 0,16,17
 197 408 197 408 180 408 c 128,-1,18
 163 408 163 408 149 422.5 c 128,-1,19
 135 437 135 437 135 454.5 c 128,-1,20
 135 472 135 472 147.5 485 c 128,-1,21
 160 498 160 498 179 498 c 0,22,23
 180 498 180 498 180 500 c 1,24,25
 198 500 198 500 211 488 c 0,26,27
 225 476 225 476 225 456 c 0,28,29
 224 437 224 437 211 423 c 0,16,17
EndSplineSet
Validated: 1
EndChar

StartChar: question
Encoding: 63 63 12
Width: 537
VWidth: 1220
Flags: MW
LayerCount: 2
Fore
SplineSet
269 -59.5 m 128,-1,1
 256 -46 256 -46 256 -26.5 c 128,-1,2
 256 -7 256 -7 268 5.5 c 128,-1,3
 280 18 280 18 299.5 18 c 128,-1,4
 319 18 319 18 332.5 6 c 128,-1,5
 346 -6 346 -6 346 -25 c 128,-1,6
 346 -44 346 -44 331.5 -58.5 c 128,-1,7
 317 -73 317 -73 299.5 -73 c 128,-1,0
 282 -73 282 -73 269 -59.5 c 128,-1,1
323 192 m 1,8,9
 409 218 409 218 420.5 218.5 c 128,-1,10
 432 219 432 219 439 219 c 128,-1,11
 446 219 446 219 456 209 c 0,12,13
 473 195 473 195 473 178 c 0,14,15
 473 128 473 128 360 97 c 0,16,17
 300 78 300 78 258 78 c 0,18,19
 255 78 255 78 252 78 c 0,20,21
 215 78 215 78 202 84 c 0,22,23
 188 90 188 90 156 120 c 2,24,-1
 110 165 l 1,25,-1
 110 244 l 2,26,27
 110 302 110 302 114 316 c 128,-1,28
 118 330 118 330 138 353 c 0,29,30
 211 438 211 438 296 468 c 0,31,32
 338 483 338 483 350 504 c 0,33,34
 362 524 362 524 362 574 c 0,35,36
 362 672 362 672 251 672 c 0,37,38
 230 672 230 672 188.5 666 c 128,-1,39
 147 660 147 660 136 648 c 0,40,41
 122 637 122 637 113 637 c 2,42,-1
 102 637 l 2,43,44
 81 637 81 637 66 650.5 c 128,-1,45
 51 664 51 664 51 685.5 c 128,-1,46
 51 707 51 707 77.5 730.5 c 128,-1,47
 104 754 104 754 141.5 758.5 c 128,-1,48
 179 763 179 763 190.5 767 c 128,-1,49
 202 771 202 771 251 771 c 128,-1,50
 300 771 300 771 334 760 c 0,51,52
 365 752 365 752 413 706 c 1,53,-1
 456 661 l 1,54,-1
 456 582 l 2,55,56
 456 505 456 505 447.5 480.5 c 128,-1,57
 439 456 439 456 413.5 423.5 c 128,-1,58
 388 391 388 391 374.5 391 c 128,-1,59
 361 391 361 391 308 362.5 c 128,-1,60
 255 334 255 334 234.5 313 c 128,-1,61
 214 292 214 292 209 282 c 0,62,63
 204 274 204 274 204 262 c 2,64,-1
 204 246 l 2,65,66
 204 206 204 206 224 188 c 2,67,-1
 244 170 l 1,68,-1
 323 192 l 1,8,9
EndSplineSet
Validated: 1
EndChar

StartChar: A
Encoding: 65 65 13
Width: 955
VWidth: 1216
Flags: MW
LayerCount: 2
Fore
SplineSet
505 661 m 0,0,1
 484 708 484 708 472 708 c 128,-1,2
 460 708 460 708 407 572 c 0,3,4
 353 436 353 436 331 395 c 0,5,6
 309 353 309 353 308 336 c 2,7,-1
 308 334 l 2,8,9
 308 332 308 332 310 329 c 0,10,11
 320 325 320 325 480 325 c 128,-1,12
 640 325 640 325 640 332 c 0,13,14
 640 347 640 347 614 400 c 0,15,16
 590 445 590 445 548 551 c 128,-1,17
 506 657 506 657 505 661 c 0,0,1
391 774 m 0,18,19
 420 799 420 799 465 800 c 1,20,-1
 468 800 l 6,21,22
 532 800 532 800 558 770 c 128,-1,23
 584 740 584 740 620 648 c 128,-1,24
 656 556 656 556 686 490 c 128,-1,25
 716 424 716 424 792 237 c 0,26,27
 870 50 870 50 882 20 c 128,-1,28
 894 -10 894 -10 894 -24 c 0,29,30
 894 -39 894 -39 881 -54 c 128,-1,31
 868 -69 868 -69 852 -69 c 0,32,33
 805 -69 805 -69 769 28 c 0,34,35
 749 82 749 82 720 151 c 2,36,-1
 687 228 l 1,37,-1
 259 228 l 1,38,-1
 244 193 l 1,39,40
 170 10 170 10 170 -2 c 128,-1,41
 170 -14 170 -14 144 -45 c 128,-1,42
 118 -76 118 -76 97 -76 c 2,43,-1
 96 -76 l 2,44,45
 80 -76 80 -76 66 -63 c 128,-1,46
 52 -50 52 -50 52 -32 c 128,-1,47
 52 -14 52 -14 64 9 c 0,48,49
 115 115 115 115 155 231 c 0,50,51
 195 346 195 346 221 398 c 128,-1,52
 247 450 247 450 310 604 c 128,-1,53
 373 758 373 758 391 774 c 0,18,19
EndSplineSet
Validated: 1
EndChar

StartChar: B
Encoding: 66 66 14
Width: 733
VWidth: 1210
Flags: MW
LayerCount: 2
Fore
SplineSet
513 654 m 0,0,1
 465 705 465 705 333 714 c 0,2,3
 320 715 320 715 301 717 c 0,4,5
 269 717 269 717 232 700 c 128,-1,6
 195 683 195 683 188.5 674 c 128,-1,7
 182 665 182 665 180 635 c 1,8,-1
 180 614 l 2,9,10
 180 566 180 566 183 513 c 0,11,12
 191 429 191 429 196 235 c 2,13,-1
 201 40 l 1,14,-1
 267 30 l 2,15,16
 315 22 315 22 350 22 c 0,17,18
 425 22 425 22 472 49 c 128,-1,19
 519 76 519 76 534.5 105 c 128,-1,20
 550 134 550 134 551 200 c 1,21,-1
 556 281 l 1,22,-1
 493 310 l 1,23,24
 435 340 435 340 405 340 c 0,25,26
 404 340 404 340 403 340 c 0,27,28
 375 340 375 340 360 353.5 c 128,-1,29
 345 367 345 367 345 384 c 0,30,31
 345 428 345 428 401 446 c 0,32,33
 426 454 426 454 469 483 c 128,-1,34
 512 512 512 512 522 527 c 0,35,36
 541 556 541 556 541 590 c 128,-1,37
 541 624 541 624 513 654 c 0,0,1
154 768 m 2,38,39
 181 770 181 770 206.5 785 c 128,-1,40
 232 800 232 800 269 800 c 0,41,42
 276 800 276 800 283 801 c 0,43,44
 311 801 311 801 333 799 c 0,45,46
 471 793 471 793 496 783 c 4,47,48
 557 761 557 761 588.5 719 c 128,-1,49
 620 677 620 677 628.5 657 c 128,-1,50
 637 637 637 637 639 600 c 0,51,52
 639 545 639 545 626 512.5 c 128,-1,53
 613 480 613 480 577 444 c 2,54,-1
 533 400 l 1,55,-1
 566 384 l 1,56,57
 636 353 636 353 645 318 c 0,58,59
 647 308 647 308 647 288 c 2,60,-1
 647 225 l 1,61,62
 646 125 646 125 641 98 c 128,-1,63
 636 71 636 71 597.5 29 c 128,-1,64
 559 -13 559 -13 523.5 -36.5 c 128,-1,65
 488 -60 488 -60 467 -66 c 0,66,67
 445 -72 445 -72 419 -72 c 2,68,-1
 353 -72 l 2,69,70
 277 -72 277 -72 210.5 -60.5 c 128,-1,71
 144 -49 144 -49 128.5 -33.5 c 128,-1,72
 113 -18 113 -18 109.5 20.5 c 128,-1,73
 106 59 106 59 95.5 304 c 128,-1,74
 85 549 85 549 83.5 570.5 c 128,-1,75
 82 592 82 592 82 620 c 128,-1,76
 82 648 82 648 94 672.5 c 128,-1,77
 106 697 106 697 106 711.5 c 128,-1,78
 106 726 106 726 124 747 c 0,79,80
 140 768 140 768 153 768 c 2,81,-1
 154 768 l 2,38,39
EndSplineSet
Validated: 1
EndChar

StartChar: C
Encoding: 67 67 15
Width: 692
VWidth: 1224
Flags: MW
LayerCount: 2
Fore
SplineSet
237 686 m 0,0,1
 316 739 316 739 412 739 c 0,2,3
 414 739 414 739 416 739 c 2,4,-1
 466 739 l 1,5,6
 567 738 567 738 585.5 722 c 128,-1,7
 604 706 604 706 604 683 c 128,-1,8
 604 660 604 660 590 646 c 128,-1,9
 576 632 576 632 563 631 c 0,10,11
 551 632 551 632 533 638 c 0,12,13
 491 648 491 648 452.5 648 c 128,-1,14
 414 648 414 648 376 636 c 0,15,16
 290 610 290 610 247 563 c 128,-1,17
 204 516 204 516 178 418 c 0,18,19
 166 376 166 376 166 335 c 0,20,21
 166 293 166 293 201 205 c 0,22,23
 235 117 235 117 269 89 c 128,-1,24
 303 61 303 61 398 45 c 0,25,26
 440 37 440 37 452 37 c 2,27,-1
 466 37 l 2,28,29
 484 37 484 37 511.5 47 c 128,-1,30
 539 57 539 57 567 57 c 128,-1,31
 595 57 595 57 612 44.5 c 128,-1,32
 629 32 629 32 629 11.5 c 128,-1,33
 629 -9 629 -9 613.5 -21.5 c 128,-1,34
 598 -34 598 -34 555 -46 c 128,-1,35
 512 -58 512 -58 494 -58 c 2,36,-1
 472 -58 l 2,37,38
 431 -58 431 -58 363 -49 c 0,39,40
 295 -38 295 -38 256.5 -20.5 c 128,-1,41
 218 -3 218 -3 185 35 c 0,42,43
 131 92 131 92 101.5 177.5 c 128,-1,44
 72 263 72 263 72 340.5 c 128,-1,45
 72 418 72 418 90 474.5 c 128,-1,46
 108 531 108 531 122.5 558 c 128,-1,47
 137 585 137 585 173 626.5 c 128,-1,48
 209 668 209 668 237 686 c 0,0,1
EndSplineSet
Validated: 1
EndChar

StartChar: D
Encoding: 68 68 16
Width: 746
VWidth: 1220
Flags: MW
LayerCount: 2
Fore
SplineSet
435 623 m 0,0,1
 352 669 352 669 302 669 c 128,-1,2
 252 669 252 669 206 649 c 1,3,-1
 186 643 l 1,4,-1
 186 346 l 1,5,6
 187 134 187 134 189.5 90 c 128,-1,7
 192 46 192 46 201 42 c 0,8,9
 213 38 213 38 265 34 c 0,10,11
 311 30 311 30 347 30 c 0,12,13
 351 30 351 30 355 30 c 0,14,15
 393 30 393 30 439 44 c 128,-1,16
 485 58 485 58 509 82 c 128,-1,17
 533 106 533 106 551.5 164 c 128,-1,18
 570 222 570 222 570 337.5 c 128,-1,19
 570 453 570 453 557.5 496 c 128,-1,20
 545 539 545 539 512.5 568.5 c 128,-1,21
 480 598 480 598 435 623 c 0,0,1
212 757 m 0,22,23
 224 759 224 759 272 760 c 1,24,-1
 310 760 l 1,25,26
 368 759 368 759 390.5 754.5 c 128,-1,27
 413 750 413 750 460.5 726 c 128,-1,28
 508 702 508 702 567.5 650 c 128,-1,29
 627 598 627 598 644 561 c 0,30,31
 657 536 657 536 659.5 506 c 128,-1,32
 662 476 662 476 662 355.5 c 128,-1,33
 662 235 662 235 660 200 c 128,-1,34
 658 165 658 165 643.5 122 c 128,-1,35
 629 79 629 79 618 59.5 c 128,-1,36
 607 40 607 40 578 16 c 0,37,38
 534 -26 534 -26 486 -47 c 0,39,40
 442 -62 442 -62 392 -62 c 128,-1,41
 342 -62 342 -62 274 -60.5 c 128,-1,42
 206 -59 206 -59 168.5 -52.5 c 128,-1,43
 131 -46 131 -46 108 -26 c 0,44,45
 97 -15 97 -15 95.5 36.5 c 128,-1,46
 94 88 94 88 94 332 c 2,47,-1
 94 674 l 1,48,-1
 126 705 l 1,49,50
 164 739 164 739 212 757 c 0,22,23
EndSplineSet
Validated: 1
EndChar

StartChar: E
Encoding: 69 69 17
Width: 617
VWidth: 1229
Flags: MW
LayerCount: 2
Fore
SplineSet
135.5 700 m 128,-1,1
 145 711 145 711 172.5 711 c 128,-1,2
 200 711 200 711 288 700 c 0,3,4
 366 688 366 688 455.5 688 c 128,-1,5
 545 688 545 688 559.5 674 c 128,-1,6
 574 660 574 660 574 641.5 c 128,-1,7
 574 623 574 623 559 606 c 0,8,9
 547 594 547 594 501 594 c 0,10,11
 476 594 476 594 216 607 c 1,12,-1
 176 613 l 1,13,-1
 180 557 l 1,14,15
 189 456 189 456 191 446 c 2,16,-1
 197 394 l 1,17,-1
 244 388 l 1,18,19
 341 377 341 377 388 374 c 0,20,21
 465 366 465 366 490.5 356 c 128,-1,22
 516 346 516 346 516 324 c 128,-1,23
 516 302 516 302 501.5 288.5 c 128,-1,24
 487 275 487 275 458.5 275 c 128,-1,25
 430 275 430 275 367 282 c 0,26,27
 260 290 260 290 223 296 c 2,28,-1
 197 300 l 1,29,-1
 197 37 l 1,30,-1
 341 37 l 2,31,32
 351 37 351 37 360 37 c 0,33,34
 487 37 487 37 500 24 c 0,35,36
 515 10 515 10 515 -9 c 0,37,38
 514 -26 514 -26 502 -38 c 128,-1,39
 490 -50 490 -50 460 -52.5 c 128,-1,40
 430 -55 430 -55 311 -55 c 128,-1,41
 192 -55 192 -55 159 -52.5 c 128,-1,42
 126 -50 126 -50 116 -40.5 c 128,-1,43
 106 -31 106 -31 104.5 2 c 128,-1,44
 103 35 103 35 103 191 c 128,-1,45
 103 347 103 347 91 475.5 c 128,-1,46
 79 604 79 604 79 632.5 c 128,-1,47
 79 661 79 661 91 672 c 0,48,49
 104 687 104 687 115 688 c 128,-1,0
 126 689 126 689 135.5 700 c 128,-1,1
EndSplineSet
Validated: 1
EndChar

StartChar: F
Encoding: 70 70 18
Width: 632
VWidth: 1229
Flags: MW
LayerCount: 2
Fore
SplineSet
522 711 m 0,0,1
 588 711 588 711 590 665 c 0,2,3
 590 647 590 647 572 633 c 0,4,5
 553 615 553 615 384 613 c 2,6,-1
 209 610 l 1,7,-1
 202 552 l 1,8,9
 188 453 188 453 187 431 c 1,10,-1
 179 365 l 1,11,-1
 260 369 l 2,12,13
 313 371 313 371 328.5 371.5 c 128,-1,14
 344 372 344 372 356 360 c 128,-1,15
 368 348 368 348 370 332 c 0,16,17
 370 307 370 307 347.5 291 c 128,-1,18
 325 275 325 275 260 274 c 0,19,20
 220 274 220 274 179 274 c 1,21,-1
 183 124 l 2,22,23
 185 72 185 72 185 28 c 0,24,25
 184 -26 184 -26 170 -40 c 128,-1,26
 156 -54 156 -54 138 -54 c 128,-1,27
 120 -54 120 -54 104 -37 c 128,-1,28
 88 -20 88 -20 88 226 c 128,-1,29
 88 472 88 472 102.5 564.5 c 128,-1,30
 117 657 117 657 130 673 c 0,31,32
 145 698 145 698 218 702 c 0,33,34
 232 703 232 703 299 704 c 0,35,36
 475 711 475 711 502 711 c 0,37,38
 512 711 512 711 522 711 c 0,0,1
EndSplineSet
Validated: 1
EndChar

StartChar: G
Encoding: 71 71 19
Width: 679
VWidth: 1238
Flags: MW
LayerCount: 2
Fore
SplineSet
74 291 m 1,0,-1
 75 343 l 2,1,2
 77 415 77 415 82 442.5 c 128,-1,3
 87 470 87 470 106 512 c 0,4,5
 131 576 131 576 173 617.5 c 128,-1,6
 215 659 215 659 239 671.5 c 128,-1,7
 263 684 263 684 316 698.5 c 128,-1,8
 369 713 369 713 446 714 c 0,9,10
 451 714 451 714 455 714 c 0,11,12
 524 714 524 714 540 700 c 0,13,14
 555 684 555 684 555 663 c 0,15,16
 555 643 555 643 538 627 c 0,17,18
 524 615 524 615 507 615 c 1,19,-1
 450 621 l 1,20,21
 396 621 396 621 336 601 c 128,-1,22
 276 581 276 581 244 552 c 128,-1,23
 212 523 212 523 189 451.5 c 128,-1,24
 166 380 166 380 166 312 c 0,25,26
 166 291 166 291 169 282 c 0,27,28
 173 236 173 236 188.5 212.5 c 128,-1,29
 204 189 204 189 246 165 c 0,30,31
 276 146 276 146 293 144 c 128,-1,32
 310 142 310 142 340 142 c 2,33,-1
 495 142 l 1,34,-1
 495 200 l 1,35,-1
 441 200 l 2,36,37
 388 200 388 200 366 218 c 0,38,39
 345 233 345 233 345 251.5 c 128,-1,40
 345 270 345 270 357.5 283.5 c 128,-1,41
 370 297 370 297 404 297 c 0,42,43
 410 297 410 297 484 293.5 c 128,-1,44
 558 290 558 290 571 279 c 128,-1,45
 584 268 584 268 586 248 c 0,46,47
 588 215 588 215 588 197.5 c 128,-1,48
 588 180 588 180 587.5 170 c 128,-1,49
 587 160 587 160 587 148 c 2,50,-1
 587 96 l 2,51,52
 587 -14 587 -14 585 -46 c 0,53,54
 581 -102 581 -102 542 -103 c 0,55,56
 528 -103 528 -103 511 -90 c 0,57,58
 496 -75 496 -75 495 -15 c 1,59,-1
 495 48 l 1,60,-1
 247 48 l 1,61,-1
 191 82 l 1,62,63
 119 124 119 124 96.5 163 c 128,-1,64
 74 202 74 202 74 291 c 1,0,-1
EndSplineSet
Validated: 1
EndChar

StartChar: H
Encoding: 72 72 20
Width: 698
VWidth: 1220
Flags: MW
LayerCount: 2
Fore
SplineSet
498 83 m 1,0,-1
 502 163 l 1,1,-1
 504 326 l 1,2,-1
 391 320 l 2,3,4
 272 314 272 314 237 309 c 1,5,-1
 195 306 l 1,6,-1
 194 224 l 2,7,8
 193 140 193 140 183 55.5 c 128,-1,9
 173 -29 173 -29 162 -43 c 0,10,11
 150 -56 150 -56 132 -56 c 128,-1,12
 114 -56 114 -56 100.5 -41 c 128,-1,13
 87 -26 87 -26 87 -4.5 c 128,-1,14
 87 17 87 17 93 79.5 c 128,-1,15
 99 142 99 142 99 387.5 c 128,-1,16
 99 633 99 633 101 678.5 c 128,-1,17
 103 724 103 724 116 738 c 128,-1,18
 129 752 129 752 149 752 c 0,19,20
 150 752 150 752 150 753 c 0,21,22
 151 753 151 753 153 753 c 0,23,24
 170 753 170 753 181 740 c 0,25,26
 194 726 194 726 194 696 c 2,27,-1
 194 672 l 1,28,-1
 193 606 l 1,29,-1
 194 514 l 1,30,-1
 195 406 l 1,31,-1
 350 411 l 1,32,33
 504 417 504 417 506.5 420 c 128,-1,34
 509 423 509 423 515 567 c 0,35,36
 524 714 524 714 538 730 c 0,37,38
 553 745 553 745 571.5 745 c 128,-1,39
 590 745 590 745 602.5 732.5 c 128,-1,40
 615 720 615 720 615 679 c 2,41,-1
 615 674 l 2,42,43
 615 628 615 628 604 406.5 c 128,-1,44
 593 185 593 185 592.5 93 c 128,-1,45
 592 1 592 1 579 -14 c 128,-1,46
 566 -29 566 -29 548 -29 c 0,47,48
 546 -29 546 -29 545 -29 c 0,49,50
 526 -29 526 -29 513 -14.5 c 128,-1,51
 500 0 500 0 498 83 c 1,0,-1
EndSplineSet
Validated: 1
EndChar

StartChar: I
Encoding: 73 73 21
Width: 328
VWidth: 1216
Flags: MW
LayerCount: 2
Fore
SplineSet
105 676 m 2,0,1
 84 676 84 676 70 689.5 c 128,-1,2
 56 703 56 703 56 721 c 128,-1,3
 56 739 56 739 68.5 753 c 128,-1,4
 81 767 81 767 108 767 c 0,5,6
 216 767 216 767 250 752 c 0,7,8
 275 741 275 741 275 721 c 128,-1,9
 275 701 275 701 261 684.5 c 128,-1,10
 247 668 247 668 233 668 c 0,11,12
 222 668 222 668 219 620 c 128,-1,13
 216 572 216 572 213 359 c 1,14,-1
 205 50 l 1,15,-1
 229 33 l 2,16,17
 251 18 251 18 251 -4 c 128,-1,18
 251 -26 251 -26 228 -42 c 128,-1,19
 205 -58 205 -58 149 -58 c 0,20,21
 65 -58 65 -58 65 -18 c 0,22,23
 65 -1 65 -1 77.5 16.5 c 128,-1,24
 90 34 90 34 102 34 c 2,25,-1
 103 34 l 2,26,27
 115 34 115 34 115 113 c 128,-1,28
 115 192 115 192 121 445 c 1,29,-1
 125 676 l 1,30,-1
 105 676 l 2,0,1
EndSplineSet
Validated: 1
EndChar

StartChar: J
Encoding: 74 74 22
Width: 561
VWidth: 1233
Flags: MW
LayerCount: 2
Fore
SplineSet
224 672 m 1,0,-1
 337 668 l 2,1,2
 340 668 340 668 343.5 667.5 c 128,-1,3
 347 667 347 667 359 667 c 128,-1,4
 371 667 371 667 375.5 674 c 128,-1,5
 380 681 380 681 394 682 c 0,6,7
 426 682 426 682 447 657 c 0,8,9
 460 638 460 638 469 545 c 128,-1,10
 478 452 478 452 478 352 c 0,11,12
 478 347 478 347 479 342 c 0,13,14
 479 249 479 249 470 187 c 0,15,16
 461 122 461 122 443.5 85 c 128,-1,17
 426 48 426 48 378 3 c 1,18,-1
 335 -39 l 1,19,-1
 248 -42 l 2,20,21
 224 -43 224 -43 187.5 -43 c 128,-1,22
 151 -43 151 -43 129 -28 c 0,23,24
 60 15 60 15 59 67 c 0,25,26
 59 87 59 87 72 102 c 0,27,28
 85 115 85 115 104 115 c 128,-1,29
 123 115 123 115 157 82.5 c 128,-1,30
 191 50 191 50 217 49 c 1,31,-1
 244 52 l 1,32,33
 286 54 286 54 305.5 68 c 128,-1,34
 325 82 325 82 349 122 c 0,35,36
 384 184 384 184 384 351 c 0,37,38
 384 448 384 448 374 533 c 1,39,-1
 367 572 l 1,40,-1
 290 572 l 2,41,42
 213 572 213 572 190 591 c 0,43,44
 170 605 170 605 170 625.5 c 128,-1,45
 170 646 170 646 180 658 c 0,46,47
 193 671 193 671 224 672 c 1,0,-1
EndSplineSet
Validated: 1
EndChar

StartChar: K
Encoding: 75 75 23
Width: 581
VWidth: 1251
Flags: MW
LayerCount: 2
Fore
SplineSet
85 481 m 0,0,1
 85 558 85 558 100.5 573.5 c 128,-1,2
 116 589 116 589 131 589 c 0,3,4
 132 589 132 589 133 589 c 0,5,6
 148 589 148 589 166 576 c 0,7,8
 177 567 177 567 179 549.5 c 128,-1,9
 181 532 181 532 181.5 456 c 128,-1,10
 182 380 182 380 189.5 380 c 128,-1,11
 197 380 197 380 233.5 408.5 c 128,-1,12
 270 437 270 437 299 452 c 128,-1,13
 328 467 328 467 403 512 c 1,14,15
 441 540 441 540 461 540 c 0,16,17
 462 540 462 540 462 541 c 0,18,19
 481 541 481 541 495 526 c 0,20,21
 510 511 510 511 510 494 c 128,-1,22
 510 477 510 477 470 443 c 128,-1,23
 430 409 430 409 371 377 c 0,24,25
 295 332 295 332 277 319 c 1,26,-1
 243 292 l 1,27,-1
 279 261 l 2,28,29
 297 246 297 246 360 199 c 0,30,31
 509 87 509 87 510 52 c 0,32,33
 510 33 510 33 496 17 c 128,-1,34
 482 1 482 1 468 1 c 128,-1,35
 454 1 454 1 406 36 c 0,36,37
 382 55 382 55 322 101.5 c 128,-1,38
 262 148 262 148 230 176 c 1,39,-1
 185 212 l 2,40,41
 184 212 184 212 184 195.5 c 128,-1,42
 184 179 184 179 186 107.5 c 128,-1,43
 188 36 188 36 191 30 c 0,44,45
 191 -4 191 -4 177 -16 c 0,46,47
 165 -31 165 -31 142.5 -31 c 128,-1,48
 120 -31 120 -31 110 -16 c 0,49,50
 99 -4 99 -4 95 44 c 0,51,52
 85 190 85 190 85 481 c 0,0,1
EndSplineSet
Validated: 1
EndChar

StartChar: L
Encoding: 76 76 24
Width: 617
VWidth: 1454
Flags: MW
LayerCount: 2
Fore
SplineSet
488.5 63.5 m 128,-1,1
 515 59 515 59 535.5 41.5 c 128,-1,2
 556 24 556 24 556 0 c 128,-1,3
 556 -24 556 -24 539.5 -39 c 128,-1,4
 523 -54 523 -54 497 -54 c 128,-1,5
 471 -54 471 -54 422.5 -47 c 128,-1,6
 374 -40 374 -40 298 -40 c 128,-1,7
 222 -40 222 -40 179 -42.5 c 128,-1,8
 136 -45 136 -45 135 -45 c 0,9,10
 100 -45 100 -45 82 -27 c 0,11,12
 68 -9 68 -9 68 1.5 c 128,-1,13
 68 12 68 12 75 53 c 0,14,15
 100 174 100 174 138 499 c 0,16,17
 150 600 150 600 172 625 c 0,18,19
 194 647 194 647 216 647 c 128,-1,20
 238 647 238 647 255 627 c 0,21,22
 268 608 268 608 268 597 c 0,23,24
 268 582 268 582 238 356 c 0,25,26
 208 126 208 126 208 90 c 0,27,28
 208 78 208 78 335 73 c 128,-1,0
 462 68 462 68 488.5 63.5 c 128,-1,1
EndSplineSet
Validated: 1
EndChar

StartChar: M
Encoding: 77 77 25
Width: 725
VWidth: 1255
Flags: MW
LayerCount: 2
Fore
SplineSet
411 358 m 0,0,1
 415 358 415 358 464 450 c 128,-1,2
 513 542 513 542 530 564 c 0,3,4
 548 588 548 588 567 588 c 128,-1,5
 586 588 586 588 605 565 c 0,6,7
 617 550 617 550 619.5 525 c 128,-1,8
 622 500 622 500 622.5 391 c 128,-1,9
 623 282 623 282 628.5 172.5 c 128,-1,10
 634 63 634 63 634 29 c 128,-1,11
 634 -5 634 -5 623 -17 c 128,-1,12
 612 -29 612 -29 592.5 -29 c 128,-1,13
 573 -29 573 -29 557.5 -9 c 128,-1,14
 542 11 542 11 533 183 c 1,15,-1
 526 355 l 1,16,-1
 490 274 l 2,17,18
 458 200 458 200 429 169.5 c 128,-1,19
 400 139 400 139 378 139 c 0,20,21
 337 139 337 139 330 200 c 0,22,23
 324 245 324 245 319 245 c 0,24,25
 298 244 298 244 275 178 c 0,26,27
 260 138 260 138 154 -18 c 0,28,29
 134 -47 134 -47 111 -47 c 0,30,-1
 110 -46 l 0,31,32
 86 -46 86 -46 71.5 -32.5 c 128,-1,33
 57 -19 57 -19 57 0 c 128,-1,34
 57 19 57 19 81.5 55.5 c 128,-1,35
 106 92 106 92 170 210 c 1,36,-1
 312 515 l 1,37,38
 330 535 330 535 351 535 c 128,-1,39
 372 535 372 535 383.5 512.5 c 128,-1,40
 395 490 395 490 400.5 424.5 c 128,-1,41
 406 359 406 359 411 358 c 0,0,1
EndSplineSet
Validated: 1
EndChar

StartChar: N
Encoding: 78 78 26
Width: 902
VWidth: 1234
Flags: MW
LayerCount: 2
Fore
SplineSet
811 684 m 0,0,1
 813 684 813 684 814 684 c 0,2,3
 832 684 832 684 846 670 c 128,-1,4
 860 656 860 656 860 642 c 2,5,-1
 860 640 l 2,6,7
 860 619 860 619 822 574 c 0,8,9
 735 471 735 471 677 342 c 0,10,11
 652 288 652 288 573.5 143 c 128,-1,12
 495 -2 495 -2 471.5 -34.5 c 128,-1,13
 448 -67 448 -67 426 -67 c 0,14,15
 425 -67 425 -67 424 -67 c 0,16,17
 406 -67 406 -67 393.5 -52.5 c 128,-1,18
 381 -38 381 -38 381 -26 c 128,-1,19
 381 -14 381 -14 388 44 c 0,20,21
 413 244 413 244 415 385 c 1,22,-1
 418 445 l 1,23,-1
 397 415 l 1,24,25
 383 391 383 391 323 276.5 c 128,-1,26
 263 162 263 162 172 26 c 0,27,28
 128 -41 128 -41 103 -42 c 0,29,30
 89 -42 89 -42 74 -28.5 c 128,-1,31
 59 -15 59 -15 59 11.5 c 128,-1,32
 59 38 59 38 88 80 c 0,33,34
 180 220 180 220 235 328 c 128,-1,35
 290 436 290 436 303 456 c 0,36,37
 373 556 373 556 397.5 614.5 c 128,-1,38
 422 673 422 673 435.5 687 c 128,-1,39
 449 701 449 701 465 701 c 0,40,41
 466 701 466 701 467 701 c 0,42,43
 487 701 487 701 500.5 686 c 128,-1,44
 514 671 514 671 514 616 c 2,45,-1
 514 605 l 2,46,47
 514 500 514 500 512 397 c 128,-1,48
 510 294 510 294 510 283 c 2,49,-1
 510 244 l 1,50,51
 519 244 519 244 578 374 c 128,-1,52
 637 504 637 504 731 620 c 0,53,54
 783 683 783 683 811 684 c 0,0,1
EndSplineSet
Validated: 1
EndChar

StartChar: O
Encoding: 79 79 27
Width: 705
VWidth: 1244
Flags: MW
LayerCount: 2
Fore
SplineSet
308 41 m 0,0,1
 312 41 312 41 317 41 c 2,2,-1
 395 54 l 1,3,4
 463 78 463 78 492.5 123 c 128,-1,5
 522 168 522 168 530 259 c 0,6,7
 532 307 532 307 534 326 c 0,8,9
 533 440 533 440 498 494 c 128,-1,10
 463 548 463 548 445 548 c 0,11,12
 441 548 441 548 440 541 c 0,13,14
 440 523 440 523 419 512 c 128,-1,15
 398 501 398 501 364 501 c 0,16,17
 226 501 226 501 179 323 c 0,18,19
 164 260 164 260 164 215 c 0,20,21
 164 203 164 203 165 192 c 0,22,23
 170 141 170 141 182 116 c 128,-1,24
 194 91 194 91 227 66 c 128,-1,25
 260 41 260 41 308 41 c 0,0,1
437 622 m 0,26,27
 449 636 449 636 479 636 c 128,-1,28
 509 636 509 636 549 590 c 0,29,30
 603 532 603 532 612.5 500.5 c 128,-1,31
 622 469 622 469 622 345 c 2,32,-1
 622 324 l 2,33,34
 622 188 622 188 614 150.5 c 128,-1,35
 606 113 606 113 566 56 c 0,36,37
 487 -53 487 -53 336 -54 c 0,38,39
 255 -54 255 -54 235 -48 c 0,40,41
 174 -29 174 -29 118 36 c 0,42,43
 87 72 87 72 80 93.5 c 128,-1,44
 73 115 73 115 73 223 c 128,-1,45
 73 331 73 331 91.5 389.5 c 128,-1,46
 110 448 110 448 161 505 c 128,-1,47
 212 562 212 562 242.5 577.5 c 132,-1,48
 273 593 273 593 320 593 c 0,49,50
 350 593 350 593 386.5 593 c 128,-1,51
 423 593 423 593 423 597 c 0,52,53
 423 608 423 608 437 622 c 0,26,27
EndSplineSet
Validated: 1
EndChar

StartChar: P
Encoding: 80 80 28
Width: 602
VWidth: 1238
Flags: MW
LayerCount: 2
Fore
SplineSet
371.5 529.5 m 128,-1,1
 317 564 317 564 308.5 571.5 c 128,-1,2
 300 579 300 579 249 584 c 1,3,-1
 200 590 l 1,4,-1
 193 440 l 1,5,6
 191 338 191 338 188 314 c 0,7,8
 188 288 188 288 192 285 c 128,-1,9
 196 282 196 282 257.5 282 c 128,-1,10
 319 282 319 282 346.5 292 c 128,-1,11
 374 302 374 302 384 312 c 128,-1,12
 394 322 394 322 415.5 365 c 128,-1,13
 437 408 437 408 437 438 c 128,-1,14
 437 468 437 468 431.5 481.5 c 128,-1,0
 426 495 426 495 371.5 529.5 c 128,-1,1
141 660 m 0,15,16
 152 673 152 673 166.5 676 c 128,-1,17
 181 679 181 679 210.5 679.5 c 128,-1,18
 240 680 240 680 245 681 c 0,19,20
 289 680 289 680 307.5 675.5 c 128,-1,21
 326 671 326 671 361 653 c 0,22,23
 480 589 480 589 518 532 c 0,24,25
 534 503 534 503 534 435 c 0,26,27
 534 369 534 369 506 312 c 0,28,29
 473 238 473 238 423 213 c 128,-1,30
 373 188 373 188 267 187 c 1,31,-1
 180 187 l 1,32,-1
 180 81 l 2,33,34
 180 8 180 8 177 -11 c 0,35,36
 176 -30 176 -30 160 -46 c 0,37,38
 143 -63 143 -63 126 -63 c 0,39,40
 111 -63 111 -63 95 -50 c 0,41,42
 82 -38 82 -38 82 -4 c 128,-1,43
 82 30 82 30 82.5 41 c 128,-1,44
 83 52 83 52 83 67.5 c 128,-1,45
 83 83 83 83 88.5 190.5 c 128,-1,46
 94 298 94 298 98 422 c 128,-1,47
 102 546 102 546 109 588.5 c 128,-1,48
 116 631 116 631 141 660 c 0,15,16
EndSplineSet
Validated: 1
EndChar

StartChar: Q
Encoding: 81 81 29
Width: 740
VWidth: 1240
Flags: MW
LayerCount: 2
Fore
SplineSet
532 509 m 0,0,1
 506 560 506 560 496 560 c 0,2,3
 489 560 489 560 485 552 c 0,4,5
 473 539 473 539 425 538 c 0,6,7
 339 538 339 538 269 488 c 0,8,9
 199 440 199 440 178 364 c 0,10,11
 163 307 163 307 163 272.5 c 128,-1,12
 163 238 163 238 181 190 c 128,-1,13
 199 142 199 142 217 124 c 0,14,15
 245 98 245 98 281 78 c 128,-1,16
 317 58 317 58 337 58 c 0,17,18
 338 58 338 58 339 57 c 0,19,20
 359 57 359 57 396 70 c 0,21,22
 434 83 434 83 434 89.5 c 128,-1,23
 434 96 434 96 414 116 c 0,24,25
 393 136 393 136 392 162 c 0,26,27
 393 181 393 181 407 193 c 0,28,29
 421 208 421 208 438 208 c 0,30,31
 439 208 l 0,32,33
 456 208 456 208 480 184 c 1,34,-1
 505 158 l 1,35,-1
 519 182 l 2,36,37
 530 200 530 200 541 289 c 128,-1,38
 552 378 552 378 552 421 c 128,-1,39
 552 464 552 464 532 509 c 0,0,1
260 600 m 0,40,41
 305 624 305 624 366 629 c 128,-1,42
 427 634 427 634 435.5 645.5 c 128,-1,43
 444 657 444 657 488 657 c 2,44,-1
 498 657 l 2,45,46
 535 657 535 657 546.5 652.5 c 128,-1,47
 558 648 558 648 580.5 621 c 128,-1,48
 603 594 603 594 603 589 c 128,-1,49
 603 584 603 584 621 555 c 0,50,51
 643 524 643 524 644 437 c 1,52,-1
 644 428 l 1,53,54
 639 197 639 197 607 136 c 1,55,-1
 585 100 l 1,56,-1
 624 64 l 1,57,58
 663 25 663 25 663 -4 c 0,59,60
 663 -22 663 -22 647 -36 c 0,61,62
 633 -50 633 -50 615 -50 c 0,63,64
 615 -51 l 0,65,66
 597 -50 597 -50 577 -26 c 128,-1,67
 557 -2 557 -2 537.5 9.5 c 128,-1,68
 518 21 518 21 513 20 c 128,-1,69
 508 19 508 19 488 7 c 0,70,71
 434 -35 434 -35 337 -35 c 2,72,-1
 319 -35 l 2,73,74
 286 -35 286 -35 271.5 -31.5 c 128,-1,75
 257 -28 257 -28 231 -13 c 0,76,77
 183 19 183 19 143.5 62 c 128,-1,78
 104 105 104 105 90 145 c 0,79,80
 71 192 71 192 71 267.5 c 128,-1,81
 71 343 71 343 82.5 390.5 c 128,-1,82
 94 438 94 438 106.5 458 c 128,-1,83
 119 478 119 478 167 528 c 128,-1,84
 215 578 215 578 260 600 c 0,40,41
EndSplineSet
Validated: 1
EndChar

StartChar: R
Encoding: 82 82 30
Width: 551
VWidth: 1244
Flags: MW
LayerCount: 2
Fore
SplineSet
351 521 m 0,0,1
 337 535 337 535 291 535 c 2,2,-1
 273 535 l 2,3,4
 206 535 206 535 198 529 c 1,5,6
 187 527 187 527 187 411 c 2,7,-1
 187 366 l 2,8,9
 187 325 187 325 190.5 312.5 c 128,-1,10
 194 300 194 300 207.5 300 c 128,-1,11
 221 300 221 300 287.5 321 c 128,-1,12
 354 342 354 342 368 354 c 128,-1,13
 382 366 382 366 382 412 c 0,14,15
 382 490 382 490 351 521 c 0,0,1
150 620 m 0,16,17
 162 627 162 627 201 627 c 0,18,19
 291 627 291 627 381 627 c 1,20,-1
 410 601 l 1,21,22
 450 568 450 568 462 532 c 128,-1,23
 474 496 474 496 474 414 c 2,24,-1
 474 318 l 1,25,-1
 437 284 l 2,26,27
 399 250 399 250 352 234 c 1,28,-1
 305 220 l 1,29,-1
 332 191 l 1,30,31
 365 154 365 154 394 112 c 0,32,33
 428 58 428 58 436 54 c 0,34,35
 449 43 449 43 449 24.5 c 128,-1,36
 449 6 449 6 435.5 -12 c 128,-1,37
 422 -30 422 -30 405 -30 c 128,-1,38
 388 -30 388 -30 353.5 4.5 c 128,-1,39
 319 39 319 39 289.5 85 c 128,-1,40
 260 131 260 131 219 168 c 1,41,-1
 184 203 l 1,42,-1
 181 92 l 1,43,44
 180 -16 180 -16 165 -31 c 128,-1,45
 150 -46 150 -46 132 -46 c 2,46,-1
 131 -46 l 2,47,48
 113 -46 113 -46 99.5 -31 c 128,-1,49
 86 -16 86 -16 86 73 c 0,50,51
 86 85 86 85 89 288 c 128,-1,52
 92 491 92 491 96 535.5 c 128,-1,53
 100 580 100 580 116 597 c 128,-1,54
 132 614 132 614 150 620 c 0,16,17
EndSplineSet
Validated: 1
EndChar

StartChar: S
Encoding: 83 83 31
Width: 588
VWidth: 1234
Flags: MW
LayerCount: 2
Fore
SplineSet
209 621 m 128,-1,1
 246 657 246 657 274.5 671 c 128,-1,2
 303 685 303 685 379 686 c 0,3,4
 395 686 395 686 407 686 c 0,5,6
 459 686 459 686 475 683 c 0,7,8
 495 678 495 678 513 666 c 0,9,10
 532 653 532 653 532 628 c 0,11,12
 531 604 531 604 509 597 c 0,13,14
 487 589 487 589 417 589 c 128,-1,15
 347 589 347 589 331 584.5 c 128,-1,16
 315 580 315 580 290 563 c 0,17,18
 265 543 265 543 249.5 510.5 c 128,-1,19
 234 478 234 478 234 455.5 c 128,-1,20
 234 433 234 433 241 425 c 0,21,22
 252 405 252 405 282.5 376 c 128,-1,23
 313 347 313 347 325.5 347 c 128,-1,24
 338 347 338 347 390.5 320 c 128,-1,25
 443 293 443 293 459 274 c 0,26,27
 477 256 477 256 487 212.5 c 128,-1,28
 497 169 497 169 497 134.5 c 128,-1,29
 497 100 497 100 495 91 c 0,30,31
 484 27 484 27 413 -15.5 c 128,-1,32
 342 -58 342 -58 243 -58 c 0,33,34
 195 -58 195 -58 144.5 -46.5 c 128,-1,35
 94 -35 94 -35 75.5 -19 c 128,-1,36
 57 -3 57 -3 57 21.5 c 128,-1,37
 57 46 57 46 69 56 c 0,38,39
 81 68 81 68 92 68 c 0,40,-1
 93 68 l 0,41,42
 105 68 105 68 161 52 c 0,43,44
 225 37 225 37 239.5 37 c 128,-1,45
 254 37 254 37 302 47 c 128,-1,46
 350 57 350 57 374 76 c 128,-1,47
 398 95 398 95 398 130 c 0,48,49
 398 149 398 149 393 174.5 c 128,-1,50
 388 200 388 200 380 208.5 c 128,-1,51
 372 217 372 217 322.5 239.5 c 128,-1,52
 273 262 273 262 264 263 c 2,53,-1
 263 263 l 2,54,55
 252 263 252 263 197.5 324 c 128,-1,56
 143 385 143 385 138 401 c 0,57,58
 136 419 136 419 135 435 c 0,59,60
 135 510 135 510 158 556 c 0,61,0
 172 585 172 585 209 621 c 128,-1,1
EndSplineSet
Validated: 1
EndChar

StartChar: T
Encoding: 84 84 32
Width: 560
VWidth: 1240
Flags: MW
LayerCount: 2
Fore
SplineSet
56 631 m 128,-1,1
 68 645 68 645 276 647 c 1,2,-1
 366 647 l 2,3,4
 485 647 485 647 501 634 c 0,5,6
 516 620 516 620 516 604.5 c 128,-1,7
 516 589 516 589 501 572 c 0,8,9
 492 561 492 561 473.5 558 c 128,-1,10
 455 555 455 555 396 555 c 2,11,-1
 306 555 l 1,12,-1
 304 481 l 1,13,14
 304 404 304 404 295.5 363 c 128,-1,15
 287 322 287 322 279 154 c 128,-1,16
 271 -14 271 -14 257 -28 c 128,-1,17
 243 -42 243 -42 225 -43 c 0,18,19
 180 -43 180 -43 180 20 c 0,20,21
 180 21 180 21 180 23 c 2,22,-1
 180 30 l 2,23,24
 180 41 180 41 185 167.5 c 128,-1,25
 190 294 190 294 201.5 375 c 128,-1,26
 213 456 213 456 213 508 c 2,27,-1
 213 547 l 1,28,-1
 150 547 l 2,29,30
 90 547 90 547 65 565 c 0,31,32
 44 583 44 583 44 600 c 128,-1,0
 44 617 44 617 56 631 c 128,-1,1
EndSplineSet
Validated: 1
EndChar

StartChar: U
Encoding: 85 85 33
Width: 727
VWidth: 1233
Flags: MW
LayerCount: 2
Fore
SplineSet
312 45 m 0,0,1
 315 45 315 45 318 45 c 0,2,3
 331 45 331 45 366 75 c 0,4,5
 420 121 420 121 444.5 201.5 c 128,-1,6
 469 282 469 282 481 423.5 c 128,-1,7
 493 565 493 565 510 586 c 0,8,9
 525 607 525 607 526 634.5 c 128,-1,10
 527 662 527 662 541 676 c 0,11,12
 553 690 553 690 573 690 c 0,13,14
 574 690 574 690 575 691 c 0,15,16
 576 691 576 691 577 691 c 0,17,18
 595 691 595 691 607 676 c 0,19,20
 621 661 621 661 621 642 c 0,21,22
 621 630 621 630 619 596 c 0,23,24
 617 570 617 570 617 549 c 2,25,-1
 617 496 l 2,26,27
 617 173 617 173 637 52 c 0,28,29
 643 6 643 6 643 -3 c 128,-1,30
 643 -12 643 -12 632 -28 c 0,31,32
 617 -43 617 -43 599 -43 c 128,-1,33
 581 -43 581 -43 562 -24 c 0,34,35
 544 -5 544 -5 538.5 56 c 128,-1,36
 533 117 533 117 524 117 c 0,37,38
 518 117 518 117 513.5 99.5 c 128,-1,39
 509 82 509 82 456 26 c 128,-1,40
 403 -30 403 -30 381.5 -41 c 128,-1,41
 360 -52 360 -52 326 -52 c 0,42,43
 323 -52 323 -52 320 -52 c 0,44,45
 280 -52 280 -52 254 -39 c 0,46,47
 162 8 162 8 117 134 c 0,48,49
 103 172 103 172 91.5 283.5 c 128,-1,50
 80 395 80 395 80 489 c 2,51,-1
 80 524 l 1,52,53
 82 631 82 631 100 650 c 0,54,55
 112 665 112 665 133.5 665 c 128,-1,56
 155 665 155 665 167 650 c 0,57,58
 179 638 179 638 179 608 c 1,59,-1
 175 489 l 1,60,61
 175 326 175 326 201 208 c 0,62,63
 233 67 233 67 312 45 c 0,0,1
EndSplineSet
Validated: 1
EndChar

StartChar: V
Encoding: 86 86 34
Width: 649
VWidth: 1226
Flags: MW
LayerCount: 2
Fore
SplineSet
56 657 m 0,0,1
 56 719 56 719 99 719 c 0,2,3
 117 719 117 719 132 704.5 c 128,-1,4
 147 690 147 690 147 666.5 c 128,-1,5
 147 643 147 643 163 582 c 0,6,7
 219 384 219 384 231 329 c 0,8,9
 271 138 271 138 281 138 c 0,10,11
 287 139 287 139 320 213 c 128,-1,12
 353 287 353 287 386.5 372.5 c 128,-1,13
 420 458 420 458 464.5 552 c 128,-1,14
 509 646 509 646 523.5 661.5 c 128,-1,15
 538 677 538 677 555 679 c 0,16,17
 574 679 574 679 589 664 c 128,-1,18
 604 649 604 649 604 627 c 0,19,-1
 603 626 l 0,20,21
 603 603 603 603 542 476 c 128,-1,22
 481 349 481 349 460.5 289 c 128,-1,23
 440 229 440 229 379 103 c 128,-1,24
 318 -23 318 -23 301 -43 c 0,25,26
 287 -57 287 -57 272.5 -57 c 128,-1,27
 258 -57 258 -57 240 -43 c 0,28,29
 226 -30 226 -30 206 30 c 0,30,31
 197 63 197 63 182 108 c 128,-1,32
 167 153 167 153 142.5 269 c 128,-1,33
 118 385 118 385 110 408 c 0,34,35
 56 572 56 572 56 657 c 0,0,1
EndSplineSet
Validated: 1
EndChar

StartChar: W
Encoding: 87 87 35
Width: 986
VWidth: 1226
Flags: MW
LayerCount: 2
Fore
SplineSet
492 423 m 0,0,1
 494 423 494 423 496 423 c 0,2,3
 511 423 511 423 523.5 409 c 128,-1,4
 536 395 536 395 564 331 c 128,-1,5
 592 267 592 267 611 214 c 2,6,-1
 630 158 l 1,7,-1
 643 188 l 2,8,9
 647 197 647 197 674.5 280.5 c 128,-1,10
 702 364 702 364 731 442.5 c 128,-1,11
 760 521 760 521 769 531.5 c 128,-1,12
 778 542 778 542 805.5 598.5 c 128,-1,13
 833 655 833 655 833 665.5 c 128,-1,14
 833 676 833 676 859.5 698 c 128,-1,15
 886 720 886 720 898 720 c 128,-1,16
 910 720 910 720 927 705.5 c 128,-1,17
 944 691 944 691 944 677.5 c 128,-1,18
 944 664 944 664 915.5 597 c 128,-1,19
 887 530 887 530 859.5 478.5 c 128,-1,20
 832 427 832 427 783 285 c 128,-1,21
 734 143 734 143 717 105 c 0,22,23
 680 27 680 27 676 8 c 0,24,25
 665 -48 665 -48 623 -49 c 2,26,-1
 622 -49 l 2,27,28
 581 -49 581 -49 569 8 c 0,29,30
 561 42 561 42 530.5 134 c 128,-1,31
 500 226 500 226 496 226 c 128,-1,32
 492 226 492 226 447.5 119.5 c 128,-1,33
 403 13 403 13 403 -1 c 0,34,35
 403 -2 403 -2 403 -3 c 0,36,37
 403 -17 403 -17 384 -37 c 128,-1,38
 365 -57 365 -57 350 -57 c 0,39,40
 308 -57 308 -57 272 49 c 0,41,42
 259 89 259 89 232.5 153.5 c 128,-1,43
 206 218 206 218 192 262 c 0,44,45
 134 440 134 440 78 548 c 0,46,47
 49 603 49 603 49 633.5 c 128,-1,48
 49 664 49 664 62 679 c 128,-1,49
 75 694 75 694 91.5 694 c 128,-1,50
 108 694 108 694 124.5 681 c 128,-1,51
 141 668 141 668 141 655 c 128,-1,52
 141 642 141 642 173 584 c 0,53,54
 219 489 219 489 264 357.5 c 128,-1,55
 309 226 309 226 327 188 c 2,56,-1
 348 143 l 1,57,-1
 384 234 l 2,58,59
 421 326 421 326 430 357 c 0,60,61
 454 422 454 422 492 423 c 0,0,1
EndSplineSet
Validated: 1
EndChar

StartChar: X
Encoding: 88 88 36
Width: 790
VWidth: 1213
Flags: MW
LayerCount: 2
Fore
SplineSet
636 744 m 0,0,1
 684 789 684 789 709 790 c 0,2,3
 723 790 723 790 738 777 c 128,-1,4
 753 764 753 764 753 748 c 0,5,6
 753 720 753 720 702.5 671 c 128,-1,7
 652 622 652 622 557.5 513.5 c 128,-1,8
 463 405 463 405 463 395 c 1,9,-1
 500 331 l 2,10,11
 554 240 554 240 588 164 c 0,12,13
 622 90 622 90 648 50 c 0,14,15
 674 9 674 9 674 -20 c 0,16,17
 674 -42 674 -42 660 -57 c 0,18,19
 646 -69 646 -69 634 -69 c 0,20,21
 608 -69 608 -69 571 -15 c 128,-1,22
 534 39 534 39 469 171 c 0,23,24
 409 301 409 301 397 306 c 0,25,26
 396 307 396 307 390.5 307 c 128,-1,27
 385 307 385 307 372.5 291 c 128,-1,28
 360 275 360 275 279 187 c 0,29,30
 206 112 206 112 183 64 c 0,31,32
 158 18 158 18 146 4 c 0,33,34
 132 -10 132 -10 112 -10 c 0,35,36
 111 -10 111 -10 111 -11 c 1,37,38
 91 -11 91 -11 75.5 2 c 128,-1,39
 60 15 60 15 60 36 c 128,-1,40
 60 57 60 57 97 115 c 0,41,42
 132 173 132 173 185 228 c 128,-1,43
 238 283 238 283 293 351 c 2,44,-1
 337 405 l 1,45,-1
 266 494 l 2,46,47
 179 602 179 602 128.5 660 c 128,-1,48
 78 718 78 718 78 735.5 c 128,-1,49
 78 753 78 753 92 767.5 c 128,-1,50
 106 782 106 782 123.5 782 c 128,-1,51
 141 782 141 782 206.5 715.5 c 128,-1,52
 272 649 272 649 342 560 c 2,53,-1
 402 485 l 1,54,-1
 450 538 l 1,55,56
 474 563 474 563 535 636.5 c 128,-1,57
 596 710 596 710 636 744 c 0,0,1
EndSplineSet
Validated: 1
EndChar

StartChar: Y
Encoding: 89 89 37
Width: 760
VWidth: 1212
Flags: MW
LayerCount: 2
Fore
SplineSet
38 761 m 0,0,1
 38 776 38 776 51.5 790 c 128,-1,2
 65 804 65 804 85.5 804 c 128,-1,3
 106 804 106 804 124 783 c 0,4,5
 155 750 155 750 205.5 673 c 128,-1,6
 256 596 256 596 283 543 c 0,7,8
 328 451 328 451 343 451 c 0,9,10
 345 451 345 451 353 458 c 1,11,12
 357 466 357 466 366 480 c 128,-1,13
 375 494 375 494 382 506 c 0,14,15
 463 624 463 624 586 729 c 0,16,17
 653 787 653 787 678 787 c 0,18,19
 691 787 691 787 707 774 c 128,-1,20
 723 761 723 761 723 739.5 c 128,-1,21
 723 718 723 718 678 681 c 0,22,23
 540 560 540 560 478 467 c 0,24,25
 432 399 432 399 400 370 c 1,26,-1
 372 346 l 1,27,-1
 375 153 l 2,28,29
 376 107 376 107 376 72 c 2,30,-1
 376 32 l 2,31,32
 376 -44 376 -44 363 -56 c 0,33,34
 349 -72 349 -72 331 -72 c 0,35,36
 330 -72 l 0,37,38
 313 -72 313 -72 299 -58 c 128,-1,39
 285 -44 285 -44 283 118 c 0,40,41
 279 280 279 280 275 314 c 0,42,43
 271 346 271 346 262 366 c 0,44,45
 237 421 237 421 196 494 c 1,46,47
 162 566 162 566 100 649.5 c 128,-1,48
 38 733 38 733 38 761 c 0,0,1
EndSplineSet
Validated: 1
EndChar

StartChar: Z
Encoding: 90 90 38
Width: 966
VWidth: 1220
Flags: MW
LayerCount: 2
Fore
SplineSet
802 46 m 1,0,-1
 830 48 l 2,1,2
 850 50 850 50 860 50.5 c 128,-1,3
 870 51 870 51 886 40 c 0,4,5
 900 27 900 27 900 4 c 128,-1,6
 900 -19 900 -19 887 -33 c 128,-1,7
 874 -47 874 -47 790 -47 c 2,8,-1
 775 -47 l 2,9,10
 697 -47 697 -47 601 -37 c 0,11,12
 538 -28 538 -28 510 -28 c 2,13,-1
 478 -28 l 2,14,15
 427 -28 427 -28 372 -37 c 0,16,17
 254 -52 254 -52 222 -59 c 128,-1,18
 190 -66 190 -66 142.5 -66 c 128,-1,19
 95 -66 95 -66 81 -52 c 128,-1,20
 67 -38 67 -38 67 -22 c 0,21,22
 67 9 67 9 148 104.5 c 128,-1,23
 229 200 229 200 276 249 c 2,24,-1
 344 321 l 1,25,-1
 292 326 l 2,26,27
 208 335 208 335 208 378 c 0,28,29
 208 407 208 407 235 416 c 128,-1,30
 262 425 262 425 350 425 c 2,31,-1
 458 424 l 1,32,-1
 513 474 l 1,33,34
 588 534 588 534 710 636 c 1,35,-1
 743 666 l 1,36,-1
 714 671 l 2,37,38
 709 672 709 672 695 672 c 0,39,40
 688 672 688 672 680 672 c 0,41,42
 654 672 654 672 624.5 666 c 128,-1,43
 595 660 595 660 534.5 660 c 128,-1,44
 474 660 474 660 432 668 c 128,-1,45
 390 676 390 676 326 676 c 0,46,47
 280 676 280 676 223 672 c 0,48,49
 154 667 154 667 132 667 c 2,50,-1
 104 667 l 2,51,52
 75 667 75 667 63 675 c 0,53,54
 49 688 49 688 49 707 c 128,-1,55
 49 726 49 726 68 744 c 0,56,57
 83 761 83 761 149 765 c 1,58,-1
 196 765 l 2,59,60
 197 765 197 765 300 762.5 c 128,-1,61
 403 760 403 760 431 760 c 2,62,-1
 478 760 l 1,63,-1
 533 761 l 1,64,-1
 685 761 l 2,65,66
 811 761 811 761 843 759 c 128,-1,67
 875 757 875 757 888.5 745.5 c 128,-1,68
 902 734 902 734 902 719 c 0,69,70
 902 691 902 691 809 601 c 0,71,72
 743 535 743 535 683 487 c 128,-1,73
 623 439 623 439 623 428.5 c 128,-1,74
 623 418 623 418 661 418 c 2,75,-1
 668 418 l 1,76,77
 693 417 693 417 707.5 403 c 128,-1,78
 722 389 722 389 722 369.5 c 128,-1,79
 722 350 722 350 708.5 337 c 128,-1,80
 695 324 695 324 663 324 c 0,81,82
 657 324 657 324 597 326 c 1,83,-1
 502 332 l 1,84,-1
 467 302 l 1,85,86
 435 270 435 270 410 249 c 0,87,88
 392 236 392 236 322 157 c 128,-1,89
 252 78 252 78 247 69 c 128,-1,90
 242 60 242 60 240 57 c 0,91,92
 240 53 240 53 258 53 c 1,93,-1
 474 69 l 1,94,95
 527 69 527 69 636.5 57.5 c 128,-1,96
 746 46 746 46 802 46 c 1,0,-1
EndSplineSet
Validated: 1
EndChar

StartChar: a
Encoding: 97 97 39
Width: 737
VWidth: 1259
Flags: MW
LayerCount: 2
Fore
SplineSet
417 359 m 0,0,1
 398 358 398 358 390 365 c 0,2,3
 378 376 378 376 311 380 c 0,4,5
 266 380 266 380 214 334 c 0,6,7
 161 288 161 288 161 233 c 0,8,9
 161 180 161 180 194 131 c 0,10,11
 212 107 212 107 237 96.5 c 128,-1,12
 262 86 262 86 312 86 c 0,13,14
 459 86 459 86 460 137 c 0,15,16
 460 144 460 144 451 178 c 0,17,18
 441 216 441 216 440.5 266 c 128,-1,19
 440 316 440 316 435 337 c 128,-1,20
 430 358 430 358 417 359 c 0,0,1
443 476 m 0,21,22
 458 518 458 518 495 520 c 0,23,24
 528 520 528 520 528 406 c 0,25,26
 528 387 528 387 532 359 c 128,-1,27
 536 331 536 331 540 232 c 0,28,29
 540 210 540 210 567 154.5 c 128,-1,30
 594 99 594 99 620 85 c 0,31,32
 674 61 674 61 674 33 c 0,33,34
 674 11 674 11 658 -2.5 c 128,-1,35
 642 -16 642 -16 613 -16 c 128,-1,36
 584 -16 584 -16 555 8 c 128,-1,37
 526 32 526 32 520.5 32.5 c 128,-1,38
 515 33 515 33 506 23 c 0,39,40
 475 -5 475 -5 345 -5 c 2,41,-1
 299 -5 l 2,42,43
 220 -5 220 -5 189 7 c 128,-1,44
 158 19 158 19 122 62.5 c 128,-1,45
 86 106 86 106 76 142 c 0,46,47
 66 179 66 179 66 241 c 0,48,49
 66 297 66 297 80 326 c 0,50,51
 94 356 94 356 143 399 c 1,52,53
 189 445 189 445 220 461 c 0,54,55
 273 483 273 483 309 483 c 2,56,-1
 319 483 l 1,57,58
 364 476 364 476 387 471.5 c 128,-1,59
 410 467 410 467 425 466.5 c 128,-1,60
 440 466 440 466 443 476 c 0,21,22
EndSplineSet
Validated: 1
EndChar

StartChar: b
Encoding: 98 98 40
Width: 588
VWidth: 1224
Flags: MW
LayerCount: 2
Fore
SplineSet
382 219 m 128,-1,1
 360 248 360 248 336.5 259 c 128,-1,2
 313 270 313 270 264 270 c 2,3,-1
 201 270 l 1,4,-1
 190 192 l 1,5,6
 189 177 189 177 184.5 149.5 c 128,-1,7
 180 122 180 122 178 105.5 c 128,-1,8
 176 89 176 89 174 82 c 1,9,-1
 171 52 l 1,10,-1
 213 46 l 1,11,12
 237 44 237 44 247 44 c 0,13,14
 293 44 293 44 350 73 c 0,15,16
 415 105 415 105 415 147 c 0,17,18
 415 156 415 156 412 161 c 0,19,0
 404 190 404 190 382 219 c 128,-1,1
237 -50 m 2,20,21
 73 -50 73 -50 73 27 c 0,22,23
 73 46 73 46 74 60 c 128,-1,24
 75 74 75 74 89.5 170 c 128,-1,25
 104 266 104 266 130 565 c 0,26,27
 140 684 140 684 161 712 c 0,28,29
 175 726 175 726 193.5 726 c 128,-1,30
 212 726 212 726 227 708 c 0,31,32
 238 697 238 697 238 675 c 128,-1,33
 238 653 238 653 232 613 c 0,34,35
 219 487 219 487 215.5 443.5 c 128,-1,36
 212 400 212 400 209 390 c 128,-1,37
 206 380 206 380 206 372 c 128,-1,38
 206 364 206 364 218 364 c 0,39,40
 220 364 220 364 230 364 c 0,41,42
 232 364 232 364 234 365 c 0,43,44
 246 365 246 365 276 363 c 0,45,46
 344 363 344 363 374.5 350.5 c 128,-1,47
 405 338 405 338 444 295.5 c 128,-1,48
 483 253 483 253 496.5 222.5 c 128,-1,49
 510 192 510 192 510 144.5 c 128,-1,50
 510 97 510 97 505 84.5 c 128,-1,51
 500 72 500 72 468 37 c 0,52,53
 424 -8 424 -8 376 -28.5 c 128,-1,54
 328 -49 328 -49 244 -50 c 1,55,-1
 237 -50 l 2,20,21
EndSplineSet
Validated: 1
EndChar

StartChar: c
Encoding: 99 99 41
Width: 478
VWidth: 1273
Flags: MW
LayerCount: 2
Fore
SplineSet
349 371 m 1,0,-1
 308 374 l 1,1,2
 221 373 221 373 166 251 c 0,3,4
 153 219 153 219 151 190 c 0,5,6
 151 99 151 99 316 86 c 0,7,8
 354 84 354 84 377 69 c 128,-1,9
 400 54 400 54 400 38 c 128,-1,10
 400 22 400 22 382 1 c 0,11,12
 375 -8 375 -8 355 -9 c 0,13,14
 349 -9 349 -9 342 -9 c 0,15,16
 336 -9 336 -9 329 -9 c 0,17,18
 315 -9 315 -9 295 -8 c 0,19,20
 255 -6 255 -6 206.5 13.5 c 128,-1,21
 158 33 158 33 136 54 c 2,22,-1
 95 100 l 1,23,24
 64 143 64 143 64 206 c 0,25,26
 64 268 64 268 94 348 c 1,27,-1
 111 363 l 1,28,29
 198 448 198 448 220 459 c 128,-1,30
 242 470 242 470 304 470 c 0,31,32
 306 470 306 470 308 471 c 0,33,34
 367 471 367 471 384 454 c 0,35,36
 398 442 398 442 398 422 c 128,-1,37
 398 402 398 402 382 383 c 0,38,39
 371 372 371 372 349 371 c 1,0,-1
EndSplineSet
Validated: 1
EndChar

StartChar: d
Encoding: 100 100 42
Width: 557
VWidth: 1213
Flags: MW
LayerCount: 2
Fore
SplineSet
348 219 m 0,0,1
 335 252 335 252 278 252 c 2,2,3
 275 252 l 1,4,5
 228 234 228 234 213 221 c 0,6,7
 189 197 189 197 173.5 167 c 128,-1,8
 158 137 158 137 158 119.5 c 128,-1,9
 158 102 158 102 181 75 c 128,-1,10
 204 48 204 48 228.5 36 c 128,-1,11
 253 24 253 24 311 22 c 1,12,-1
 372 22 l 1,13,-1
 367 55 l 2,14,15
 363 83 363 83 356 158 c 0,16,17
 354 205 354 205 348 219 c 0,0,1
374 774 m 0,18,19
 387 791 387 791 412 791 c 2,20,-1
 415 791 l 2,21,22
 436 791 436 791 449 777 c 0,23,24
 458 764 458 764 458 742 c 128,-1,25
 458 720 458 720 452 662 c 128,-1,26
 446 604 446 604 446 532 c 2,27,-1
 446 445 l 2,28,29
 446 216 446 216 457.5 121 c 128,-1,30
 469 26 469 26 469 6 c 0,31,32
 469 -46 469 -46 440 -58 c 128,-1,33
 411 -70 411 -70 316 -70 c 128,-1,34
 221 -70 221 -70 193.5 -59.5 c 128,-1,35
 166 -49 166 -49 114 4 c 1,36,-1
 66 56 l 1,37,-1
 66 117 l 2,38,39
 66 159 66 159 71.5 177.5 c 128,-1,40
 77 196 77 196 98 233 c 0,41,42
 133 290 133 290 162.5 312.5 c 128,-1,43
 192 335 192 335 209 339 c 0,44,45
 222 344 222 344 246 344 c 2,46,-1
 351 344 l 1,47,-1
 355 550 l 2,48,49
 357 691 357 691 360 727 c 128,-1,50
 363 763 363 763 374 774 c 0,18,19
EndSplineSet
Validated: 1
EndChar

StartChar: e
Encoding: 101 101 43
Width: 541
VWidth: 1277
Flags: MW
LayerCount: 2
Fore
SplineSet
353 300 m 0,0,1
 370 314 370 314 370 326 c 0,2,3
 369 356 369 356 294 356 c 2,4,-1
 287 356 l 2,5,6
 236 356 236 356 213 336 c 1,7,-1
 188 319 l 1,8,-1
 218 312 l 1,9,10
 240 309 240 309 262 302.5 c 128,-1,11
 284 296 284 296 299.5 292.5 c 128,-1,12
 315 289 315 289 328 289 c 128,-1,13
 341 289 341 289 353 300 c 0,0,1
108 367 m 0,14,15
 141 418 141 418 168 433 c 128,-1,16
 195 448 195 448 287 448 c 128,-1,17
 379 448 379 448 407 431 c 0,18,19
 470 394 470 394 470 335 c 0,20,21
 470 277 470 277 412 224 c 1,22,-1
 376 194 l 1,23,-1
 303 197 l 2,24,25
 228 200 228 200 199 215 c 128,-1,26
 170 230 170 230 164.5 230 c 128,-1,27
 159 230 159 230 158 226 c 0,28,29
 158 215 158 215 169.5 181 c 128,-1,30
 181 147 181 147 189 134 c 128,-1,31
 197 121 197 121 247 107.5 c 128,-1,32
 297 94 297 94 341 93 c 0,33,34
 420 93 420 93 420 48 c 0,35,36
 420 -7 420 -7 325 -7 c 0,37,38
 279 -7 279 -7 226 9 c 0,39,40
 180 21 180 21 161 29.5 c 128,-1,41
 142 38 142 38 122 63 c 0,42,43
 68 122 68 122 68 228 c 2,44,-1
 68 254 l 1,45,46
 70 299 70 299 76 316.5 c 128,-1,47
 82 334 82 334 108 367 c 0,14,15
EndSplineSet
Validated: 1
EndChar

StartChar: f
Encoding: 102 102 44
Width: 492
VWidth: 1230
Flags: MW
LayerCount: 2
Fore
SplineSet
192.5 550.5 m 128,-1,1
 203 592 203 592 247 635 c 128,-1,2
 291 678 291 678 317 687 c 0,3,4
 345 696 345 696 359 696 c 2,5,-1
 376 696 l 2,6,7
 414 696 414 696 432 678.5 c 128,-1,8
 450 661 450 661 450 643 c 128,-1,9
 450 625 450 625 432.5 611 c 128,-1,10
 415 597 415 597 379 595 c 0,11,12
 324 589 324 589 303.5 552 c 128,-1,13
 283 515 283 515 270 406 c 128,-1,14
 257 297 257 297 257 275.5 c 128,-1,15
 257 254 257 254 263 248 c 128,-1,16
 269 242 269 242 289 243 c 1,17,-1
 304 243 l 2,18,19
 382 243 382 243 383 198 c 0,20,21
 383 150 383 150 305 149 c 1,22,-1
 258 149 l 1,23,-1
 252 99 l 1,24,25
 248 55 248 55 247 19.5 c 128,-1,26
 246 -16 246 -16 232 -34.5 c 128,-1,27
 218 -53 218 -53 199.5 -53 c 128,-1,28
 181 -53 181 -53 167.5 -37.5 c 128,-1,29
 154 -22 154 -22 154 11.5 c 128,-1,30
 154 45 154 45 156 70 c 2,31,-1
 160 158 l 1,32,-1
 123 158 l 2,33,34
 91 158 91 158 72 170 c 128,-1,35
 53 182 53 182 53 203 c 0,36,37
 53 250 53 250 121 250 c 2,38,-1
 159 250 l 1,39,-1
 170 373 l 2,40,0
 182 509 182 509 192.5 550.5 c 128,-1,1
EndSplineSet
Validated: 1
EndChar

StartChar: g
Encoding: 103 103 45
Width: 554
VWidth: 1391
Flags: MW
LayerCount: 2
Fore
SplineSet
162 243 m 1,0,1
 162 242 l 0,2,3
 162 208 162 208 239 208 c 0,4,5
 283 208 283 208 321 283 c 0,6,7
 341 322 341 322 341 335 c 128,-1,8
 341 348 341 348 297 348 c 0,9,10
 254 348 254 348 241 342.5 c 128,-1,11
 228 337 228 337 196.5 300.5 c 128,-1,12
 165 264 165 264 162 243 c 1,0,1
383 424 m 2,13,-1
 412 426 l 1,14,15
 438 426 438 426 448.5 392 c 128,-1,16
 459 358 459 358 459 322 c 2,17,-1
 459 274 l 2,18,19
 459 263 459 263 459 244 c 0,20,21
 459 226 459 226 460 216 c 2,22,-1
 460 195 l 2,23,24
 460 -21 460 -21 435 -70 c 0,25,26
 398 -147 398 -147 394 -149 c 1,27,-1
 367 -180 l 1,28,-1
 264 -186 l 1,29,-1
 184 -176 l 1,30,-1
 145 -165 l 1,31,32
 123 -145 123 -145 123 -126.5 c 128,-1,33
 123 -108 123 -108 137.5 -94 c 128,-1,34
 152 -80 152 -80 166 -80 c 128,-1,35
 180 -80 180 -80 204.5 -86 c 128,-1,36
 229 -92 229 -92 245 -92 c 2,37,-1
 267 -92 l 2,38,39
 311 -92 311 -92 323 -80 c 0,40,41
 330 -72 330 -72 340.5 -38 c 128,-1,42
 351 -4 351 -4 355 56 c 0,43,44
 363 130 363 130 365 141 c 2,45,-1
 369 171 l 1,46,-1
 350 151 l 1,47,48
 308 109 308 109 232 109 c 0,49,50
 231 110 231 110 230 110 c 0,51,52
 152 110 152 110 98 158 c 0,53,54
 74 179 74 179 69 191 c 0,55,56
 64 202 64 202 64 220 c 2,57,-1
 64 243 l 2,58,59
 64 278 64 278 73.5 299 c 128,-1,60
 83 320 83 320 125 370 c 0,61,62
 167 417 167 417 193 431 c 0,63,64
 219 446 219 446 284 446 c 0,65,66
 286 446 286 446 288 446 c 0,67,68
 348 446 348 446 359 432 c 0,69,70
 367 423 367 423 383 424 c 2,13,-1
EndSplineSet
Validated: 1
EndChar

StartChar: h
Encoding: 104 104 46
Width: 575
VWidth: 1236
Flags: MW
LayerCount: 2
Fore
SplineSet
96.5 591.5 m 128,-1,1
 99 637 99 637 115 653 c 0,2,3
 129 669 129 669 149 669 c 0,4,5
 169 668 169 668 179 656 c 0,6,7
 189 642 189 642 189 559 c 0,8,9
 189 534 189 534 188 502 c 2,10,-1
 184 364 l 1,11,-1
 204 378 l 1,12,13
 225 392 225 392 284 392 c 0,14,15
 286 392 286 392 288 392 c 0,16,17
 344 392 344 392 375 378 c 0,18,19
 407 364 407 364 439 331 c 0,20,21
 460 307 460 307 474.5 236.5 c 128,-1,22
 489 166 489 166 489 94 c 0,23,24
 489 90 489 90 490 87 c 0,25,26
 490 21 490 21 481 0 c 0,27,28
 472 -22 472 -22 445 -22 c 128,-1,29
 418 -22 418 -22 408.5 1 c 128,-1,30
 399 24 399 24 396 88 c 0,31,32
 387 261 387 261 337 286 c 0,33,34
 317 298 317 298 294 298 c 128,-1,35
 271 298 271 298 262.5 290 c 128,-1,36
 254 282 254 282 238 251 c 0,37,38
 193 150 193 150 190 59 c 0,39,40
 188 -1 188 -1 176.5 -24.5 c 128,-1,41
 165 -48 165 -48 142 -48 c 128,-1,42
 119 -48 119 -48 105 -29.5 c 128,-1,43
 91 -11 91 -11 91 109 c 128,-1,44
 91 229 91 229 92.5 387.5 c 128,-1,0
 94 546 94 546 96.5 591.5 c 128,-1,1
EndSplineSet
Validated: 1
EndChar

StartChar: i
Encoding: 105 105 47
Width: 279
VWidth: 1247
Flags: MW
LayerCount: 2
Fore
SplineSet
113 379 m 0,0,1
 127 394 127 394 145 394 c 0,2,3
 146 394 l 0,4,5
 163 394 163 394 177 379 c 0,6,7
 191 365 191 365 191 337 c 0,8,9
 191 312 191 312 181 218 c 0,10,11
 173 130 173 130 173 60.5 c 128,-1,12
 173 -9 173 -9 159 -22.5 c 128,-1,13
 145 -36 145 -36 129 -36 c 128,-1,14
 113 -36 113 -36 98.5 -24.5 c 128,-1,15
 84 -13 84 -13 82.5 6 c 128,-1,16
 81 25 81 25 81 108 c 128,-1,17
 81 191 81 191 90.5 278 c 128,-1,18
 100 365 100 365 113 379 c 0,0,1
143 611 m 0,19,20
 145 611 145 611 155.5 611 c 128,-1,21
 166 611 166 611 179 600 c 128,-1,22
 192 589 192 589 192 570.5 c 128,-1,23
 192 552 192 552 177.5 537 c 128,-1,24
 163 522 163 522 146 520 c 0,25,26
 126 520 126 520 112 534 c 128,-1,27
 98 548 98 548 98 564 c 128,-1,28
 98 580 98 580 111.5 595.5 c 128,-1,29
 125 611 125 611 143 611 c 0,19,20
EndSplineSet
Validated: 1
EndChar

StartChar: j
Encoding: 106 106 48
Width: 439
VWidth: 1267
Flags: MW
LayerCount: 2
Fore
SplineSet
271 390 m 128,-1,1
 284 405 284 405 302.5 405 c 128,-1,2
 321 405 321 405 336 391.5 c 128,-1,3
 351 378 351 378 352 275 c 0,4,5
 352 70 352 70 308 -9 c 0,6,7
 282 -51 282 -51 259 -67.5 c 128,-1,8
 236 -84 236 -84 218 -90 c 0,9,10
 183 -101 183 -101 85 -107 c 0,11,12
 64 -107 64 -107 51 -95 c 128,-1,13
 38 -83 38 -83 38 -67 c 128,-1,14
 38 -51 38 -51 57 -29 c 0,15,16
 76 -9 76 -9 115 -8 c 0,17,18
 201 -8 201 -8 222 42 c 0,19,20
 236 76 236 76 247 152 c 128,-1,21
 258 228 258 228 258 301.5 c 128,-1,0
 258 375 258 375 271 390 c 128,-1,1
264.5 576 m 128,-1,23
 278 591 278 591 296 591 c 0,24,25
 297 591 297 591 304 591 c 128,-1,26
 311 591 311 591 327 578 c 0,27,28
 341 565 341 565 341 544 c 128,-1,29
 341 523 341 523 328.5 507 c 128,-1,30
 316 491 316 491 297 491 c 128,-1,31
 278 491 278 491 264.5 505.5 c 128,-1,32
 251 520 251 520 251 540.5 c 128,-1,22
 251 561 251 561 264.5 576 c 128,-1,23
EndSplineSet
Validated: 1
EndChar

StartChar: k
Encoding: 107 107 49
Width: 493
VWidth: 1242
Flags: MW
LayerCount: 2
Fore
SplineSet
128 618 m 0,0,1
 142 632 142 632 166.5 632 c 128,-1,2
 191 632 191 632 202.5 618 c 128,-1,3
 214 604 214 604 214 594 c 2,4,-1
 214 580 l 2,5,6
 214 549 214 549 200 432 c 1,7,8
 194 340 194 340 190 304.5 c 128,-1,9
 186 269 186 269 186 266.5 c 128,-1,10
 186 264 186 264 187 264 c 2,11,-1
 188 264 l 2,12,13
 194 264 194 264 222.5 282 c 128,-1,14
 251 300 251 300 287.5 329 c 128,-1,15
 324 358 324 358 343 377.5 c 128,-1,16
 362 397 362 397 380 397 c 128,-1,17
 398 397 398 397 411.5 381.5 c 128,-1,18
 425 366 425 366 425 345.5 c 128,-1,19
 425 325 425 325 385.5 285 c 128,-1,20
 346 245 346 245 284 203 c 2,21,-1
 233 169 l 1,22,-1
 284 123 l 2,23,24
 335 76 335 76 340 76 c 0,25,26
 353 76 353 76 377 51.5 c 128,-1,27
 401 27 401 27 401 11.5 c 128,-1,28
 401 -4 401 -4 386.5 -19 c 128,-1,29
 372 -34 372 -34 353 -34 c 0,30,31
 296 -34 296 -34 218 49 c 1,32,-1
 172 96 l 1,33,-1
 172 58 l 2,34,35
 172 27 172 27 159.5 9 c 128,-1,36
 147 -9 147 -9 127 -9 c 0,37,38
 126 -9 126 -9 125 -9 c 0,39,40
 109 -9 109 -9 96 2.5 c 128,-1,41
 83 14 83 14 81.5 34 c 128,-1,42
 80 54 80 54 80 120 c 128,-1,43
 80 186 80 186 95.5 350 c 128,-1,44
 111 514 111 514 112 527 c 0,45,46
 115 604 115 604 128 618 c 0,0,1
EndSplineSet
Validated: 1
EndChar

StartChar: l
Encoding: 108 108 50
Width: 352
VWidth: 1240
Flags: MW
LayerCount: 2
Fore
SplineSet
171 621 m 0,0,1
 189 639 189 639 205 639 c 0,2,3
 221 638 221 638 236 624 c 0,4,5
 250 610 250 610 250 597 c 128,-1,6
 250 584 250 584 242 537 c 128,-1,7
 234 490 234 490 220 449 c 0,8,9
 205 392 205 392 188.5 267 c 128,-1,10
 172 142 172 142 172 106 c 128,-1,11
 172 70 172 70 173 69 c 0,12,13
 177 58 177 58 215 58 c 128,-1,14
 253 58 253 58 273 44.5 c 128,-1,15
 293 31 293 31 293 13 c 128,-1,16
 293 -5 293 -5 279 -20 c 0,17,18
 264 -34 264 -34 200 -35 c 1,19,-1
 134 -35 l 1,20,-1
 105 -2 l 1,21,22
 74 31 74 31 74 69 c 0,23,24
 74 187 74 187 110 389.5 c 128,-1,25
 146 592 146 592 171 621 c 0,0,1
EndSplineSet
Validated: 1
EndChar

StartChar: m
Encoding: 109 109 51
Width: 841
VWidth: 1385
Flags: MW
LayerCount: 2
Fore
SplineSet
184 30 m 2,0,-1
 184 25 l 2,1,2
 184 13 184 13 169.5 -1 c 128,-1,3
 155 -15 155 -15 136 -16 c 0,4,5
 135 -16 135 -16 134 -16 c 0,6,7
 89 -16 89 -16 85 42 c 0,8,9
 83 82 83 82 83 181 c 128,-1,10
 83 280 83 280 84.5 331 c 128,-1,11
 86 382 86 382 98 393 c 0,12,13
 116 408 116 408 134 408 c 0,14,15
 135 408 135 408 135 409 c 1,16,17
 152 409 152 409 164 397.5 c 128,-1,18
 176 386 176 386 178 388 c 0,19,20
 186 388 186 388 211.5 410 c 128,-1,21
 237 432 237 432 250 435 c 128,-1,22
 263 438 263 438 322.5 438 c 128,-1,23
 382 438 382 438 403 422 c 0,24,25
 423 407 423 407 431 407 c 0,26,27
 438 407 438 407 446 417 c 0,28,29
 461 437 461 437 484.5 441.5 c 128,-1,30
 508 446 508 446 566 446 c 2,31,-1
 578 446 l 1,32,33
 586 447 586 447 595 447 c 0,34,35
 626 447 626 447 668 434 c 1,36,-1
 710 405 l 2,37,38
 731 391 731 391 741.5 346 c 128,-1,39
 752 301 752 301 752 191 c 128,-1,40
 752 81 752 81 742.5 51 c 128,-1,41
 733 21 733 21 704 21 c 2,42,-1
 703 21 l 2,43,44
 672 21 672 21 659 50 c 0,45,46
 646 81 646 81 646 180 c 0,47,48
 646 213 646 213 640 289 c 0,49,50
 638 314 638 314 625 327 c 0,51,52
 610 345 610 345 591.5 345 c 128,-1,53
 573 345 573 345 563 343 c 0,54,55
 512 335 512 335 503 314.5 c 128,-1,56
 494 294 494 294 492 179 c 128,-1,57
 490 64 490 64 482.5 37 c 128,-1,58
 475 10 475 10 444 10 c 128,-1,59
 413 10 413 10 401 34.5 c 128,-1,60
 389 59 389 59 389 114 c 2,61,-1
 389 125 l 2,62,63
 389 278 389 278 356 318 c 0,64,65
 343 334 343 334 322 335 c 0,66,67
 317 335 317 335 312 335 c 0,68,69
 288 333 288 333 281 313 c 128,-1,70
 274 293 274 293 229 169.5 c 128,-1,71
 184 46 184 46 184 30 c 2,0,-1
EndSplineSet
Validated: 1
EndChar

StartChar: n
Encoding: 110 110 52
Width: 587
VWidth: 1262
Flags: MW
LayerCount: 2
Fore
SplineSet
397 75 m 1,0,1
 403 147 403 147 403 294 c 0,2,3
 403 366 403 366 391.5 379.5 c 128,-1,4
 380 393 380 393 337 393 c 2,5,-1
 334 393 l 2,6,7
 308 393 308 393 297 388.5 c 128,-1,8
 286 384 286 384 272 366 c 0,9,10
 197 276 197 276 171 106 c 0,11,12
 159 38 159 38 119 36 c 0,13,14
 100 36 100 36 86 54 c 0,15,16
 74 66 74 66 74 97 c 128,-1,17
 74 128 74 128 83 226 c 128,-1,18
 92 324 92 324 96.5 405 c 128,-1,19
 101 486 101 486 114 504 c 0,20,21
 127 518 127 518 145 518 c 128,-1,22
 163 518 163 518 177.5 501 c 128,-1,23
 192 484 192 484 192 456 c 2,24,-1
 192 424 l 1,25,26
 236 465 236 465 257 485 c 1,27,-1
 334 485 l 2,28,29
 412 485 412 485 439 470 c 0,30,31
 466 454 466 454 475 442 c 0,32,33
 495 414 495 414 495 310 c 2,34,-1
 495 266 l 2,35,36
 495 110 495 110 489.5 63 c 128,-1,37
 484 16 484 16 476 4 c 0,38,39
 463 -12 463 -12 441 -12 c 0,40,41
 440 -12 440 -12 432.5 -12 c 128,-1,42
 425 -12 425 -12 411 -2 c 0,43,44
 398 10 398 10 397 75 c 1,0,1
EndSplineSet
Validated: 1
EndChar

StartChar: o
Encoding: 111 111 53
Width: 684
VWidth: 1375
Flags: MW
LayerCount: 2
Fore
SplineSet
504 232 m 1,0,-1
 502 258 l 1,1,2
 500 325 500 325 476.5 344 c 128,-1,3
 453 363 453 363 429 363 c 1,4,-1
 428 362 l 1,5,6
 404 362 404 362 400 370.5 c 128,-1,7
 396 379 396 379 366 379 c 0,8,9
 355 379 355 379 344 379 c 0,10,11
 269 379 269 379 244 366 c 0,12,13
 197 341 197 341 178 255 c 0,14,15
 172 224 172 224 172 207 c 128,-1,16
 172 190 172 190 190 150 c 0,17,18
 218 88 218 88 297 86 c 0,19,20
 300 86 300 86 303 86 c 0,21,22
 365 86 365 86 418.5 115.5 c 128,-1,23
 472 145 472 145 488 166.5 c 128,-1,24
 504 188 504 188 504 232 c 1,0,-1
433 471 m 1,25,-1
 449 473 l 1,26,27
 523 473 523 473 570 405 c 1,28,-1
 594 368 l 1,29,-1
 604 254 l 1,30,31
 602 199 602 199 600 144 c 1,32,-1
 561 90 l 1,33,34
 529 49 529 49 465 14 c 0,35,36
 434 -4 434 -4 326 -17 c 0,37,38
 312 -18 312 -18 270 -18 c 128,-1,39
 228 -18 228 -18 200 -8 c 128,-1,40
 172 2 172 2 130 47.5 c 128,-1,41
 88 93 88 93 77 126 c 0,42,43
 68 159 68 159 68 217.5 c 128,-1,44
 68 276 68 276 82 321 c 0,45,46
 96 366 96 366 132 410 c 0,47,48
 168 456 168 456 204 470 c 0,49,50
 241 485 241 485 287 485 c 0,51,52
 305 485 305 485 324 483 c 0,53,54
 378 474 378 474 388 474 c 0,55,56
 398 475 398 475 406 475 c 0,57,58
 427 475 427 475 433 471 c 1,25,-1
EndSplineSet
Validated: 1
EndChar

StartChar: p
Encoding: 112 112 54
Width: 595
VWidth: 1684
Flags: MW
LayerCount: 2
Fore
SplineSet
408 266 m 132,-1,1
 408 280 408 280 403 305 c 132,-1,2
 398 330 398 330 383.5 346 c 132,-1,3
 369 362 369 362 333.5 376.5 c 132,-1,4
 298 391 298 391 281 391 c 132,-1,5
 264 391 264 391 229 385 c 4,6,7
 209 381 209 381 206 366 c 4,8,9
 204 349 204 349 204 285 c 6,10,-1
 204 191 l 5,11,-1
 270 198 l 5,12,13
 378 211 378 211 403 247 c 4,14,0
 408 252 408 252 408 266 c 132,-1,1
170 490 m 4,15,16
 215 497 215 497 265 498 c 4,17,18
 391 498 391 498 452 440 c 4,19,20
 484 410 484 410 502 380 c 4,21,22
 516 353 516 353 516.5 329.5 c 132,-1,23
 517 306 517 306 517 292 c 6,24,-1
 517 263 l 5,25,26
 512 184 512 184 480.5 157 c 132,-1,27
 449 130 449 130 386 111 c 4,28,29
 284 84 284 84 282 84 c 6,30,-1
 195 84 l 5,31,-1
 188 -46 l 5,32,33
 182 -135 182 -135 168 -171 c 4,34,35
 155 -200 155 -200 120 -200 c 4,36,37
 97 -200 97 -200 83.5 -185 c 132,-1,38
 70 -170 70 -170 70 -127 c 4,39,40
 70 -125 70 -125 80 -4 c 132,-1,41
 90 117 90 117 93.5 235 c 132,-1,42
 97 353 97 353 101 402 c 4,43,44
 106 439 106 439 118 452 c 4,45,46
 144 485 144 485 170 490 c 4,15,16
EndSplineSet
Validated: 1
EndChar

StartChar: q
Encoding: 113 113 55
Width: 520
VWidth: 1379
Flags: MW
LayerCount: 2
Fore
SplineSet
326 195 m 5,0,-1
 326 353 l 5,1,-1
 282 353 l 5,2,3
 203 352 203 352 177 303 c 4,4,5
 165 282 165 282 165 251.5 c 132,-1,6
 165 221 165 221 186 199 c 132,-1,7
 207 177 207 177 237 176 c 4,8,9
 250 176 250 176 272.5 183 c 132,-1,10
 295 190 295 190 302 191 c 6,11,-1
 326 195 l 5,0,-1
326 88 m 5,12,-1
 211 85 l 6,13,14
 186 85 186 85 175 88.5 c 132,-1,15
 164 92 164 92 136.5 112 c 132,-1,16
 109 132 109 132 84 173 c 4,17,18
 64 210 64 210 64 231.5 c 132,-1,19
 64 253 64 253 66.5 282.5 c 132,-1,20
 69 312 69 312 82 338.5 c 132,-1,21
 95 365 95 365 126 395.5 c 132,-1,22
 157 426 157 426 182.5 435 c 132,-1,23
 208 444 208 444 254 444 c 6,24,-1
 308 444 l 6,25,26
 352 444 352 444 361.5 453.5 c 132,-1,27
 371 463 371 463 388.5 463 c 132,-1,28
 406 463 406 463 420 450 c 132,-1,29
 434 437 434 437 434 422.5 c 132,-1,30
 434 408 434 408 426 374 c 132,-1,31
 418 340 418 340 418 224 c 6,32,-1
 418 85 l 6,33,34
 418 -80 418 -80 416 -125.5 c 132,-1,35
 414 -171 414 -171 402 -183 c 132,-1,36
 390 -195 390 -195 376 -195 c 0,37,38
 375 -195 375 -195 374 -195 c 132,-1,39
 373 -195 373 -195 364.5 -195.5 c 128,-1,40
 356 -196 356 -196 342.5 -184.5 c 132,-1,41
 329 -173 329 -173 327.5 -148.5 c 132,-1,42
 326 -124 326 -124 326 -40 c 6,43,-1
 326 88 l 5,12,-1
EndSplineSet
Validated: 1
EndChar

StartChar: r
Encoding: 114 114 56
Width: 458
VWidth: 1271
Flags: MW
LayerCount: 2
Fore
SplineSet
92 452 m 0,0,1
 106 466 106 466 124 466 c 128,-1,2
 142 466 142 466 156 452.5 c 128,-1,3
 170 439 170 439 170 418 c 2,4,-1
 170 395 l 1,5,-1
 227 411 l 1,6,7
 281 426 281 426 305 442 c 0,8,9
 328 458 328 458 350 458 c 128,-1,10
 372 458 372 458 385 447 c 128,-1,11
 398 436 398 436 398 412 c 128,-1,12
 398 388 398 388 352 357.5 c 128,-1,13
 306 327 306 327 245 313 c 0,14,15
 190 302 190 302 186 107 c 0,16,17
 186 43 186 43 177 20 c 128,-1,18
 168 -3 168 -3 141.5 -3 c 128,-1,19
 115 -3 115 -3 104.5 15.5 c 128,-1,20
 94 34 94 34 94 80 c 128,-1,21
 94 126 94 126 86 287 c 2,22,-1
 80 404 l 1,23,24
 80 438 80 438 92 452 c 0,0,1
EndSplineSet
Validated: 1
EndChar

StartChar: s
Encoding: 115 115 57
Width: 512
VWidth: 1271
Flags: MW
LayerCount: 2
Fore
SplineSet
159.5 386.5 m 128,-1,1
 174 414 174 414 206 438 c 0,2,3
 238 462 238 462 254 464 c 0,4,5
 270 468 270 468 338 468 c 0,6,7
 340 468 340 468 343 468 c 0,8,9
 408 468 408 468 422 454 c 0,10,11
 438 440 438 440 438 415.5 c 128,-1,12
 438 391 438 391 424 374 c 0,13,14
 410 360 410 360 393 359.5 c 128,-1,15
 376 359 376 359 367 367 c 1,16,17
 363 377 363 377 329.5 377 c 128,-1,18
 296 377 296 377 272 364 c 0,19,20
 238 346 238 346 237 318 c 0,21,22
 237 309 237 309 280 287.5 c 128,-1,23
 323 266 323 266 347 261 c 0,24,25
 422 247 422 247 423 162 c 0,26,27
 423 96 423 96 367 48 c 0,28,29
 338 23 338 23 302.5 13 c 128,-1,30
 267 3 267 3 189 2 c 1,31,-1
 152 2 l 2,32,33
 119 2 119 2 106 5 c 128,-1,34
 93 8 93 8 77 23 c 128,-1,35
 61 38 61 38 61 58 c 128,-1,36
 61 78 61 78 86 100 c 0,37,38
 101 112 101 112 114 109 c 0,39,40
 125 109 125 109 138.5 104 c 128,-1,41
 152 99 152 99 164 99 c 0,42,43
 181 99 181 99 197 99 c 0,44,45
 302 99 302 99 320 144 c 0,46,47
 326 157 326 157 323.5 161.5 c 128,-1,48
 321 166 321 166 305 168 c 0,49,50
 239 182 239 182 180 235 c 0,51,52
 154 256 154 256 149.5 268 c 128,-1,53
 145 280 145 280 145 319.5 c 128,-1,0
 145 359 145 359 159.5 386.5 c 128,-1,1
EndSplineSet
Validated: 1
EndChar

StartChar: t
Encoding: 116 116 58
Width: 483
VWidth: 1247
Flags: MW
LayerCount: 2
Fore
SplineSet
360 386 m 1,0,-1
 342 387 l 1,1,-1
 291 389 l 1,2,-1
 285 361 l 1,3,4
 280 331 280 331 280 290 c 2,5,-1
 280 224 l 2,6,7
 280 79 280 79 332 66 c 128,-1,8
 384 53 384 53 384 16 c 0,9,10
 384 -3 384 -3 366.5 -16 c 128,-1,11
 349 -29 349 -29 319 -29 c 0,12,13
 249 -29 249 -29 204 58 c 0,14,15
 191 82 191 82 188 111.5 c 128,-1,16
 185 141 185 141 185 241 c 2,17,-1
 185 386 l 1,18,19
 158 386 158 386 131 386 c 0,20,21
 54 386 54 386 54 429 c 0,22,23
 54 448 54 448 70 463 c 128,-1,24
 86 478 86 478 99 478 c 2,25,-1
 117 478 l 2,26,27
 142 478 142 478 167 482 c 2,28,-1
 207 489 l 1,29,-1
 207 525 l 2,30,31
 207 562 207 562 225 583 c 0,32,33
 239 603 239 603 261 604 c 0,34,35
 280 603 280 603 296 587 c 0,36,37
 306 575 306 575 306 566 c 128,-1,38
 306 557 306 557 304 530 c 1,39,-1
 299 489 l 1,40,-1
 347 482 l 2,41,42
 425 471 425 471 426 432 c 0,43,44
 426 386 426 386 360 386 c 1,0,-1
EndSplineSet
Validated: 1
EndChar

StartChar: u
Encoding: 117 117 59
Width: 615
VWidth: 1261
Flags: MW
LayerCount: 2
Fore
SplineSet
180 461 m 1,0,-1
 169 282 l 1,1,2
 169 125 169 125 225 104 c 0,3,4
 238 98 238 98 254 98 c 0,5,6
 286 98 286 98 328 140.5 c 128,-1,7
 370 183 370 183 382.5 228.5 c 128,-1,8
 395 274 395 274 395 385 c 128,-1,9
 395 496 395 496 408 511 c 0,10,11
 422 526 422 526 440 526 c 0,12,13
 441 526 441 526 442 526 c 0,14,15
 460 526 460 526 472 512 c 0,16,17
 485 498 485 498 494 426.5 c 128,-1,18
 503 355 503 355 503 276.5 c 128,-1,19
 503 198 503 198 522 111 c 0,20,21
 534 43 534 43 534 28 c 128,-1,22
 534 13 534 13 523 0.5 c 128,-1,23
 512 -12 512 -12 494 -15 c 0,24,25
 472 -15 472 -15 454.5 5 c 128,-1,26
 437 25 437 25 430 60 c 1,27,-1
 426 97 l 1,28,-1
 389 64 l 1,29,30
 360 35 360 35 321.5 15.5 c 128,-1,31
 283 -4 283 -4 252 -6 c 0,32,33
 201 -6 201 -6 156 29 c 128,-1,34
 111 64 111 64 94.5 108 c 128,-1,35
 78 152 78 152 78 264 c 2,36,-1
 78 317 l 1,37,38
 79 423 79 423 81.5 453 c 128,-1,39
 84 483 84 483 95.5 495.5 c 128,-1,40
 107 508 107 508 131 508 c 0,41,42
 178 508 178 508 180 461 c 1,0,-1
EndSplineSet
Validated: 1
EndChar

StartChar: v
Encoding: 118 118 60
Width: 551
VWidth: 1274
Flags: MW
LayerCount: 2
Fore
SplineSet
122 249 m 0,0,1
 92 327 92 327 80 344 c 0,2,3
 68 360 68 360 68 416 c 0,4,5
 68 434 68 434 82 448 c 128,-1,6
 96 462 96 462 111 462 c 0,7,8
 112 462 112 462 113 462 c 0,9,10
 137 462 137 462 152 434.5 c 128,-1,11
 167 407 167 407 206 305.5 c 128,-1,12
 245 204 245 204 253.5 204 c 128,-1,13
 262 204 262 204 297.5 274 c 128,-1,14
 333 344 333 344 369 390 c 0,15,16
 413 453 413 453 442 453 c 2,17,-1
 443 453 l 2,18,19
 458 453 458 453 472.5 439.5 c 128,-1,20
 487 426 487 426 488 409 c 0,21,22
 487 388 487 388 452 334 c 0,23,24
 415 281 415 281 350 157 c 0,25,26
 293 54 293 54 272.5 26 c 128,-1,27
 252 -2 252 -2 230.5 -2 c 128,-1,28
 209 -2 209 -2 195.5 20.5 c 128,-1,29
 182 43 182 43 166.5 107 c 128,-1,30
 151 171 151 171 122 249 c 0,0,1
EndSplineSet
Validated: 1
EndChar

StartChar: w
Encoding: 119 119 61
Width: 715
VWidth: 1275
Flags: MW
LayerCount: 2
Fore
SplineSet
422 1 m 0,0,1
 420 1 420 1 418 1 c 0,2,3
 400 1 400 1 387.5 14 c 128,-1,4
 375 27 375 27 363.5 83 c 128,-1,5
 352 139 352 139 347 146 c 1,6,-1
 346 146 l 1,7,8
 337 145 337 145 297.5 90 c 128,-1,9
 258 35 258 35 241 18 c 128,-1,10
 224 1 224 1 210 1 c 0,11,12
 181 1 181 1 161.5 42 c 128,-1,13
 142 83 142 83 123 166 c 128,-1,14
 104 249 104 249 85 305 c 0,15,16
 70 360 70 360 70 388 c 256,17,18
 70 416 70 416 83 430 c 0,19,20
 96 446 96 446 115 446 c 0,21,22
 116 446 116 446 117 446 c 0,23,24
 135 446 135 446 146 434 c 0,25,26
 158 422 158 422 179 349.5 c 128,-1,27
 200 277 200 277 208.5 228.5 c 128,-1,28
 217 180 217 180 227 180 c 0,29,30
 239 180 239 180 287 245 c 128,-1,31
 335 310 335 310 356 311 c 1,32,-1
 360 311 l 1,33,34
 404 310 404 310 431 226 c 0,35,36
 443 192 443 192 447 191 c 0,37,38
 448 191 448 191 453 203 c 0,39,40
 466 245 466 245 508 329.5 c 128,-1,41
 550 414 550 414 565 433 c 0,42,43
 577 445 577 445 596 445 c 2,44,-1
 599 445 l 2,45,46
 600 445 600 445 610 445.5 c 128,-1,47
 620 446 620 446 635.5 435 c 128,-1,48
 651 424 651 424 651 406.5 c 128,-1,49
 651 389 651 389 613 322 c 1,50,51
 588 268 588 268 564.5 209.5 c 128,-1,52
 541 151 541 151 510.5 94.5 c 128,-1,53
 480 38 480 38 464 19 c 0,54,55
 446 1 446 1 422 1 c 0,0,1
EndSplineSet
Validated: 1
EndChar

StartChar: x
Encoding: 120 120 62
Width: 535
VWidth: 1275
Flags: MW
LayerCount: 2
Fore
SplineSet
121 397 m 0,0,1
 121 417 121 417 134.5 431 c 128,-1,2
 148 445 148 445 163 446 c 0,3,4
 188 446 188 446 221 400 c 0,5,6
 269 334 269 334 276 329 c 1,7,-1
 300 299 l 1,8,-1
 348 354 l 2,9,10
 394 407 394 407 422 407 c 0,11,12
 437 407 437 407 452 391 c 0,13,14
 465 380 465 380 465 365 c 0,15,16
 465 340 465 340 404 270 c 0,17,18
 388 254 388 254 383.5 248 c 128,-1,19
 379 242 379 242 374 236 c 128,-1,20
 369 230 369 230 367 227 c 128,-1,21
 365 224 365 224 361 218 c 0,22,23
 359 212 359 212 357 211 c 0,24,25
 355 208 355 208 353 204 c 0,26,27
 350 197 350 197 350 190 c 0,28,29
 350 174 350 174 391 120 c 0,30,31
 434 63 434 63 434 44 c 0,32,33
 434 28 434 28 419 15 c 0,34,35
 403 1 403 1 385 1 c 128,-1,36
 367 1 367 1 353 13 c 128,-1,37
 339 25 339 25 310 66 c 1,38,-1
 260 133 l 1,39,-1
 193 74 l 1,40,41
 127 18 127 18 106 18 c 2,42,-1
 105 18 l 2,43,44
 91 18 91 18 78 32 c 0,45,46
 60 46 60 46 60 61 c 0,47,48
 60 92 60 92 136.5 155.5 c 128,-1,49
 213 219 213 219 213 231 c 1,50,-1
 214 231 l 1,51,52
 214 244 214 244 167.5 304.5 c 128,-1,53
 121 365 121 365 121 397 c 0,0,1
EndSplineSet
Validated: 1
EndChar

StartChar: y
Encoding: 121 121 63
Width: 595
VWidth: 1323
Flags: MW
LayerCount: 2
Fore
SplineSet
451 405 m 0,0,1
 464 419 464 419 482 419 c 128,-1,2
 500 419 500 419 514 403 c 128,-1,3
 528 387 528 387 528 366 c 0,4,5
 528 321 528 321 467 231 c 0,6,7
 435 184 435 184 389 101 c 0,8,9
 341 9 341 9 287 -73 c 0,10,11
 233 -154 233 -154 207 -176 c 128,-1,12
 181 -198 181 -198 144 -199 c 1,13,-1
 141 -199 l 2,14,15
 112 -199 112 -199 92.5 -186.5 c 128,-1,16
 73 -174 73 -174 73 -154 c 128,-1,17
 73 -134 73 -134 88.5 -120 c 128,-1,18
 104 -106 104 -106 120 -106 c 0,19,20
 135 -106 135 -106 149 -92 c 128,-1,21
 163 -78 163 -78 202 -18 c 128,-1,22
 241 42 241 42 241 50 c 128,-1,23
 241 58 241 58 235 68 c 0,24,25
 221 82 221 82 206 110 c 128,-1,26
 191 138 191 138 191 150 c 128,-1,27
 191 162 191 162 162 207 c 0,28,29
 131 252 131 252 99 288 c 0,30,31
 65 329 65 329 64 357 c 1,32,-1
 64 361 l 2,33,34
 64 362 64 362 64 364 c 0,35,36
 64 381 64 381 77 395 c 0,37,38
 91 410 91 410 106 411 c 0,39,40
 131 410 131 410 178 349 c 0,41,42
 269 236 269 236 287 178 c 1,43,-1
 296 143 l 1,44,-1
 316 183 l 2,45,46
 333 220 333 220 363 260 c 128,-1,47
 393 300 393 300 415 344 c 0,48,49
 437 386 437 386 451 405 c 0,0,1
EndSplineSet
Validated: 1
EndChar

StartChar: z
Encoding: 122 122 64
Width: 605
VWidth: 1278
Flags: MW
LayerCount: 2
Fore
SplineSet
113 418 m 0,0,1
 125 432 125 432 173 433 c 0,2,3
 177 433 177 433 181 433 c 0,4,5
 229 433 229 433 326 422 c 0,6,7
 430 410 430 410 456.5 404 c 128,-1,8
 483 398 483 398 494 389 c 0,9,10
 513 370 513 370 514 359 c 0,11,12
 514 333 514 333 402 233 c 128,-1,13
 290 133 290 133 279 125 c 0,14,15
 277 123 277 123 276 119 c 0,16,17
 277 116 277 116 289 116 c 2,18,-1
 307 116 l 2,19,20
 315 116 315 116 355 118 c 0,21,22
 382 119 382 119 396 119 c 0,23,24
 403 119 403 119 407 119 c 0,25,26
 418 120 418 120 427 120 c 128,-1,27
 436 120 436 120 448 119 c 0,28,29
 501 119 501 119 515 105 c 128,-1,30
 529 91 529 91 530 76 c 0,31,32
 530 46 530 46 503 37.5 c 128,-1,33
 476 29 476 29 378 25 c 0,34,35
 280 22 280 22 206 14 c 0,36,37
 133 6 133 6 113 6 c 128,-1,38
 93 6 93 6 81 15 c 0,39,40
 67 28 67 28 67 46 c 0,41,42
 67 88 67 88 152 151 c 0,43,44
 200 185 200 185 276 251 c 2,45,-1
 355 319 l 1,46,-1
 327 323 l 1,47,48
 293 330 293 330 219 336 c 128,-1,49
 145 342 145 342 122 352 c 128,-1,50
 99 362 99 362 99 383 c 128,-1,51
 99 404 99 404 113 418 c 0,0,1
EndSplineSet
Validated: 1
EndChar

StartChar: Adieresis
Encoding: 196 196 66
Width: 760
VWidth: 1226
Flags: MW
LayerCount: 2
Fore
SplineSet
446 320 m 2,0,1
 423 380 423 380 417 424 c 128,-1,2
 411 468 411 468 403.5 468 c 128,-1,3
 396 468 396 468 350 372 c 128,-1,4
 304 276 304 276 304 259 c 0,5,6
 304 257 304 257 353 256 c 1,7,-1
 389 256 l 1,8,-1
 469 259 l 1,9,-1
 446 320 l 2,0,1
301 499 m 128,-1,11
 348 583 348 583 376.5 616.5 c 128,-1,12
 405 650 405 650 424 650 c 0,13,14
 425 651 l 0,15,16
 444 651 444 651 461 630 c 0,17,18
 480 605 480 605 509 459 c 0,19,20
 524 380 524 380 663 70 c 0,21,22
 682 28 682 28 682 7.5 c 128,-1,23
 682 -13 682 -13 668 -27 c 128,-1,24
 654 -41 654 -41 636 -41 c 128,-1,25
 618 -41 618 -41 598 -20.5 c 128,-1,26
 578 0 578 0 562.5 41 c 128,-1,27
 547 82 547 82 533 114 c 2,28,-1
 511 161 l 1,29,-1
 412 161 l 2,30,31
 308 161 308 161 276.5 157 c 128,-1,32
 245 153 245 153 233 137.5 c 128,-1,33
 221 122 221 122 184 51 c 128,-1,34
 147 -20 147 -20 134.5 -34 c 128,-1,35
 122 -48 122 -48 104 -48 c 0,36,37
 103 -48 103 -48 102.5 -48.5 c 128,-1,38
 102 -49 102 -49 101 -49 c 0,39,40
 85 -49 85 -49 71.5 -33.5 c 128,-1,41
 58 -18 58 -18 58 3 c 0,42,43
 58 41 58 41 155 206 c 0,44,45
 193 268 193 268 223.5 341.5 c 128,-1,10
 254 415 254 415 301 499 c 128,-1,11
174 622 m 0,46,47
 161 635 161 635 161 654 c 0,48,49
 161 671 161 671 174 685 c 0,50,51
 186 700 186 700 206 700 c 0,52,53
 207 700 l 0,54,55
 225 700 225 700 238 688 c 0,56,57
 252 676 252 676 252 657 c 128,-1,58
 252 638 252 638 238 624 c 0,59,60
 224 608 224 608 206 608 c 0,61,62
 205 608 205 608 204 608 c 0,63,64
 188 608 188 608 174 622 c 0,46,47
630 702 m 0,65,66
 643 716 643 716 662 716 c 0,67,68
 663 716 663 716 672.5 716.5 c 128,-1,69
 682 717 682 717 695.5 705 c 128,-1,70
 709 693 709 693 709 674 c 128,-1,71
 709 655 709 655 694.5 640.5 c 128,-1,72
 680 626 680 626 662 626 c 128,-1,73
 644 626 644 626 631 639.5 c 128,-1,74
 618 653 618 653 618 670 c 128,-1,75
 618 687 618 687 630 702 c 0,65,66
EndSplineSet
Validated: 1
EndChar

StartChar: AE
Encoding: 198 198 67
Width: 940
VWidth: 1210
Flags: MW
LayerCount: 2
Fore
SplineSet
416 404 m 1,0,1
 414 488 414 488 410 528 c 1,2,-1
 403 577 l 1,3,-1
 387 546 l 1,4,5
 366 500 366 500 332.5 422 c 128,-1,6
 299 344 299 344 299 337 c 128,-1,7
 299 330 299 330 357 330 c 2,8,-1
 416 330 l 1,9,-1
 416 404 l 1,0,1
415 768 m 0,10,11
 419 768 419 768 422 768 c 0,12,13
 432 766 432 766 442 766 c 128,-1,14
 452 766 452 766 459.5 775.5 c 128,-1,15
 467 785 467 785 541 785 c 0,16,17
 573 785 573 785 609.5 785 c 128,-1,18
 646 785 646 785 651 786 c 4,19,20
 689 795 689 795 748 795 c 132,-1,21
 807 795 807 795 831.5 785.5 c 132,-1,22
 856 776 856 776 856 749 c 132,-1,23
 856 722 856 722 835 711.5 c 132,-1,24
 814 701 814 701 756 701 c 5,25,26
 711 692 711 692 680 692 c 128,-1,27
 649 692 649 692 599 693 c 1,28,-1
 513 693 l 1,29,-1
 506 655 l 2,30,31
 503 637 503 637 503 596 c 128,-1,32
 503 555 503 555 506 506 c 2,33,-1
 513 398 l 1,34,-1
 558 398 l 1,35,36
 576 400 576 400 720 407 c 2,37,-1
 813 412 l 1,38,-1
 816 412 l 2,39,40
 835 412 835 412 849 400 c 128,-1,41
 863 388 863 388 863 368 c 0,42,43
 863 349 863 349 847 337 c 0,44,45
 813 306 813 306 586 306 c 2,46,-1
 509 306 l 1,47,-1
 513 257 l 2,48,49
 518 208 518 208 523 125 c 2,50,-1
 528 39 l 1,51,-1
 602 49 l 2,52,53
 693 61 693 61 757.5 61 c 128,-1,54
 822 61 822 61 838.5 48.5 c 128,-1,55
 855 36 855 36 855 17 c 128,-1,56
 855 -2 855 -2 842 -18 c 0,57,58
 828 -33 828 -33 776 -33 c 128,-1,59
 724 -33 724 -33 622.5 -48.5 c 128,-1,60
 521 -64 521 -64 488 -64 c 128,-1,61
 455 -64 455 -64 444.5 -51 c 128,-1,62
 434 -38 434 -38 434 21 c 2,63,-1
 434 34 l 2,64,65
 434 115 434 115 424 172 c 2,66,-1
 413 238 l 1,67,-1
 258 238 l 1,68,-1
 215 132 l 2,69,70
 148 -32 148 -32 113 -32 c 2,71,-1
 107 -32 l 2,72,73
 89 -32 89 -32 76 -18 c 0,74,75
 62 -3 62 -3 62 17 c 0,76,77
 62 38 62 38 95 110 c 0,78,79
 128 183 128 183 174.5 305 c 128,-1,80
 221 427 221 427 288.5 570 c 128,-1,81
 356 713 356 713 376.5 740 c 128,-1,82
 397 767 397 767 415 768 c 0,10,11
EndSplineSet
Validated: 1
EndChar

StartChar: Odieresis
Encoding: 214 214 68
Width: 757
VWidth: 1198
Flags: MW
LayerCount: 2
Fore
SplineSet
531 483 m 0,0,1
 503 547 503 547 486 568.5 c 128,-1,2
 469 590 469 590 403 592 c 1,3,-1
 380 592 l 2,4,5
 336 592 336 592 308 579 c 0,6,7
 280 568 280 568 248 534 c 0,8,9
 175 460 175 460 170 315 c 0,10,11
 169 291 169 291 167 259 c 0,12,13
 167 179 167 179 249 92 c 0,14,15
 290 47 290 47 337.5 35.5 c 128,-1,16
 385 24 385 24 411.5 24 c 128,-1,17
 438 24 438 24 481.5 49.5 c 128,-1,18
 525 75 525 75 538.5 87.5 c 128,-1,19
 552 100 552 100 559 119 c 0,20,21
 579 173 579 173 581 251 c 0,22,23
 579 381 579 381 531 483 c 0,0,1
271 673 m 0,24,25
 302 687 302 687 363 687 c 0,26,27
 386 687 386 687 413 685 c 1,28,-1
 518 681 l 1,29,-1
 549 650 l 1,30,31
 577 619 577 619 609 557.5 c 128,-1,32
 641 496 641 496 655 452 c 0,33,34
 673 387 673 387 673 238 c 0,35,36
 673 230 673 230 673 190 c 128,-1,37
 673 150 673 150 668 123 c 0,38,39
 649 32 649 32 549 -30 c 0,40,41
 494 -64 494 -64 436 -68 c 1,42,-1
 418 -68 l 2,43,44
 356 -68 356 -68 317 -59 c 0,45,46
 272 -51 272 -51 255 -40.5 c 128,-1,47
 238 -30 238 -30 175.5 32 c 128,-1,48
 113 94 113 94 94 139 c 0,49,50
 75 183 75 183 75 278 c 0,51,52
 75 281 75 281 75 283 c 0,53,54
 75 382 75 382 81.5 425 c 128,-1,55
 88 468 88 468 107.5 509.5 c 128,-1,56
 127 551 127 551 180.5 604.5 c 128,-1,57
 234 658 234 658 271 673 c 0,24,25
545 727 m 132,-1,59
 531 741 531 741 531 758 c 132,-1,60
 531 775 531 775 544 789.5 c 132,-1,61
 557 804 557 804 576.5 804 c 132,-1,62
 596 804 596 804 609.5 792 c 132,-1,63
 623 780 623 780 623 762 c 128,-1,64
 623 744 623 744 610 728 c 4,65,66
 596 713 596 713 577.5 713 c 132,-1,58
 559 713 559 713 545 727 c 132,-1,59
208 727 m 132,-1,68
 195 741 195 741 195 760 c 132,-1,69
 195 779 195 779 207 791.5 c 132,-1,70
 219 804 219 804 238 804 c 132,-1,71
 257 804 257 804 271 792 c 132,-1,72
 285 780 285 780 285 761 c 132,-1,73
 285 742 285 742 271 727.5 c 132,-1,74
 257 713 257 713 239 713 c 132,-1,67
 221 713 221 713 208 727 c 132,-1,68
EndSplineSet
Validated: 1
EndChar

StartChar: Udieresis
Encoding: 220 220 69
Width: 752
VWidth: 1204
Flags: MW
LayerCount: 2
Fore
SplineSet
346 33 m 1,0,-1
 362 34 l 1,1,2
 434 45 434 45 498 137 c 0,3,4
 535 188 535 188 544 234.5 c 128,-1,5
 553 281 553 281 555 422 c 128,-1,6
 557 563 557 563 561 598 c 0,7,8
 567 663 567 663 613 663 c 2,9,-1
 616 663 l 2,10,11
 634 663 634 663 645 650 c 128,-1,12
 656 637 656 637 656 549 c 2,13,-1
 656 512 l 2,14,15
 656 -38 656 -38 641 -58 c 0,16,17
 629 -70 629 -70 612 -70 c 128,-1,18
 595 -70 595 -70 577 -55 c 0,19,20
 564 -42 564 -42 560 5 c 1,21,-1
 555 48 l 1,22,-1
 510 5 l 2,23,24
 466 -36 466 -36 433.5 -48.5 c 128,-1,25
 401 -61 401 -61 346 -61 c 128,-1,26
 291 -61 291 -61 258 -49 c 128,-1,27
 225 -37 225 -37 172 3 c 0,28,29
 127 40 127 40 105 85 c 2,30,-1
 80 136 l 1,31,-1
 81 308 l 1,32,33
 81 593 81 593 124 639 c 0,34,35
 137 654 137 654 160 655 c 2,36,-1
 161 655 l 2,37,38
 183 655 183 655 196.5 639.5 c 128,-1,39
 210 624 210 624 210 617.5 c 128,-1,40
 210 611 210 611 204 582 c 0,41,42
 175 458 175 458 172 308 c 0,43,44
 172 216 172 216 176 189.5 c 128,-1,45
 180 163 180 163 200.5 123 c 128,-1,46
 221 83 221 83 230 81 c 0,47,48
 243 81 243 81 253 67 c 0,49,50
 284 33 284 33 346 33 c 1,0,-1
285 712 m 4,51,52
 271 725 271 725 271 743 c 0,53,54
 271 762 271 762 283 776 c 132,-1,55
 295 790 295 790 304 790 c 2,56,-1
 317 790 l 6,57,58
 336 790 336 790 349 778 c 132,-1,59
 362 766 362 766 362 748 c 0,60,61
 361 730 361 730 347 714 c 4,62,63
 333 698 333 698 316 698 c 4,64,-1
 315 698 l 0,65,66
 299 698 299 698 285 712 c 4,51,52
444 722.5 m 132,-1,68
 431 736 431 736 431 752.5 c 132,-1,69
 431 769 431 769 442.5 783 c 132,-1,70
 454 797 454 797 476 799 c 4,71,72
 477 799 477 799 478 799.5 c 132,-1,73
 479 800 479 800 481 800 c 0,74,75
 497 800 497 800 509.5 788 c 132,-1,76
 522 776 522 776 522 757 c 132,-1,77
 522 738 522 738 508 723.5 c 132,-1,78
 494 709 494 709 475.5 709 c 132,-1,67
 457 709 457 709 444 722.5 c 132,-1,68
EndSplineSet
Validated: 1
EndChar

StartChar: germandbls
Encoding: 223 223 70
Width: 595
VWidth: 1258
Flags: MW
LayerCount: 2
Fore
SplineSet
231 738 m 0,0,1
 265 750 265 750 300 750 c 128,-1,2
 335 750 335 750 365 736.5 c 128,-1,3
 395 723 395 723 446.5 668.5 c 128,-1,4
 498 614 498 614 508 585 c 0,5,6
 519 561 519 561 525 471 c 1,7,-1
 527 382 l 1,8,-1
 502 357 l 2,9,10
 474 329 474 329 455 321 c 1,11,-1
 436 310 l 1,12,-1
 459 286 l 1,13,14
 472 268 472 268 475.5 254.5 c 128,-1,15
 479 241 479 241 479 221 c 2,16,-1
 479 191 l 2,17,18
 479 123 479 123 459.5 83.5 c 128,-1,19
 440 44 440 44 383.5 14 c 128,-1,20
 327 -16 327 -16 286.5 -16 c 128,-1,21
 246 -16 246 -16 232 -2 c 0,22,23
 216 11 216 11 216 27.5 c 128,-1,24
 216 44 216 44 233.5 59.5 c 128,-1,25
 251 75 251 75 277 82 c 0,26,27
 362 102 362 102 377 144 c 0,28,29
 387 173 387 173 387 191 c 0,30,31
 387 237 387 237 332 249.5 c 128,-1,32
 277 262 277 262 277 304 c 0,33,34
 277 324 277 324 291 337 c 128,-1,35
 305 350 305 350 364 383 c 1,36,-1
 423 419 l 1,37,-1
 423 479 l 2,38,39
 423 520 423 520 419 535.5 c 128,-1,40
 415 551 415 551 397 577 c 0,41,42
 345 650 345 650 295 650 c 2,43,-1
 294 650 l 2,44,45
 263 650 263 650 248.5 628 c 128,-1,46
 234 606 234 606 222 544 c 0,47,48
 194 394 194 394 187.5 319 c 128,-1,49
 181 244 181 244 177.5 63.5 c 128,-1,50
 174 -117 174 -117 170 -158.5 c 128,-1,51
 166 -200 166 -200 152.5 -213.5 c 128,-1,52
 139 -227 139 -227 120.5 -227 c 128,-1,53
 102 -227 102 -227 90 -214.5 c 128,-1,54
 78 -202 78 -202 78 -140 c 128,-1,55
 78 -78 78 -78 84.5 136.5 c 128,-1,56
 91 351 91 351 112 491 c 128,-1,57
 133 631 133 631 155.5 675 c 128,-1,58
 178 719 178 719 231 738 c 0,0,1
EndSplineSet
Validated: 1
EndChar

StartChar: adieresis
Encoding: 228 228 71
Width: 652
VWidth: 1226
Flags: MW
LayerCount: 2
Fore
SplineSet
410 333 m 0,0,1
 397 347 397 347 339 348 c 0,2,3
 320 349 320 349 305 349 c 0,4,5
 276 349 276 349 265 346 c 0,6,7
 223 337 223 337 185 262 c 0,8,9
 161 214 161 214 161 187 c 0,10,11
 161 106 161 106 314 103 c 0,12,13
 376 103 376 103 404 109 c 1,14,-1
 428 113 l 1,15,-1
 425 217 l 2,16,17
 422 319 422 319 410 333 c 0,0,1
393 438 m 0,18,19
 438 438 438 438 452 456.5 c 128,-1,20
 466 475 466 475 490.5 475 c 128,-1,21
 515 475 515 475 528 461 c 128,-1,22
 541 447 541 447 541 433.5 c 128,-1,23
 541 420 541 420 529 372 c 128,-1,24
 517 324 517 324 517 279 c 0,25,26
 517 274 517 274 517 270 c 0,27,28
 517 233 517 233 521 217 c 0,29,30
 525 133 525 133 554 75 c 128,-1,31
 583 17 583 17 583 -1 c 128,-1,32
 583 -19 583 -19 570 -33 c 128,-1,33
 557 -47 557 -47 537.5 -47 c 128,-1,34
 518 -47 518 -47 492 -18 c 1,35,-1
 466 14 l 1,36,-1
 350 12 l 1,37,-1
 304 12 l 1,38,39
 231 13 231 13 196 21 c 128,-1,40
 161 29 161 29 127 55 c 0,41,42
 62 101 62 101 61 179 c 0,43,44
 61 240 61 240 97 309 c 128,-1,45
 133 378 133 378 181 417 c 1,46,-1
 218 443 l 1,47,-1
 326 441 l 2,48,49
 355 440 355 440 393 438 c 0,18,19
429 696 m 0,50,51
 441 710 441 710 461 710 c 0,52,53
 462 710 462 710 463 710 c 0,54,55
 483 710 483 710 495 698 c 0,56,57
 509 686 509 686 509 668 c 0,58,59
 509 648 509 648 493 634 c 0,60,61
 479 620 479 620 461 620 c 0,62,63
 460 620 460 620 460 619 c 0,64,65
 443 619 443 619 431 633 c 0,66,67
 417 647 417 647 417 664 c 128,-1,68
 417 681 417 681 429 696 c 0,50,51
177 633 m 0,69,70
 164 647 164 647 164 665 c 0,71,72
 164 682 164 682 177 695 c 0,73,74
 189 710 189 710 209 710 c 0,75,-1
 210 710 l 0,76,77
 228 710 228 710 241 698 c 0,78,79
 255 686 255 686 255 667 c 128,-1,80
 255 648 255 648 240.5 633.5 c 128,-1,81
 226 619 226 619 208.5 619 c 128,-1,82
 191 619 191 619 177 633 c 0,69,70
EndSplineSet
Validated: 1
EndChar

StartChar: ae
Encoding: 230 230 72
Width: 1016
VWidth: 1231
Flags: MW
LayerCount: 2
Fore
SplineSet
435 172 m 128,-1,1
 449 218 449 218 449 247 c 128,-1,2
 449 276 449 276 445.5 284.5 c 128,-1,3
 442 293 442 293 428.5 293 c 128,-1,4
 415 293 415 293 341 274 c 0,5,6
 213 240 213 240 182 185 c 0,7,8
 171 163 171 163 171 153 c 128,-1,9
 171 143 171 143 181 105 c 0,10,11
 192 72 192 72 198 64 c 128,-1,12
 204 56 204 56 225 51 c 0,13,14
 241 49 241 49 255 49 c 0,15,16
 272 49 272 49 286 52 c 0,17,18
 310 57 310 57 353 78 c 128,-1,19
 396 99 396 99 407 112 c 0,20,0
 421 126 421 126 435 172 c 128,-1,1
856 524 m 2,21,22
 856 551 856 551 831.5 568.5 c 128,-1,23
 807 586 807 586 761.5 586 c 128,-1,24
 716 586 716 586 696 578 c 0,25,26
 675 567 675 567 649.5 531.5 c 128,-1,27
 624 496 624 496 622 476 c 0,28,29
 622 445 622 445 624 432 c 1,30,-1
 625 404 l 1,31,-1
 826 404 l 1,32,-1
 841 442 l 2,33,34
 855 479 855 479 856 515 c 1,35,-1
 856 524 l 2,21,22
586 611 m 128,-1,37
 622 653 622 653 650.5 667 c 128,-1,38
 679 681 679 681 754 682 c 0,39,40
 761 682 761 682 767 682 c 0,41,42
 831 682 831 682 850 672 c 0,43,44
 871 662 871 662 911 628 c 1,45,-1
 946 594 l 1,46,-1
 946 511 l 2,47,48
 946 441 946 441 935.5 405.5 c 128,-1,49
 925 370 925 370 894 337 c 1,50,-1
 867 310 l 1,51,-1
 628 310 l 1,52,-1
 634 271 l 1,53,54
 654 154 654 154 672 122 c 0,55,56
 692 85 692 85 757 85 c 0,57,58
 759 85 759 85 760 85 c 0,59,60
 779 85 779 85 798 106.5 c 128,-1,61
 817 128 817 128 825 146 c 0,62,63
 840 192 840 192 872 192 c 0,64,65
 890 192 890 192 905 177.5 c 128,-1,66
 920 163 920 163 920 143.5 c 128,-1,67
 920 124 920 124 894 79 c 128,-1,68
 868 34 868 34 847.5 16.5 c 128,-1,69
 827 -1 827 -1 811.5 -5.5 c 128,-1,70
 796 -10 796 -10 776 -10 c 2,71,-1
 750 -10 l 2,72,73
 660 -10 660 -10 617 27.5 c 128,-1,74
 574 65 574 65 552 163 c 0,75,76
 544 194 544 194 543 194 c 2,77,-1
 524 116 l 1,78,79
 506 72 506 72 485 47 c 0,80,81
 454 14 454 14 406 -9 c 128,-1,82
 358 -32 358 -32 337.5 -36 c 128,-1,83
 317 -40 317 -40 253 -40 c 2,84,-1
 163 -40 l 1,85,-1
 132 -10 l 2,86,87
 78 43 78 43 77 146 c 1,88,-1
 77 152 l 2,89,90
 77 216 77 216 108 258 c 128,-1,91
 139 300 139 300 208 331 c 0,92,93
 298 375 298 375 412 392 c 1,94,-1
 449 397 l 1,95,-1
 443 443 l 1,96,97
 434 531 434 531 430 547.5 c 128,-1,98
 426 564 426 564 407 571.5 c 128,-1,99
 388 579 388 579 380 579 c 2,100,-1
 370 579 l 2,101,102
 322 579 322 579 214 511 c 0,103,104
 160 477 160 477 160 461 c 0,105,106
 160 443 160 443 146 427.5 c 128,-1,107
 132 412 132 412 115 412 c 0,108,109
 68 412 68 412 68 479 c 0,110,111
 68 504 68 504 74 515.5 c 128,-1,112
 80 527 80 527 100 548 c 0,113,114
 153 601 153 601 254 652 c 0,115,116
 293 671 293 671 375 671 c 0,117,118
 379 671 379 671 383 671 c 0,119,120
 436 671 436 671 459.5 659 c 128,-1,121
 483 647 483 647 503 617 c 128,-1,122
 523 587 523 587 531 554 c 1,123,-1
 537 516 l 1,124,-1
 544 544 l 2,125,36
 550 569 550 569 586 611 c 128,-1,37
EndSplineSet
Validated: 1
EndChar

StartChar: odieresis
Encoding: 246 246 73
Width: 680
VWidth: 1230
Flags: MW
LayerCount: 2
Fore
SplineSet
451 350 m 0,0,1
 426 366 426 366 413 367 c 2,2,3
 412 367 l 2,4,5
 398 366 398 366 383 348 c 0,6,7
 374 335 374 335 360 330 c 0,8,9
 346 323 346 323 308 322 c 0,10,11
 251 316 251 316 223 301 c 128,-1,12
 195 286 195 286 176.5 252.5 c 128,-1,13
 158 219 158 219 158 183 c 0,14,15
 158 105 158 105 214 82 c 0,16,17
 294 52 294 52 320 52 c 2,18,-1
 322 52 l 2,19,20
 337 52 337 52 357 60 c 0,21,22
 454 93 454 93 486 147 c 0,23,24
 507 179 507 179 507.5 197.5 c 128,-1,25
 508 216 508 216 506 225 c 0,26,27
 493 318 493 318 451 350 c 0,0,1
353 440 m 0,28,29
 368 460 368 460 410 460 c 0,30,31
 413 460 413 460 415 461 c 0,32,33
 452 461 452 461 466 454 c 0,34,35
 481 447 481 447 514 423 c 0,36,37
 560 385 560 385 578 346 c 0,38,39
 602 294 602 294 602 185 c 0,40,41
 602 145 602 145 590 121 c 128,-1,42
 578 97 578 97 538 53 c 0,43,44
 494 7 494 7 432 -19 c 0,45,46
 370 -46 370 -46 325 -46 c 0,47,48
 324 -46 324 -46 323 -46 c 0,49,50
 278 -46 278 -46 216 -25 c 0,51,52
 168 -7 168 -7 143 11 c 128,-1,53
 118 29 118 29 96 59 c 128,-1,54
 74 89 74 89 69 106 c 128,-1,55
 64 123 64 123 64 179.5 c 128,-1,56
 64 236 64 236 75 270 c 128,-1,57
 86 304 86 304 122.5 343.5 c 128,-1,58
 159 383 159 383 186.5 397 c 128,-1,59
 214 411 214 411 264.5 414.5 c 128,-1,60
 315 418 315 418 328.5 422.5 c 128,-1,61
 342 427 342 427 353 440 c 0,28,29
192 641.5 m 128,-1,63
 192 659 192 659 205 673.5 c 128,-1,64
 218 688 218 688 236 688 c 2,65,-1
 239 688 l 1,66,67
 256 687 256 687 269 676 c 0,68,69
 283 662 283 662 283 644 c 128,-1,70
 283 626 283 626 268.5 611.5 c 128,-1,71
 254 597 254 597 236 597 c 128,-1,72
 218 597 218 597 205 610.5 c 128,-1,62
 192 624 192 624 192 641.5 c 128,-1,63
419 649 m 128,-1,74
 419 667 419 667 431.5 681.5 c 128,-1,75
 444 696 444 696 464 696 c 0,76,77
 465 696 465 696 475 696.5 c 128,-1,78
 485 697 485 697 498.5 684 c 128,-1,79
 512 671 512 671 512 654.5 c 128,-1,80
 512 638 512 638 497 621 c 128,-1,81
 482 604 482 604 464 604 c 0,82,83
 463 604 463 604 463 603 c 0,84,85
 446 603 446 603 433 617 c 0,86,73
 419 631 419 631 419 649 c 128,-1,74
EndSplineSet
Validated: 1
EndChar

StartChar: udieresis
Encoding: 252 252 74
Width: 597
VWidth: 1234
Flags: MW
LayerCount: 2
Fore
SplineSet
402 442 m 0,0,1
 416 456 416 456 432 456 c 0,2,3
 433 456 433 456 433 457 c 1,4,5
 449 457 449 457 462.5 444 c 128,-1,6
 476 431 476 431 477.5 414.5 c 128,-1,7
 479 398 479 398 479 370 c 2,8,-1
 479 317 l 1,9,10
 481 197 481 197 492 149 c 0,11,12
 519 27 519 27 519 7 c 0,13,14
 519 -12 519 -12 509 -26 c 1,15,16
 493 -41 493 -41 477 -41 c 0,17,18
 458 -41 458 -41 439 -21 c 0,19,20
 419 0 419 0 419 18.5 c 128,-1,21
 419 37 419 37 411 38 c 0,22,23
 400 38 400 38 382 15 c 0,24,25
 336 -32 336 -32 259 -33 c 0,26,27
 219 -33 219 -33 197 -19.5 c 128,-1,28
 175 -6 175 -6 135.5 45.5 c 128,-1,29
 96 97 96 97 85 137.5 c 128,-1,30
 74 178 74 178 74 280 c 128,-1,31
 74 382 74 382 88 400 c 0,32,33
 101 414 101 414 118 414 c 128,-1,34
 135 414 135 414 151 401 c 0,35,36
 166 387 166 387 166 304 c 128,-1,37
 166 221 166 221 176 183 c 128,-1,38
 186 145 186 145 213 105.5 c 128,-1,39
 240 66 240 66 260 65 c 2,40,-1
 261 65 l 2,41,42
 270 65 270 65 290 72 c 0,43,44
 344 93 344 93 360 219 c 0,45,46
 366 267 366 267 377 345.5 c 128,-1,47
 388 424 388 424 402 442 c 0,0,1
294 628 m 128,-1,49
 294 645 294 645 307 659.5 c 128,-1,50
 320 674 320 674 339.5 674 c 128,-1,51
 359 674 359 674 372 662 c 128,-1,52
 385 650 385 650 385 632 c 128,-1,53
 385 614 385 614 371 598 c 128,-1,54
 357 582 357 582 338.5 582 c 128,-1,55
 320 582 320 582 307 596.5 c 128,-1,48
 294 611 294 611 294 628 c 128,-1,49
177 627 m 0,56,57
 177 644 177 644 190.5 659 c 128,-1,58
 204 674 204 674 222 674 c 128,-1,59
 240 674 240 674 254 662 c 128,-1,60
 268 650 268 650 268 632 c 128,-1,61
 268 614 268 614 253.5 598 c 128,-1,62
 239 582 239 582 222 582 c 128,-1,63
 205 582 205 582 191 596 c 0,64,65
 178 610 178 610 177 627 c 0,56,57
EndSplineSet
Validated: 1
EndChar

StartChar: Euro
Encoding: 256 8364 75
Width: 763
VWidth: 1220
Flags: MW
LayerCount: 2
Fore
SplineSet
356 325 m 5,0,-1
 391 326 l 5,1,2
 433 326 433 326 447.5 316 c 132,-1,3
 462 306 462 306 462 277.5 c 132,-1,4
 462 249 462 249 441 238.5 c 132,-1,5
 420 228 420 228 353 228 c 132,-1,6
 286 228 286 228 285 219 c 4,7,8
 285 179 285 179 365 143 c 132,-1,9
 445 107 445 107 526 107 c 4,10,11
 552 107 552 107 573 110 c 4,12,13
 614 119 614 119 636 119 c 4,14,15
 698 119 698 119 698 76 c 4,16,17
 698 50 698 50 675 36.5 c 132,-1,18
 652 23 652 23 598 17 c 4,19,20
 564 11 564 11 520 10 c 4,21,22
 350 11 350 11 243 99 c 4,23,24
 222 118 222 118 204 152 c 132,-1,25
 186 186 186 186 185 204 c 132,-1,26
 184 222 184 222 177 225 c 132,-1,27
 170 228 170 228 144 228 c 4,28,29
 75 228 75 228 75 272 c 4,30,31
 75 320 75 320 142 322 c 4,32,33
 171 322 171 322 177.5 325 c 132,-1,34
 184 328 184 328 185 351 c 5,35,-1
 189 381 l 5,36,-1
 143 381 l 6,37,38
 105 381 105 381 81 396.5 c 132,-1,39
 57 412 57 412 57 436.5 c 132,-1,40
 57 461 57 461 72.5 469.5 c 132,-1,41
 88 478 88 478 108 478 c 6,42,-1
 138 478 l 6,43,44
 148 478 148 478 155 477 c 6,45,-1
 221 471 l 5,46,-1
 263 524 l 5,47,48
 334 611 334 611 394 631 c 4,49,50
 418 640 418 640 533 643 c 4,51,52
 608 643 608 643 628.5 639.5 c 132,-1,53
 649 636 649 636 665.5 620.5 c 132,-1,54
 682 605 682 605 682 589.5 c 132,-1,55
 682 574 682 574 670 559 c 132,-1,56
 658 544 658 544 625 544 c 5,57,-1
 521 548 l 5,58,59
 426 548 426 548 379 502 c 5,60,-1
 348 473 l 5,61,-1
 392 478 l 6,62,63
 400 479 400 479 414 480 c 4,64,65
 469 480 469 480 471 434 c 4,66,67
 471 381 471 381 366 381 c 6,68,-1
 296 381 l 5,69,-1
 277 318 l 5,70,-1
 356 325 l 5,0,-1
EndSplineSet
Validated: 1
EndChar

StartChar: parenleft
Encoding: 40 40 76
Width: 364
VWidth: 1244
Flags: MW
LayerCount: 2
Fore
SplineSet
182 592 m 0,0,1
 214 626 214 626 241 626 c 0,2,3
 256 626 256 626 269 614 c 128,-1,4
 282 602 282 602 282 586 c 128,-1,5
 282 570 282 570 247 536 c 0,6,7
 212 500 212 500 188 453 c 128,-1,8
 164 406 164 406 161 320 c 1,9,-1
 156 235 l 1,10,-1
 186 157 l 1,11,12
 233 44 233 44 271 44 c 0,13,14
 282 44 282 44 293.5 30 c 128,-1,15
 305 16 305 16 305 0 c 128,-1,16
 305 -16 305 -16 291 -28 c 0,17,18
 278 -40 278 -40 252 -40 c 128,-1,19
 226 -40 226 -40 182 3 c 0,20,21
 151 31 151 31 138 51 c 128,-1,22
 125 71 125 71 104 120 c 2,23,-1
 72 196 l 1,24,-1
 76 313 l 1,25,26
 82 437 82 437 90 455 c 0,27,28
 112 520 112 520 182 592 c 0,0,1
EndSplineSet
Validated: 1
EndChar

StartChar: parenright
Encoding: 41 41 77
Width: 374
VWidth: 1244
Flags: MW
LayerCount: 2
Fore
SplineSet
287.5 525 m 128,-1,1
 290 505 290 505 291 439.5 c 128,-1,2
 292 374 292 374 296 338 c 1,3,4
 296 270 296 270 284 210 c 0,5,6
 255 70 255 70 240 55 c 0,7,8
 234 46 234 46 234 35 c 128,-1,9
 234 24 234 24 163 -45 c 128,-1,10
 92 -114 92 -114 78.5 -114 c 128,-1,11
 65 -114 65 -114 52.5 -98.5 c 128,-1,12
 40 -83 40 -83 40 -66.5 c 128,-1,13
 40 -50 40 -50 50 -36.5 c 128,-1,14
 60 -23 60 -23 98.5 12.5 c 128,-1,15
 137 48 137 48 147.5 63 c 128,-1,16
 158 78 158 78 171 122 c 0,17,18
 212 256 212 256 212 381 c 2,19,-1
 212 412 l 1,20,21
 211 482 211 482 198 513.5 c 128,-1,22
 185 545 185 545 146.5 592 c 128,-1,23
 108 639 108 639 108 656.5 c 128,-1,24
 108 674 108 674 119.5 687.5 c 128,-1,25
 131 701 131 701 145 701 c 0,26,27
 169 701 169 701 210.5 651 c 128,-1,28
 252 601 252 601 268.5 573 c 128,-1,0
 285 545 285 545 287.5 525 c 128,-1,1
EndSplineSet
Validated: 1
EndChar

StartChar: zero
Encoding: 48 48 78
Width: 638
VWidth: 1241
Flags: MW
LayerCount: 2
Fore
SplineSet
468 298 m 1,0,-1
 468 368 l 2,1,2
 468 416 468 416 457 441 c 128,-1,3
 446 466 446 466 429 499 c 128,-1,4
 412 532 412 532 386 556 c 0,5,6
 376 566 376 566 366 566 c 2,7,-1
 345 566 l 2,8,9
 280 566 280 566 236 533 c 0,10,11
 159 474 159 474 159 353 c 2,12,-1
 159 346 l 2,13,14
 159 325 159 325 162 313 c 0,15,16
 166 200 166 200 175 171 c 128,-1,17
 184 142 184 142 214 97 c 0,18,19
 238 64 238 64 254 53 c 0,20,21
 273 40 273 40 298 40 c 0,22,23
 371 40 371 40 405 63 c 0,24,25
 424 77 424 77 444 126 c 0,26,27
 466 173 466 173 468 298 c 1,0,-1
301 654 m 2,28,-1
 319 654 l 2,29,30
 327 654 327 654 376 650.5 c 128,-1,31
 425 647 425 647 444 634 c 1,32,33
 444 628 444 628 488 572.5 c 128,-1,34
 532 517 532 517 551 469 c 0,35,36
 558 450 558 450 561.5 369.5 c 128,-1,37
 565 289 565 289 565 257 c 128,-1,38
 565 225 565 225 551 149 c 0,39,40
 542 109 542 109 528 90 c 1,41,42
 486 3 486 3 432 -25 c 0,43,44
 404 -39 404 -39 346 -39 c 0,45,46
 337 -39 337 -39 329 -39 c 128,-1,47
 321 -39 321 -39 308 -42 c 1,48,-1
 289 -42 l 2,49,50
 242 -42 242 -42 218 -29 c 128,-1,51
 194 -16 194 -16 152 34 c 128,-1,52
 110 84 110 84 97 126 c 0,53,54
 79 173 79 173 78 308 c 1,55,-1
 78 330 l 1,56,57
 77 345 77 345 77 351 c 0,58,59
 77 464 77 464 118 530 c 0,60,61
 138 564 138 564 180 598 c 0,62,63
 248 654 248 654 301 654 c 2,28,-1
EndSplineSet
Validated: 1
EndChar

StartChar: one
Encoding: 49 49 79
Width: 465
VWidth: 1238
Flags: MW
LayerCount: 2
Fore
SplineSet
106 468 m 0,0,1
 139 496 139 496 194.5 537 c 128,-1,2
 250 578 250 578 290 618 c 128,-1,3
 330 658 330 658 352 658 c 128,-1,4
 374 658 374 658 386.5 645.5 c 128,-1,5
 399 633 399 633 399 616 c 2,6,7
 399 612 l 2,8,9
 398 611 398 611 398 608 c 0,10,11
 372 500 372 500 343 172 c 0,12,13
 339 128 339 128 339 55.5 c 128,-1,14
 339 -17 339 -17 328 -30.5 c 128,-1,15
 317 -44 317 -44 300.5 -44 c 128,-1,16
 284 -44 284 -44 271 -31.5 c 128,-1,17
 258 -19 258 -19 258 23 c 2,18,-1
 258 32 l 1,19,20
 259 67 259 67 267 240 c 128,-1,21
 275 413 275 413 285 465 c 1,22,-1
 290 494 l 1,23,-1
 241 463 l 1,24,25
 197 431 197 431 154.5 396.5 c 128,-1,26
 112 362 112 362 91 361 c 2,27,-1
 90 361 l 2,28,29
 77 361 77 361 62.5 372.5 c 128,-1,30
 48 384 48 384 48 397 c 0,31,32
 48 419 48 419 106 468 c 0,0,1
EndSplineSet
Validated: 1
EndChar

StartChar: two
Encoding: 50 50 80
Width: 600
VWidth: 1240
Flags: MW
LayerCount: 2
Fore
SplineSet
64 510 m 0,0,1
 64 512 64 512 64 513 c 0,2,3
 64 528 64 528 97 567 c 0,4,5
 175 657 175 657 296 659 c 0,6,7
 334 660 334 660 337 662 c 1,8,-1
 357 662 l 2,9,10
 388 662 388 662 401 654 c 128,-1,11
 414 646 414 646 456 605 c 128,-1,12
 498 564 498 564 501 550 c 0,13,14
 516 491 516 491 517.5 481.5 c 128,-1,15
 519 472 519 472 519 457 c 0,16,17
 519 365 519 365 425 248 c 0,18,19
 404 220 404 220 295 104 c 1,20,-1
 254 61 l 1,21,-1
 330 64 l 2,22,23
 355 65 355 65 370 65 c 0,24,25
 449 65 449 65 494.5 48.5 c 128,-1,26
 540 32 540 32 540 6 c 0,27,28
 540 -34 540 -34 489 -34 c 2,29,-1
 485 -34 l 2,30,31
 470 -34 470 -34 430 -28 c 128,-1,32
 390 -22 390 -22 378 -22 c 2,33,-1
 362 -22 l 2,34,35
 348 -22 348 -22 285 -24 c 128,-1,36
 222 -26 222 -26 214 -27 c 0,37,38
 196 -27 196 -27 177 -27 c 0,39,40
 66 -27 66 -27 65 12 c 0,41,42
 65 44 65 44 142 104 c 1,43,-1
 194 150 l 1,44,-1
 268 222 l 2,45,46
 301 251 301 251 342.5 297 c 128,-1,47
 384 343 384 343 401 366 c 128,-1,48
 418 389 418 389 420 405 c 0,49,50
 431 447 431 447 431 456 c 2,51,-1
 431 466 l 2,52,53
 431 533 431 533 387.5 554.5 c 128,-1,54
 344 576 344 576 342 576 c 2,55,-1
 336 576 l 2,56,57
 290 576 290 576 227.5 548.5 c 132,-1,58
 165 521 165 521 144.5 496 c 128,-1,59
 124 471 124 471 106 471 c 0,60,61
 105 471 105 471 100 471 c 128,-1,62
 95 471 95 471 79.5 481.5 c 128,-1,63
 64 492 64 492 64 510 c 0,0,1
EndSplineSet
Validated: 1
EndChar

StartChar: three
Encoding: 51 51 81
Width: 585
VWidth: 1225
Flags: MW
LayerCount: 2
Fore
SplineSet
415 445 m 1,0,1
 423 478 423 478 423 482 c 2,2,-1
 423 491 l 2,3,4
 423 511 423 511 402.5 552.5 c 128,-1,5
 382 594 382 594 358 610 c 0,6,7
 336 628 336 628 286 631 c 1,8,-1
 275 631 l 1,9,10
 268 633 268 633 265 633 c 0,11,12
 228 633 228 633 173 614.5 c 128,-1,13
 118 596 118 596 104.5 596 c 128,-1,14
 91 596 91 596 77.5 609 c 128,-1,15
 64 622 64 622 64 636 c 0,16,17
 64 674 64 674 145 699 c 0,18,19
 193 717 193 717 272 717 c 128,-1,20
 351 717 351 717 372.5 707 c 128,-1,21
 394 697 394 697 433 660 c 0,22,23
 470 620 470 620 488 582 c 0,24,25
 507 542 507 542 508 477 c 0,26,27
 508 415 508 415 479 359 c 0,28,29
 472 346 472 346 451 332 c 2,30,-1
 433 320 l 1,31,-1
 455 294 l 1,32,33
 477 270 477 270 485 237 c 128,-1,34
 493 204 493 204 494 148 c 1,35,-1
 494 76 l 1,36,-1
 463 43 l 1,37,38
 416 -9 416 -9 367.5 -24.5 c 128,-1,39
 319 -40 319 -40 195 -49 c 0,40,41
 166 -51 166 -51 129 -51 c 128,-1,42
 92 -51 92 -51 78 -37 c 0,43,44
 59 -16 59 -16 59 2.5 c 128,-1,45
 59 21 59 21 79 27.5 c 128,-1,46
 99 34 99 34 166 35 c 0,47,48
 355 39 355 39 400 103 c 0,49,50
 410 116 410 116 410 148 c 2,51,-1
 410 155 l 2,52,53
 410 207 410 207 387 245.5 c 128,-1,54
 364 284 364 284 330 285 c 1,55,-1
 315 285 l 2,56,57
 290 285 290 285 275.5 296 c 128,-1,58
 261 307 261 307 261 325 c 0,59,60
 261 365 261 365 349 389 c 1,61,-1
 407 406 l 1,62,-1
 415 445 l 1,0,1
EndSplineSet
Validated: 1
EndChar

StartChar: four
Encoding: 52 52 82
Width: 614
VWidth: 1234
Flags: MW
LayerCount: 2
Fore
SplineSet
220 599 m 0,0,1
 256 676 256 676 296 676 c 0,2,3
 308 676 308 676 320 666 c 128,-1,4
 332 656 332 656 332 634 c 128,-1,5
 332 612 332 612 319 596 c 128,-1,6
 306 580 306 580 292 542 c 128,-1,7
 278 504 278 504 240 406 c 0,8,9
 200 308 200 308 189 261 c 1,10,-1
 179 225 l 1,11,-1
 232 227 l 2,12,13
 272 228 272 228 288 238 c 128,-1,14
 304 248 304 248 304 269 c 128,-1,15
 304 290 304 290 321 308 c 0,16,17
 334 326 334 326 352 326 c 128,-1,18
 370 326 370 326 380.5 313 c 128,-1,19
 391 300 391 300 391 286 c 128,-1,20
 391 272 391 272 390 267 c 2,21,-1
 385 238 l 1,22,-1
 456 235 l 2,23,24
 529 231 529 231 547 214 c 0,25,26
 565 199 565 199 565 179 c 0,27,28
 565 160 565 160 554 150 c 128,-1,29
 543 140 543 140 535 140 c 2,30,-1
 525 140 l 2,31,32
 516 140 516 140 508 142 c 128,-1,33
 500 144 500 144 434 151 c 2,34,-1
 380 156 l 1,35,-1
 380 68 l 2,36,37
 380 -20 380 -20 366 -34 c 128,-1,38
 352 -48 352 -48 338 -48 c 128,-1,39
 324 -48 324 -48 310 -36 c 128,-1,40
 296 -24 296 -24 296 63 c 2,41,-1
 296 148 l 1,42,-1
 258 144 l 2,43,44
 256 144 256 144 215 138 c 0,45,46
 190 136 190 136 154 130 c 0,47,48
 123 125 123 125 113 125 c 0,49,50
 111 125 111 125 110 125 c 2,51,-1
 99 125 l 2,52,53
 86 125 86 125 72 136 c 0,54,55
 58 148 58 148 58.5 162 c 128,-1,56
 59 176 59 176 76 219 c 0,57,58
 93 263 93 263 122 343 c 0,59,60
 198 553 198 553 220 599 c 0,0,1
EndSplineSet
Validated: 1
EndChar

StartChar: five
Encoding: 53 53 83
Width: 506
VWidth: 1236
Flags: MW
LayerCount: 2
Fore
SplineSet
99 405 m 0,0,1
 95 505 95 505 95 560.5 c 128,-1,2
 95 616 95 616 109.5 637 c 128,-1,3
 124 658 124 658 163.5 660 c 128,-1,4
 203 662 203 662 264 664 c 0,5,6
 447 663 447 663 447 604 c 0,7,8
 447 588 447 588 433.5 574 c 128,-1,9
 420 560 420 560 403.5 560 c 128,-1,10
 387 560 387 560 344.5 570 c 128,-1,11
 302 580 302 580 272 580 c 128,-1,12
 242 580 242 580 232 578 c 1,13,-1
 176 573 l 1,14,-1
 176 520 l 2,15,16
 176 390 176 390 199 388 c 0,17,18
 216 387 216 387 250 368.5 c 128,-1,19
 284 350 284 350 307 330 c 0,20,21
 364 278 364 278 385 230.5 c 128,-1,22
 406 183 406 183 409.5 162.5 c 144,-1,23
 413 142 413 142 413 123.5 c 128,-1,24
 413 105 413 105 409 91 c 8,25,26
 395 38 395 38 368 6 c 25,27,-1
 300 -33 l 2,28,29
 275 -44 275 -44 181 -44 c 128,-1,30
 87 -44 87 -44 72.5 -30 c 128,-1,31
 58 -16 58 -16 58 0.5 c 128,-1,32
 58 17 58 17 71 32 c 0,33,34
 83 43 83 43 92 43 c 2,35,-1
 104 43 l 1,36,37
 135 39 135 39 139 39 c 128,-1,38
 143 39 143 39 149 37 c 1,39,-1
 159 37 l 2,40,41
 270 37 270 37 316 72 c 0,42,43
 334 84 334 84 334 112 c 0,44,45
 334 161 334 161 298 230 c 0,46,47
 287 249 287 249 241 272 c 0,48,49
 197 296 197 296 172 302 c 0,50,51
 140 312 140 312 117 330 c 0,52,53
 106 337 106 337 104 358.5 c 128,-1,54
 102 380 102 380 99 405 c 0,0,1
EndSplineSet
Validated: 1
EndChar

StartChar: six
Encoding: 54 54 84
Width: 562
VWidth: 1244
Flags: MW
LayerCount: 2
Fore
SplineSet
388 249 m 1,0,1
 362 298 362 298 268 302 c 0,2,3
 236 302 236 302 204 292 c 0,4,5
 180 281 180 281 174.5 274 c 128,-1,6
 169 267 169 267 163.5 246 c 128,-1,7
 158 225 158 225 158 211 c 2,8,-1
 158 193 l 2,9,10
 158 134 158 134 188 96 c 0,11,12
 223 49 223 49 282 49 c 0,13,14
 283 49 283 49 284 49 c 0,15,16
 305 49 305 49 346 72 c 0,17,18
 388 94 388 94 398 104 c 0,19,20
 411 116 411 116 413 144 c 0,21,22
 413 191 413 191 388 249 c 1,0,1
265 590 m 0,23,24
 309 624 309 624 334 625 c 0,25,26
 352 624 352 624 364 612 c 128,-1,27
 376 600 376 600 376 587 c 0,28,29
 376 567 376 567 348 546 c 0,30,31
 314 520 314 520 271 475 c 128,-1,32
 228 430 228 430 222 412 c 2,33,-1
 214 391 l 1,34,-1
 287 385 l 2,35,36
 372 379 372 379 408.5 359.5 c 128,-1,37
 445 340 445 340 470.5 282 c 128,-1,38
 496 224 496 224 497 140 c 1,39,-1
 497 130 l 2,40,41
 497 102 497 102 493 92 c 0,42,43
 489 74 489 74 465.5 47.5 c 128,-1,44
 442 21 442 21 429 15 c 128,-1,45
 416 9 416 9 406.5 3.5 c 128,-1,46
 397 -2 397 -2 384.5 -9 c 128,-1,47
 372 -16 372 -16 351 -27 c 128,-1,48
 330 -38 330 -38 317 -38 c 2,49,-1
 302 -38 l 2,50,51
 222 -38 222 -38 190 -22 c 0,52,53
 174 -13 174 -13 142.5 18.5 c 128,-1,54
 111 50 111 50 91.5 79.5 c 128,-1,55
 72 109 72 109 71 180 c 0,56,57
 71 310 71 310 130 427 c 0,58,59
 174 515 174 515 265 590 c 0,23,24
EndSplineSet
Validated: 1
EndChar

StartChar: seven
Encoding: 55 55 85
Width: 570
VWidth: 1247
Flags: MW
LayerCount: 2
Fore
SplineSet
56 563 m 0,0,1
 56 606 56 606 117 606 c 2,2,3
 122 606 l 2,4,5
 144 606 144 606 197.5 598.5 c 128,-1,6
 251 591 251 591 263 591 c 2,7,-1
 279 591 l 2,8,9
 311 591 311 591 356 598.5 c 128,-1,10
 401 606 401 606 429 606 c 2,11,-1
 461 606 l 2,12,13
 490 606 490 606 500.5 595 c 128,-1,14
 511 584 511 584 513 565 c 2,15,-1
 513 564 l 2,16,17
 513 539 513 539 450 446 c 0,18,19
 431 420 431 420 410 373 c 1,20,-1
 387 325 l 1,21,-1
 415 325 l 2,22,23
 439 325 439 325 453 312.5 c 128,-1,24
 467 300 467 300 467 285 c 128,-1,25
 467 270 467 270 454.5 255.5 c 128,-1,26
 442 241 442 241 400 241 c 2,27,-1
 357 241 l 1,28,-1
 331 156 l 2,29,30
 309 84 309 84 301.5 43.5 c 128,-1,31
 294 3 294 3 279.5 -16 c 128,-1,32
 265 -35 265 -35 249 -35 c 0,33,34
 216 -35 216 -35 209 8 c 1,35,-1
 209 11 l 2,36,37
 209 22 209 22 215 66.5 c 128,-1,38
 221 111 221 111 240 168 c 1,39,-1
 258 226 l 1,40,-1
 235 220 l 1,41,-1
 232 220 l 2,42,43
 230 219 230 219 228 219 c 0,44,45
 203 228 203 228 194.5 236 c 128,-1,46
 186 244 186 244 186 264 c 128,-1,47
 186 284 186 284 198.5 296.5 c 128,-1,48
 211 309 211 309 250 315 c 1,49,-1
 286 318 l 1,50,-1
 315 384 l 1,51,52
 348 454 348 454 364.5 475.5 c 128,-1,53
 381 497 381 497 381 503 c 2,54,-1
 381 504 l 2,55,56
 381 510 381 510 364 509 c 2,57,-1
 268 505 l 1,58,59
 231 505 231 505 182.5 513 c 128,-1,60
 134 521 134 521 115 521 c 2,61,-1
 110 521 l 2,62,63
 106 520 106 520 104 519 c 1,64,-1
 98 519 l 2,65,66
 80 519 80 519 69 532 c 0,67,68
 56 545 56 545 56 563 c 0,0,1
EndSplineSet
Validated: 1
EndChar

StartChar: eight
Encoding: 56 56 86
Width: 584
VWidth: 1234
Flags: MW
LayerCount: 2
Fore
SplineSet
247 35 m 0,0,1
 248 35 248 35 249 35 c 0,2,3
 278 35 278 35 341 60.5 c 128,-1,4
 404 86 404 86 422 109 c 0,5,6
 433 121 433 121 431 126 c 0,7,8
 431 127 431 127 431 128 c 0,9,10
 431 154 431 154 351 218 c 0,11,12
 284 274 284 274 273 274 c 128,-1,13
 262 274 262 274 240 248 c 0,14,15
 196 201 196 201 196 147 c 0,16,17
 196 102 196 102 216.5 68.5 c 128,-1,18
 237 35 237 35 247 35 c 0,0,1
317 591 m 0,19,20
 313 592 313 592 299 593.5 c 128,-1,21
 285 595 285 595 282 598 c 1,22,-1
 275 598 l 2,23,24
 235 598 235 598 190 559 c 0,25,26
 176 546 176 546 163 520.5 c 128,-1,27
 150 495 150 495 150 477 c 128,-1,28
 150 459 150 459 164 430 c 128,-1,29
 178 401 178 401 192.5 393.5 c 128,-1,30
 207 386 207 386 241 386 c 128,-1,31
 275 386 275 386 285 397 c 0,32,33
 295 407 295 407 302 407 c 128,-1,34
 309 407 309 407 347 433 c 0,35,36
 400 468 400 468 400 510 c 0,37,38
 400 522 400 522 368 553.5 c 128,-1,39
 336 585 336 585 317 591 c 0,19,20
112 129 m 2,40,-1
 111 158 l 1,41,42
 111 242 111 242 152 281 c 1,43,-1
 170 297 l 1,44,-1
 133 330 l 1,45,46
 93 364 93 364 79.5 395.5 c 128,-1,47
 66 427 66 427 66 482 c 128,-1,48
 66 537 66 537 85 568 c 0,49,50
 98 592 98 592 140 628.5 c 128,-1,51
 182 665 182 665 210 677 c 0,52,53
 222 682 222 682 278 682 c 0,54,55
 280 682 280 682 283 682 c 0,56,57
 336 682 336 682 364 671 c 0,58,59
 394 660 394 660 413.5 646 c 128,-1,60
 433 632 433 632 433 622.5 c 128,-1,61
 433 613 433 613 456 591.5 c 128,-1,62
 479 570 479 570 482.5 559 c 128,-1,63
 486 548 486 548 486 507 c 128,-1,64
 486 466 486 466 476 444.5 c 128,-1,65
 466 423 466 423 438.5 396 c 128,-1,66
 411 369 411 369 383 350 c 0,67,68
 358 336 358 336 358 331 c 0,69,70
 358 330 358 330 416 278 c 0,71,72
 522 188 522 188 522 124 c 0,73,74
 522 77 522 77 469 31 c 0,75,76
 370 -49 370 -49 253 -49 c 2,77,-1
 250 -49 l 2,78,79
 218 -49 218 -49 207.5 -45.5 c 128,-1,80
 197 -42 197 -42 166.5 -9.5 c 128,-1,81
 136 23 136 23 124.5 47.5 c 128,-1,82
 113 72 113 72 112 129 c 2,40,-1
EndSplineSet
Validated: 1
EndChar

StartChar: nine
Encoding: 57 57 87
Width: 543
VWidth: 1237
Flags: MW
LayerCount: 2
Fore
SplineSet
366 439 m 0,0,1
 371 460 371 460 371 476.5 c 128,-1,2
 371 493 371 493 364.5 511 c 128,-1,3
 358 529 358 529 358 543 c 0,4,5
 357 558 357 558 335 566 c 0,6,7
 314 574 314 574 304 574 c 0,8,-1
 303 574 l 0,9,10
 293 574 293 574 255.5 553 c 128,-1,11
 218 532 218 532 206 517 c 128,-1,12
 194 502 194 502 194 480.5 c 128,-1,13
 194 459 194 459 195 450 c 0,14,15
 201 373 201 373 274 368 c 1,16,-1
 288 368 l 2,17,18
 352 368 352 368 366 439 c 0,0,1
113 432 m 2,19,-1
 114 481 l 1,20,21
 116 528 116 528 118.5 543 c 128,-1,22
 121 558 121 558 138.5 581 c 128,-1,23
 156 604 156 604 207 629.5 c 128,-1,24
 258 655 258 655 304 657 c 0,25,26
 312 657 312 657 321 657 c 0,27,28
 364 657 364 657 390.5 642.5 c 128,-1,29
 417 628 417 628 417.5 603.5 c 128,-1,30
 418 579 418 579 433.5 564.5 c 128,-1,31
 449 550 449 550 455 524.5 c 128,-1,32
 461 499 461 499 462 443 c 0,33,34
 461 346 461 346 451.5 221.5 c 128,-1,35
 442 97 442 97 431.5 76.5 c 128,-1,36
 421 56 421 56 397 29.5 c 128,-1,37
 373 3 373 3 356.5 -6 c 128,-1,38
 340 -15 340 -15 283 -27 c 128,-1,39
 226 -39 226 -39 200 -39 c 0,40,41
 158 -39 158 -39 112.5 -2.5 c 128,-1,42
 67 34 67 34 61 71 c 1,43,-1
 61 80 l 2,44,45
 61 100 61 100 71 112 c 128,-1,46
 81 124 81 124 90 124 c 2,47,-1
 102 124 l 2,48,49
 122 124 122 124 137.5 99.5 c 128,-1,50
 153 75 153 75 181 63 c 0,51,52
 201 52 201 52 209.5 52 c 128,-1,53
 218 52 218 52 227 52 c 0,54,55
 228 52 228 52 228 51 c 0,56,57
 237 51 237 51 258 58 c 0,58,59
 318 70 318 70 337 94.5 c 128,-1,60
 356 119 356 119 365.5 191 c 128,-1,61
 375 263 375 263 375.5 278 c 128,-1,62
 376 293 376 293 369 294 c 1,63,-1
 360 290 l 1,64,65
 349 283 349 283 323 283 c 2,66,-1
 291 283 l 2,67,68
 221 283 221 283 201.5 294.5 c 128,-1,69
 182 306 182 306 150.5 339.5 c 128,-1,70
 119 373 119 373 116 387.5 c 128,-1,71
 113 402 113 402 113 432 c 2,19,-1
EndSplineSet
Validated: 1
EndChar

StartChar: at
Encoding: 64 64 88
Width: 740
VWidth: 1244
Flags: MW
LayerCount: 2
Fore
SplineSet
359 193 m 0,0,1
 361 193 361 193 364 193 c 0,2,3
 401 193 401 193 417.5 207.5 c 128,-1,4
 434 222 434 222 434 263 c 0,5,6
 434 337 434 337 408 354 c 0,7,8
 394 365 394 365 386 365 c 2,9,-1
 376 365 l 2,10,11
 359 365 359 365 337 350 c 0,12,13
 290 319 290 319 290 254 c 0,14,15
 290 236 290 236 312.5 215 c 128,-1,16
 335 194 335 194 359 193 c 0,0,1
374 48 m 1,17,-1
 416 50 l 2,18,19
 434 50 434 50 446 41 c 0,20,21
 459 28 459 28 459 10 c 128,-1,22
 459 -8 459 -8 442 -23 c 0,23,24
 426 -38 426 -38 396 -38 c 0,25,26
 229 -38 229 -38 162 19 c 0,27,28
 71 97 71 97 71 271 c 2,29,-1
 71 298 l 2,30,31
 71 320 71 320 78 364 c 0,32,33
 89 437 89 437 138 511 c 0,34,35
 187 588 187 588 238 609 c 0,36,37
 260 618 260 618 346 621 c 0,38,39
 430 621 430 621 477.5 602.5 c 128,-1,40
 525 584 525 584 568.5 555.5 c 128,-1,41
 612 527 612 527 626 503 c 0,42,43
 652 462 652 462 660 434 c 0,44,45
 668 404 668 404 668 380 c 2,46,-1
 668 337 l 2,47,48
 668 296 668 296 667 272 c 2,49,-1
 666 141 l 1,50,-1
 639 115 l 2,51,52
 620 96 620 96 607 90 c 0,53,54
 589 82 589 82 540 82 c 0,55,56
 535 82 535 82 529 82 c 0,57,58
 504 82 504 82 482.5 101 c 128,-1,59
 461 120 461 120 451 120 c 2,60,-1
 450 120 l 2,61,62
 447 120 447 120 441.5 116.5 c 128,-1,63
 436 113 436 113 410 113 c 2,64,-1
 376 113 l 2,65,66
 303 113 303 113 288.5 120 c 128,-1,67
 274 127 274 127 245 162.5 c 128,-1,68
 216 198 216 198 210.5 210 c 128,-1,69
 205 222 205 222 205 267 c 128,-1,70
 205 312 205 312 217.5 341 c 128,-1,71
 230 370 230 370 264 403 c 0,72,73
 318 455 318 455 374 455 c 0,74,75
 375 455 375 455 382 455 c 128,-1,76
 389 455 389 455 397 453 c 1,77,-1
 414 452 l 1,78,79
 432 452 432 452 444.5 465 c 128,-1,80
 457 478 457 478 472 478 c 128,-1,81
 487 478 487 478 501 464 c 0,82,83
 514 449 514 449 519 338.5 c 128,-1,84
 524 228 524 228 530.5 197.5 c 128,-1,85
 537 167 537 167 553 167 c 2,86,-1
 555 167 l 2,87,88
 556 167 556 167 560 169 c 0,89,90
 575 171 575 171 581.5 196.5 c 128,-1,91
 588 222 588 222 588 295 c 128,-1,92
 588 368 588 368 570 412 c 0,93,94
 557 450 557 450 536 470 c 0,95,96
 515 488 515 488 467 510 c 128,-1,97
 419 532 419 532 350 535 c 0,98,99
 282 535 282 535 256 517 c 128,-1,100
 230 499 230 499 198 436 c 0,101,102
 156 349 156 349 156 274.5 c 128,-1,103
 156 200 156 200 191 126 c 0,104,105
 204 100 204 100 213.5 89.5 c 128,-1,106
 223 79 223 79 243 72 c 0,107,108
 298 48 298 48 374 48 c 1,17,-1
EndSplineSet
Validated: 1
EndChar

StartChar: quoteright
Encoding: 257 8217 89
Width: 316
VWidth: 1090
Flags: MW
LayerCount: 2
Fore
SplineSet
118 683 m 0,0,1
 132 706 132 706 153.5 718.5 c 128,-1,2
 175 731 175 731 185 731 c 2,3,-1
 197 731 l 2,4,5
 218 731 218 731 234 704 c 0,6,7
 241 688 241 688 241 678 c 0,8,9
 241 673 241 673 239 670 c 0,10,11
 231 643 231 643 196 596 c 0,12,13
 157 539 157 539 111 539 c 2,14,-1
 107 539 l 2,15,16
 85 539 85 539 83 555 c 1,17,-1
 83 559 l 2,18,19
 83 572 83 572 97 594 c 0,20,21
 112 617 112 617 112 631 c 0,22,23
 112 638 112 638 109 643 c 0,24,25
 107 649 107 649 107 658.5 c 128,-1,26
 107 668 107 668 118 683 c 0,0,1
EndSplineSet
Validated: 1
EndChar

StartChar: quoteleft
Encoding: 258 8216 90
Width: 315
VWidth: 1089
Flags: MW
LayerCount: 2
Fore
SplineSet
158 720 m 1,0,1
 181 733 181 733 189 733 c 2,2,3
 200 733 l 1,4,5
 226 731 226 731 235 704 c 0,6,7
 239 691 239 691 239 683 c 0,8,9
 239 663 239 663 224 639 c 128,-1,10
 209 615 209 615 197 596 c 0,11,12
 162 542 162 542 112 539 c 2,13,-1
 111 539 l 2,14,15
 90 539 90 539 84 569 c 0,16,17
 83 575 83 575 83 579 c 0,18,19
 83 600 83 600 101.5 610.5 c 128,-1,20
 120 621 120 621 124 656 c 0,21,22
 131 696 131 696 134 696 c 1,23,-1
 158 720 l 1,0,1
EndSplineSet
Validated: 1
EndChar

StartChar: quotedblleft
Encoding: 259 8220 91
Width: 427
VWidth: 1093
Flags: MW
LayerCount: 2
Fore
SplineSet
244 643 m 0,0,1
 244 676 244 676 275 714 c 0,2,3
 288 728 288 728 301 729 c 0,4,5
 327 729 327 729 340 708 c 0,6,7
 349 696 349 696 350 673 c 0,8,9
 349 652 349 652 344.5 634 c 128,-1,10
 340 616 340 616 338.5 608.5 c 128,-1,11
 337 601 337 601 335 593 c 0,12,13
 329 561 329 561 309.5 544 c 128,-1,14
 290 527 290 527 268 527 c 128,-1,15
 246 527 246 527 244 543 c 2,16,-1
 241 588 l 1,17,18
 246 606 246 606 246 620 c 0,19,20
 246 628 246 628 244 635 c 0,21,22
 244 639 244 639 244 643 c 0,0,1
98 668 m 1,23,24
 109 701 109 701 123.5 713.5 c 128,-1,25
 138 726 138 726 158 726 c 2,26,-1
 162 726 l 2,27,28
 184 726 184 726 195 714 c 0,29,30
 202 705 202 705 202 696 c 128,-1,31
 202 687 202 687 189.5 632 c 128,-1,32
 177 577 177 577 160 553 c 0,33,34
 147 529 147 529 130 528 c 2,35,-1
 129 528 l 2,36,37
 83 528 83 528 83 562 c 0,38,39
 83 570 83 570 85 581 c 0,40,41
 98 627 98 627 98 639 c 2,42,-1
 98 668 l 1,23,24
EndSplineSet
Validated: 1
EndChar

StartChar: quotedblright
Encoding: 260 8221 92
Width: 436
VWidth: 1089
Flags: MW
LayerCount: 2
Fore
SplineSet
113 535 m 0,0,1
 112 535 112 535 111 535 c 0,2,3
 87 535 87 535 87 566 c 0,4,5
 87 576 87 576 93.5 592 c 128,-1,6
 100 608 100 608 100 620 c 2,7,-1
 100 638 l 2,8,9
 100 644 100 644 99.5 651.5 c 128,-1,10
 99 659 99 659 99 671 c 128,-1,11
 99 683 99 683 105 695 c 128,-1,12
 111 707 111 707 131 721.5 c 128,-1,13
 151 736 151 736 172 738 c 4,14,15
 197 738 197 738 206 719 c 128,-1,16
 215 700 215 700 215 679 c 128,-1,17
 215 658 215 658 201 632 c 0,18,19
 199 625 199 625 195 615.5 c 128,-1,20
 191 606 191 606 190 601 c 0,21,22
 176 567 176 567 154 553 c 0,23,24
 131 535 131 535 113 535 c 0,0,1
285 734 m 0,25,26
 304 748 304 748 326 748 c 128,-1,27
 348 748 348 748 357 736.5 c 128,-1,28
 366 725 366 725 358 708 c 0,29,30
 323 629 323 629 323 626 c 0,31,32
 309 560 309 560 309 557 c 0,33,34
 291 534 291 534 262 533 c 0,35,36
 261 533 261 533 260 533 c 0,37,38
 240 534 240 534 234 557 c 0,39,40
 232 576 232 576 232 592 c 0,41,42
 232 625 232 625 253 689 c 0,43,44
 260 713 260 713 285 734 c 0,25,26
EndSplineSet
Validated: 1
EndChar

StartChar: quotesinglbase
Encoding: 261 8218 93
Width: 267
VWidth: 1332
Flags: MW
LayerCount: 2
Fore
SplineSet
97 111 m 1,0,-1
 97 121 l 2,1,2
 97 129 97 129 95 140.5 c 128,-1,3
 93 152 93 152 93 155 c 0,4,5
 93 168 93 168 108 183 c 128,-1,6
 123 198 123 198 143 199 c 0,7,8
 151 199 151 199 167.5 186 c 128,-1,9
 184 173 184 173 184 156 c 128,-1,10
 184 139 184 139 178 117.5 c 128,-1,11
 172 96 172 96 165 70 c 0,12,13
 143 14 143 14 131.5 12 c 128,-1,14
 120 10 120 10 111 14 c 0,15,16
 92 26 92 26 92 46 c 0,17,18
 98 81 98 81 98 93 c 2,19,-1
 97 111 l 1,0,-1
EndSplineSet
Validated: 1
EndChar

StartChar: ellipsis
Encoding: 262 8230 94
Width: 555
VWidth: 1333
Flags: MW
LayerCount: 2
Fore
SplineSet
393 64 m 0,0,1
 380 77 380 77 379 93 c 0,2,3
 379 110 379 110 393 126 c 0,4,5
 406 140 406 140 424 141 c 0,6,7
 425 140 l 0,8,9
 444 140 444 140 457 128 c 128,-1,10
 470 116 470 116 470 98 c 128,-1,11
 470 80 470 80 455.5 65 c 128,-1,12
 441 50 441 50 424 50 c 128,-1,13
 407 50 407 50 393 64 c 0,0,1
233 95.5 m 132,-1,15
 233 113 233 113 246 127.5 c 132,-1,16
 259 142 259 142 277.5 142 c 132,-1,17
 296 142 296 142 311 130 c 4,18,19
 324 117 324 117 324 98.5 c 132,-1,20
 324 80 324 80 309.5 65.5 c 132,-1,21
 295 51 295 51 277 51 c 132,-1,22
 259 51 259 51 246 64.5 c 132,-1,14
 233 78 233 78 233 95.5 c 132,-1,15
89 94.5 m 128,-1,24
 89 112 89 112 102 126.5 c 128,-1,25
 115 141 115 141 134 141 c 128,-1,26
 153 141 153 141 166.5 128.5 c 128,-1,27
 180 116 180 116 180 97.5 c 128,-1,28
 180 79 180 79 165.5 64.5 c 128,-1,29
 151 50 151 50 133 50 c 128,-1,30
 115 50 115 50 102 63.5 c 128,-1,23
 89 77 89 77 89 94.5 c 128,-1,24
EndSplineSet
Validated: 1
EndChar

StartChar: quotedblbase
Encoding: 263 8222 95
Width: 439
VWidth: 1281
Flags: MW
LayerCount: 2
Fore
SplineSet
191 24 m 0,0,1
 191 -7 191 -7 159 -46 c 0,2,3
 146 -60 146 -60 126.5 -60 c 128,-1,4
 107 -60 107 -60 94 -40 c 0,5,6
 85 -28 85 -28 85 -6 c 128,-1,7
 85 16 85 16 89 34 c 0,8,9
 97 67 97 67 99 75 c 0,10,11
 105 107 105 107 125 124 c 0,12,13
 145 142 145 142 167 142 c 0,14,-1
 168 142 l 0,15,16
 189 142 189 142 191 125 c 2,17,-1
 193 80 l 1,18,19
 189 65 189 65 189 52.5 c 128,-1,20
 189 40 189 40 190 34 c 128,-1,21
 191 28 191 28 191 24 c 0,0,1
335 0 m 1,22,23
 319 -59 319 -59 272 -59 c 0,24,25
 250 -59 250 -59 239 -46 c 0,26,27
 232 -37 232 -37 232 -28 c 128,-1,28
 232 -19 232 -19 245 36 c 128,-1,29
 258 91 258 91 275 115 c 0,30,31
 288 139 288 139 304 140 c 2,32,-1
 305 140 l 2,33,34
 351 140 351 140 351 106 c 0,35,36
 351 98 351 98 349 87 c 0,37,38
 335 37 335 37 335 23 c 2,39,-1
 335 0 l 1,22,23
EndSplineSet
Validated: 1
EndChar

StartChar: uni00B2
Encoding: 178 178 96
Width: 295
VWidth: 1157
Flags: MW
LayerCount: 2
Fore
SplineSet
204 470 m 1,0,-1
 167 474 l 2,1,2
 163 474 163 474 147 473 c 0,3,4
 128 473 128 473 102.5 473 c 128,-1,5
 77 473 77 473 77 483 c 0,6,7
 77 494 77 494 101 510 c 1,8,-1
 116 526 l 1,9,-1
 138 546 l 2,10,11
 149 555 149 555 160 568 c 128,-1,12
 171 581 171 581 177 588 c 0,13,14
 188 600 188 600 188 619 c 0,15,16
 188 640 188 640 174 646 c 0,17,18
 161 652 l 1,19,-1
 158 652 l 2,20,21
 144 652 144 652 124.5 644 c 128,-1,22
 105 636 105 636 101 628 c 0,23,24
 95 621 95 621 90 621 c 0,25,26
 77 621 77 621 77 632 c 0,27,28
 77 639 77 639 88 649 c 0,29,30
 112 676 112 676 147 677 c 0,31,32
 159 677 159 677 158 678 c 1,33,-1
 165 678 l 2,34,35
 174 678 174 678 178.5 675.5 c 128,-1,36
 183 673 183 673 194.5 661.5 c 128,-1,37
 206 650 206 650 208 646 c 0,38,39
 214 627 214 627 213.5 624 c 128,-1,40
 213 621 213 621 214 616 c 0,41,42
 214 588 214 588 185 554 c 0,43,44
 178 546 178 546 145 510 c 1,45,-1
 134 497 l 1,46,-1
 157 499 l 1,47,-1
 169 499 l 2,48,49
 191 499 191 499 205.5 494 c 128,-1,50
 220 489 220 489 220 482 c 0,51,52
 220 470 220 470 204 470 c 1,0,-1
EndSplineSet
Validated: 1
EndChar

StartChar: dieresis
Encoding: 168 168 97
Width: 555
VWidth: 1267
Flags: MW
LayerCount: 2
Fore
SplineSet
102.5 604 m 128,-1,1
 89 617 89 617 89 635 c 128,-1,2
 89 653 89 653 104.5 667.5 c 128,-1,3
 120 682 120 682 138 682 c 128,-1,4
 156 682 156 682 168.5 668.5 c 128,-1,5
 181 655 181 655 181 636 c 128,-1,6
 181 617 181 617 166.5 604 c 128,-1,7
 152 591 152 591 134 591 c 128,-1,0
 116 591 116 591 102.5 604 c 128,-1,1
457 603 m 128,-1,9
 444 590 444 590 422 590 c 0,10,11
 402 590 402 590 385 603 c 0,12,13
 369 616 369 616 369 635.5 c 128,-1,14
 369 655 369 655 385.5 667.5 c 128,-1,15
 402 680 402 680 423 680 c 128,-1,16
 444 680 444 680 457 666 c 128,-1,17
 470 652 470 652 470 640 c 0,18,-1
 470 632 l 0,19,8
 470 616 470 616 457 603 c 128,-1,9
EndSplineSet
Validated: 1
EndChar

StartChar: backslash
Encoding: 92 92 98
Width: 432
VWidth: 1236
Flags: MW
LayerCount: 2
Fore
SplineSet
284 291 m 4,0,1
 314 207 314 207 343 138 c 4,2,3
 373 67 373 67 373 27 c 0,4,5
 373 -2 373 -2 357 -16 c 4,6,7
 344 -29 344 -29 322 -30 c 5,8,-1
 319 -30 l 2,9,10
 301 -30 301 -30 290 -19 c 4,11,12
 281 -6 281 -6 275.5 22.5 c 132,-1,13
 270 51 270 51 245.5 110 c 132,-1,14
 221 169 221 169 196 237.5 c 132,-1,15
 171 306 171 306 122 427 c 132,-1,16
 73 548 73 548 65.5 576.5 c 132,-1,17
 58 605 58 605 58 621.5 c 128,-1,18
 58 638 58 638 69 649.5 c 132,-1,19
 80 661 80 661 96 661 c 2,20,-1
 101 661 l 5,21,22
 120 659 120 659 135 644 c 5,23,-1
 143 637 l 5,24,25
 172 597 172 597 284 291 c 4,0,1
EndSplineSet
Validated: 1
EndChar

StartChar: endash
Encoding: 264 8211 99
Width: 589
VWidth: 1116
Flags: W
LayerCount: 2
Fore
SplineSet
105 249.5 m 128,-1,1
 82 256 82 256 82 275.5 c 128,-1,2
 82 295 82 295 95 309 c 128,-1,3
 108 323 108 323 118.5 326 c 128,-1,4
 129 329 129 329 164 329 c 128,-1,5
 199 329 199 329 242.5 327.5 c 128,-1,6
 286 326 286 326 383 315.5 c 132,-1,7
 480 305 480 305 493.5 294 c 132,-1,8
 507 283 507 283 507 265 c 132,-1,9
 507 247 507 247 493.5 236 c 132,-1,10
 480 225 480 225 451 225 c 132,-1,11
 422 225 422 225 347.5 233 c 132,-1,12
 273 241 273 241 200.5 242 c 128,-1,0
 128 243 128 243 105 249.5 c 128,-1,1
EndSplineSet
Validated: 1
EndChar

StartChar: emdash
Encoding: 265 8212 100
Width: 710
VWidth: 1116
Flags: W
LayerCount: 2
Fore
SplineSet
105 250 m 4,0,1
 82 256 82 256 82 275 c 0,2,3
 82 295 82 295 96 309 c 4,4,5
 108 323 108 323 118.5 326 c 132,-1,6
 129 329 129 329 171.5 329 c 132,-1,7
 214 329 214 329 299 327.5 c 132,-1,8
 384 326 384 326 491.5 315.5 c 132,-1,9
 599 305 599 305 613.5 294 c 132,-1,10
 628 283 628 283 628 265 c 132,-1,11
 628 247 628 247 614.5 236 c 132,-1,12
 601 225 601 225 576.5 225 c 132,-1,13
 552 225 552 225 445 233 c 132,-1,14
 338 241 338 241 233 242.5 c 132,-1,15
 128 244 128 244 105 250 c 4,0,1
EndSplineSet
Validated: 1
EndChar

StartChar: uni00B3
Encoding: 179 179 101
Width: 281
VWidth: 1225
Flags: MW
LayerCount: 2
Fore
SplineSet
178 607 m 5,0,1
 180 617 180 617 180 618 c 6,2,-1
 180 620 l 6,3,4
 180 626 180 626 174 638.5 c 132,-1,5
 168 651 168 651 161 656 c 132,-1,6
 154 661 154 661 139 662 c 5,7,-1
 136 662 l 5,8,9
 134 663 134 663 133 663 c 4,10,11
 122 663 122 663 105.5 657.5 c 132,-1,12
 89 652 89 652 85 652 c 132,-1,13
 81 652 81 652 77 656 c 132,-1,14
 73 660 73 660 73 664 c 4,15,16
 73 675 73 675 97 683 c 4,17,18
 111 688 111 688 135 688 c 132,-1,19
 159 688 159 688 165.5 685 c 132,-1,20
 172 682 172 682 183 671 c 4,21,22
 194 659 194 659 200 648 c 4,23,24
 206 636 206 636 206 616 c 4,25,26
 206 597 206 597 197 581 c 4,27,28
 195 577 195 577 189 573 c 6,29,-1
 183 569 l 5,30,-1
 190 561 l 5,31,32
 197 554 197 554 199 544 c 132,-1,33
 201 534 201 534 202 518 c 5,34,-1
 202 496 l 5,35,-1
 192 486 l 5,36,37
 178 470 178 470 163.5 465.5 c 132,-1,38
 149 461 149 461 112 458 c 4,39,40
 103 457 103 457 92 457.5 c 132,-1,41
 81 458 81 458 77 462 c 4,42,43
 71 468 71 468 71 473.5 c 132,-1,44
 71 479 71 479 77 481 c 132,-1,45
 83 483 83 483 103 484 c 4,46,47
 160 485 160 485 173 504 c 4,48,49
 176 508 176 508 176 518 c 6,50,-1
 176 520 l 6,51,52
 176 536 176 536 169.5 547 c 132,-1,53
 163 558 163 558 152 559 c 5,54,-1
 148 559 l 6,55,56
 140 559 140 559 136 562 c 132,-1,57
 132 565 132 565 132 571 c 4,58,59
 132 583 132 583 158 590 c 5,60,-1
 176 595 l 5,61,-1
 178 607 l 5,0,1
EndSplineSet
Validated: 1
EndChar

StartChar: uni00B9
Encoding: 185 185 102
Width: 250
VWidth: 1238
Flags: W
LayerCount: 2
Fore
SplineSet
87 625 m 4,0,1
 97 633 97 633 113.5 645.5 c 132,-1,2
 130 658 130 658 142 670 c 132,-1,3
 154 682 154 682 161 682 c 132,-1,4
 168 682 168 682 171.5 678.5 c 132,-1,5
 175 675 175 675 175 670 c 6,6,7
 175 668 l 6,8,9
 175 667 l 4,10,11
 167 634 167 634 158 536 c 4,12,13
 157 523 157 523 157 501.5 c 132,-1,14
 157 480 157 480 154 476 c 132,-1,15
 151 472 151 472 146 472 c 132,-1,16
 141 472 141 472 137 475.5 c 132,-1,17
 133 479 133 479 133 492 c 6,18,-1
 133 494 l 5,19,20
 133 504 133 504 135.5 556.5 c 132,-1,21
 138 609 138 609 141 624 c 5,22,-1
 142 633 l 5,23,-1
 128 624 l 5,24,25
 115 614 115 614 102 604 c 132,-1,26
 89 594 89 594 83 593 c 6,27,-1
 82 593 l 6,28,29
 78 593 78 593 74 596.5 c 132,-1,30
 70 600 70 600 70 604 c 4,31,32
 70 610 70 610 87 625 c 4,0,1
EndSplineSet
Validated: 1
EndChar

StartChar: uni25ec
Encoding: 266 9708 103
Width: 884
VWidth: 1111
Flags: MW
LayerCount: 2
Fore
SplineSet
441.5 282 m 128,-1,1
 422 282 422 282 376 293 c 128,-1,2
 330 304 330 304 312 318 c 2,3,-1
 290 334 l 1,4,-1
 231 244 l 1,5,6
 118 68 118 68 118 35 c 1,7,-1
 119 32 l 1,8,9
 125 26 125 26 441.5 26 c 128,-1,10
 758 26 758 26 763 32 c 0,11,12
 764 33 764 33 764 35 c 0,13,14
 764 69 764 69 651 244 c 1,15,-1
 592 334 l 1,16,-1
 570 318 l 2,17,18
 552 304 552 304 506.5 293 c 128,-1,0
 461 282 461 282 441.5 282 c 128,-1,1
475 329 m 0,19,20
 477 329 477 329 508.5 337 c 128,-1,21
 540 345 540 345 540 351 c 128,-1,22
 540 357 540 357 482 382 c 0,23,24
 478 383 478 383 474 383 c 0,25,26
 467 383 467 383 467 367 c 2,27,-1
 467 355 l 1,28,29
 468 328 468 328 475 329 c 0,19,20
406 329 m 2,30,31
 407 329 l 2,32,33
 414 330 414 330 415 346 c 0,34,35
 417 362 417 362 417 374 c 128,-1,36
 417 386 417 386 412 387 c 0,37,38
 405 386 405 386 373.5 370.5 c 128,-1,39
 342 355 342 355 342 353 c 0,40,41
 342 345 342 345 373.5 337 c 128,-1,42
 405 329 405 329 406 329 c 2,30,31
545 406 m 0,43,44
 545 411 545 411 496.5 485.5 c 128,-1,45
 448 560 448 560 442 560 c 0,46,47
 435 560 435 560 387 488 c 128,-1,48
 339 416 339 416 339 406 c 0,49,50
 339 405 339 405 341.5 405 c 128,-1,51
 344 405 344 405 365 414 c 128,-1,52
 386 423 386 423 441.5 423 c 128,-1,53
 497 423 497 423 518 414 c 128,-1,54
 539 405 539 405 541.5 405 c 128,-1,55
 544 405 544 405 545 406 c 0,43,44
387 584 m 0,56,57
 422 627 422 627 441 628 c 2,58,-1
 442 628 l 2,59,60
 461 628 461 628 492 590 c 128,-1,61
 523 552 523 552 579 460.5 c 128,-1,62
 635 369 635 369 685.5 295.5 c 128,-1,63
 736 222 736 222 781.5 136 c 128,-1,64
 827 50 827 50 827 20 c 2,65,-1
 827 13 l 2,66,67
 827 -15 827 -15 782.5 -20.5 c 128,-1,68
 738 -26 738 -26 495 -26 c 2,69,-1
 387 -26 l 2,70,71
 145 -26 145 -26 100 -21 c 128,-1,72
 55 -16 55 -16 55 13 c 2,73,-1
 55 20 l 2,74,75
 55 50 55 50 101.5 135.5 c 128,-1,76
 148 221 148 221 223 332 c 0,77,78
 236 352 236 352 284 430 c 128,-1,79
 332 508 332 508 387 584 c 0,56,57
EndSplineSet
Validated: 2049
EndChar

StartChar: uni25b3
Encoding: 267 9651 104
Width: 971
VWidth: 1115
Flags: MW
LayerCount: 2
Fore
SplineSet
605 417 m 0,0,1
 507 542 507 542 498 542 c 0,2,3
 486 542 486 542 380 396 c 0,4,5
 276 252 276 252 254 203 c 0,6,7
 239 169 239 169 210 134 c 0,8,9
 180 98 180 98 159 66 c 0,10,11
 135 30 135 30 135 24 c 0,12,13
 135 23 135 23 136 23 c 2,14,-1
 144 23 l 2,15,16
 158 23 158 23 307 28 c 128,-1,17
 456 33 456 33 600 33 c 0,18,19
 743 33 743 33 757 21 c 0,20,21
 766 13 766 13 797 13 c 2,22,-1
 806 13 l 1,23,-1
 845 16 l 1,24,-1
 811 68 l 1,25,26
 777 125 777 125 777 130 c 0,27,28
 777 136 777 136 703 260 c 0,29,30
 619 400 619 400 605 417 c 0,0,1
578 -19 m 2,31,32
 362 -19 362 -19 83 -40 c 0,33,34
 62 -40 62 -40 52 -29 c 128,-1,35
 42 -18 42 -18 48.5 -8 c 128,-1,36
 55 2 55 2 95 68 c 0,37,38
 140 138 140 138 166 168 c 128,-1,39
 192 198 192 198 201 222 c 0,40,41
 218 271 218 271 333.5 427 c 128,-1,42
 449 583 449 583 477 595 c 0,43,44
 496 602 496 602 506.5 602 c 128,-1,45
 517 602 517 602 562 554.5 c 128,-1,46
 607 507 607 507 640.5 460.5 c 128,-1,47
 674 414 674 414 748.5 294 c 128,-1,48
 823 174 823 174 823 167.5 c 128,-1,49
 823 161 823 161 860.5 98 c 128,-1,50
 898 35 898 35 909 19 c 128,-1,51
 920 3 920 3 920 -5 c 0,52,53
 920 -24 920 -24 898 -32.5 c 128,-1,54
 876 -41 876 -41 789.5 -41 c 128,-1,55
 703 -41 703 -41 695 -30 c 128,-1,56
 687 -19 687 -19 615 -19 c 2,57,-1
 578 -19 l 2,31,32
EndSplineSet
Validated: 1
EndChar

StartChar: numbersign
Encoding: 35 35 105
Width: 742
VWidth: 1119
Flags: MW
LayerCount: 2
Fore
SplineSet
479 335 m 132,-1,1
 479 346 479 346 467 346 c 132,-1,2
 455 346 455 346 384 354.5 c 132,-1,3
 313 363 313 363 304.5 364.5 c 132,-1,4
 296 366 296 366 290 366.5 c 132,-1,5
 284 367 284 367 281 360 c 4,6,7
 271 337 271 337 271 278 c 6,8,-1
 271 240 l 5,9,-1
 314 240 l 6,10,11
 356 240 356 240 402 225 c 132,-1,12
 448 210 448 210 452.5 210 c 132,-1,13
 457 210 457 210 468 267 c 132,-1,0
 479 324 479 324 479 335 c 132,-1,1
561 209 m 5,14,-1
 567 210 l 5,15,16
 595 210 595 210 631 201 c 132,-1,17
 667 192 667 192 679 181.5 c 132,-1,18
 691 171 691 171 691 152.5 c 132,-1,19
 691 134 691 134 677 124 c 4,20,21
 667 119 667 119 661 119 c 132,-1,22
 655 119 655 119 631 124 c 4,23,24
 583 141 583 141 535 141 c 4,25,26
 527 141 527 141 523 138 c 4,27,28
 511 128 511 128 511 81 c 5,29,-1
 512 71 l 5,30,31
 512 25 512 25 504 11.5 c 132,-1,32
 496 -2 496 -2 476.5 -2 c 132,-1,33
 457 -2 457 -2 450.5 13 c 132,-1,34
 444 28 444 28 444 77 c 6,35,-1
 444 139 l 5,36,-1
 390 152 l 6,37,38
 330 166 330 166 296 170 c 6,39,-1
 257 174 l 5,40,-1
 253 147 l 6,41,42
 248 120 248 120 243 72.5 c 132,-1,43
 238 25 238 25 231.5 11.5 c 132,-1,44
 225 -2 225 -2 206 -2 c 132,-1,45
 187 -2 187 -2 179.5 12.5 c 132,-1,46
 172 27 172 27 172 70 c 6,47,-1
 172 99 l 5,48,-1
 175 176 l 5,49,-1
 126 182 l 6,50,51
 85 188 85 188 71.5 195.5 c 132,-1,52
 58 203 58 203 58 221 c 132,-1,53
 58 239 58 239 68.5 246.5 c 132,-1,54
 79 254 79 254 104 254 c 5,55,-1
 173 250 l 5,56,57
 193 250 193 250 197 261.5 c 132,-1,58
 201 273 201 273 205 333 c 6,59,-1
 209 382 l 5,60,-1
 179 388 l 5,61,62
 171 391 171 391 157 391 c 6,63,-1
 139 391 l 5,64,-1
 95 387 l 5,65,66
 59 387 59 387 58 418 c 4,67,68
 58 441 58 441 75.5 449.5 c 132,-1,69
 93 458 93 458 140 458 c 6,70,-1
 154 458 l 5,71,-1
 221 457 l 5,72,-1
 232 522 l 6,73,74
 243 585 243 585 254.5 597.5 c 132,-1,75
 266 610 266 610 281 610 c 4,76,77
 314 610 314 610 314 576 c 4,78,79
 314 558 314 558 305.5 511.5 c 132,-1,80
 297 465 297 465 297 445 c 4,81,82
 297 433 297 433 460 418 c 5,83,-1
 488 414 l 5,84,-1
 497 465 l 6,85,86
 505 514 505 514 523 549 c 132,-1,87
 541 584 541 584 556 586 c 6,88,-1
 565 587 l 5,89,90
 594 587 594 587 594 552 c 4,91,92
 594 529 594 529 581 493 c 132,-1,93
 568 457 568 457 565 432 c 4,94,95
 565 420 565 420 571.5 417 c 132,-1,96
 578 414 578 414 605 414 c 4,97,98
 671 414 671 414 671 373 c 4,99,100
 671 342 671 342 630 341 c 4,101,102
 624 341 624 341 601 344 c 5,103,-1
 552 348 l 5,104,-1
 547 300 l 6,105,106
 541 252 541 252 538.5 238.5 c 132,-1,107
 536 225 536 225 536 219 c 4,108,109
 536 209 536 209 561 209 c 5,14,-1
EndSplineSet
Validated: 1
EndChar

StartChar: percent
Encoding: 37 37 106
Width: 748
VWidth: 1111
Flags: MW
LayerCount: 2
Fore
SplineSet
481 607 m 0,0,1
 521 649 521 649 546 649 c 0,2,3
 558 649 558 649 567.5 639.5 c 128,-1,4
 577 630 577 630 577 620 c 0,5,6
 577 599 577 599 542.5 560.5 c 128,-1,7
 508 522 508 522 404.5 369.5 c 128,-1,8
 301 217 301 217 250 126 c 0,9,10
 221 72 221 72 198 36 c 0,11,12
 175 -7 175 -7 157 -8 c 1,13,-1
 149 -8 l 2,14,15
 135 -8 135 -8 126 0.5 c 128,-1,16
 117 9 117 9 117 23.5 c 128,-1,17
 117 38 117 38 144 95.5 c 128,-1,18
 171 153 171 153 189.5 177 c 128,-1,19
 208 201 208 201 208 204 c 0,20,21
 208 217 208 217 326.5 392 c 128,-1,22
 445 567 445 567 481 607 c 0,0,1
189 556 m 0,23,24
 181 556 181 556 157 542 c 0,25,26
 132 526 132 526 132 501 c 0,27,28
 132 482 132 482 151 482 c 0,29,30
 171 482 171 482 192 498.5 c 128,-1,31
 213 515 213 515 213 528 c 128,-1,32
 213 541 213 541 206 548.5 c 128,-1,33
 199 556 199 556 189 556 c 0,23,24
64.5 464 m 128,-1,35
 60 475 60 475 60 511 c 128,-1,36
 60 547 60 547 79.5 573.5 c 128,-1,37
 99 600 99 600 126.5 613 c 128,-1,38
 154 626 154 626 201 632 c 1,39,-1
 202 632 l 2,40,41
 220 632 220 632 240 617 c 128,-1,42
 260 602 260 602 260 589.5 c 128,-1,43
 260 577 260 577 275 567 c 128,-1,44
 290 557 290 557 290 534 c 0,45,46
 290 481 290 481 245 440 c 0,47,48
 224 421 224 421 211.5 417.5 c 128,-1,49
 199 414 199 414 159.5 414 c 128,-1,50
 120 414 120 414 109.5 417 c 128,-1,51
 99 420 99 420 84 436.5 c 128,-1,34
 69 453 69 453 64.5 464 c 128,-1,35
583 200 m 0,52,53
 549 208 549 208 538 208 c 128,-1,54
 527 208 527 208 504.5 197 c 128,-1,55
 482 186 482 186 481 176 c 0,56,57
 481 169 481 169 491 145 c 0,58,59
 507 109 507 109 547 109 c 128,-1,60
 587 109 587 109 609 144 c 0,61,62
 622 166 622 166 622 177 c 128,-1,63
 622 188 622 188 583 200 c 0,52,53
415 225.5 m 128,-1,65
 418 235 418 235 438 249.5 c 128,-1,66
 458 264 458 264 478 270 c 128,-1,67
 498 276 498 276 524.5 276 c 128,-1,68
 551 276 551 276 554 276.5 c 128,-1,69
 557 277 557 277 579 277 c 128,-1,70
 601 277 601 277 618 267.5 c 128,-1,71
 635 258 635 258 638 237 c 128,-1,72
 641 216 641 216 657 216 c 0,73,74
 692 216 692 216 692 163 c 128,-1,75
 692 110 692 110 643 68 c 0,76,77
 608 38 608 38 558 38 c 0,78,79
 547 38 547 38 522 40 c 0,80,81
 412 54 412 54 412 182 c 0,82,64
 412 216 412 216 415 225.5 c 128,-1,65
EndSplineSet
Validated: 2049
EndChar

StartChar: asterisk
Encoding: 42 42 107
Width: 443
VWidth: 1060
Flags: MW
LayerCount: 2
Fore
SplineSet
197 646 m 6,0,1
 197 690 197 690 222 690 c 6,2,3
 223 690 l 6,4,5
 248 690 248 690 249 643 c 5,6,-1
 249 613 l 5,7,-1
 276 633 l 5,8,9
 298 651 298 651 313 651 c 5,10,11
 314 650 l 5,12,13
 328 650 328 650 335 636 c 4,14,15
 339 630 339 630 339 623 c 132,-1,16
 339 616 339 616 310 592 c 5,17,-1
 276 562 l 5,18,-1
 318 562 l 6,19,20
 378 562 378 562 378 538 c 4,21,22
 378 534 378 534 372 523 c 132,-1,23
 366 512 366 512 322 510 c 6,24,-1
 280 508 l 5,25,-1
 300 482 l 6,26,27
 316 462 316 462 316 454.5 c 132,-1,28
 316 447 316 447 312 442 c 4,29,30
 304 426 304 426 288 426.5 c 132,-1,31
 272 427 272 427 256 448 c 5,32,-1
 239 473 l 5,33,-1
 235 451 l 6,34,35
 230 420 230 420 208 420 c 4,36,37
 197 420 197 420 189 430.5 c 132,-1,38
 181 441 181 441 181 459 c 6,39,-1
 181 482 l 5,40,-1
 156 456 l 5,41,42
 135 436 135 436 124 436 c 6,43,44
 123 436 l 6,45,46
 122 436 122 436 116 438 c 4,47,48
 101 450 101 450 101 464 c 132,-1,49
 101 478 101 478 121 497 c 6,50,-1
 145 520 l 5,51,-1
 113 527 l 5,52,53
 70 538 70 538 70 560 c 4,54,55
 70 566 70 566 75.5 574.5 c 132,-1,56
 81 583 81 583 92.5 583 c 132,-1,57
 104 583 104 583 124 580 c 6,58,-1
 162 576 l 5,59,-1
 138 602 l 6,60,61
 115 627 115 627 115 644 c 132,-1,62
 115 661 115 661 130 671 c 4,63,64
 136 675 136 675 139 674 c 4,65,66
 146 674 146 674 170 648 c 6,67,-1
 197 619 l 5,68,-1
 197 646 l 6,0,1
EndSplineSet
Validated: 1
EndChar

StartChar: plus
Encoding: 43 43 108
Width: 651
VWidth: 1111
Flags: MW
LayerCount: 2
Fore
SplineSet
257 449 m 2,0,1
 257 541 257 541 269.5 554 c 128,-1,2
 282 567 282 567 298 567 c 0,3,4
 333 567 333 567 338 528 c 0,5,6
 340 509 340 509 340 449 c 2,7,-1
 340 356 l 1,8,-1
 410 356 l 2,9,10
 549 356 549 356 584 327 c 0,11,12
 597 316 597 316 597 299 c 128,-1,13
 597 282 597 282 583 270.5 c 128,-1,14
 569 259 569 259 558 259.5 c 128,-1,15
 547 260 547 260 528.5 262 c 128,-1,16
 510 264 510 264 469 267 c 2,17,-1
 414 271 l 1,18,-1
 347 274 l 1,19,-1
 347 168 l 2,20,21
 347 59 347 59 334.5 45.5 c 128,-1,22
 322 32 322 32 305.5 31.5 c 128,-1,23
 289 31 289 31 278.5 41 c 128,-1,24
 268 51 268 51 266 72.5 c 128,-1,25
 264 94 264 94 264 165 c 2,26,-1
 264 275 l 1,27,-1
 170 271 l 2,28,29
 131 270 131 270 119 270 c 2,30,31
 106 270 l 2,32,33
 73 270 73 270 63 281 c 128,-1,34
 53 292 53 292 53 309.5 c 128,-1,35
 53 327 53 327 63 339.5 c 128,-1,36
 73 352 73 352 92 354 c 128,-1,37
 111 356 111 356 168 356 c 2,38,-1
 257 356 l 1,39,-1
 257 449 l 2,0,1
EndSplineSet
Validated: 1
EndChar

StartChar: hyphen
Encoding: 45 45 109
Width: 587
VWidth: 1116
Flags: MW
LayerCount: 2
Fore
SplineSet
104 269.5 m 132,-1,1
 81 276 81 276 81 295.5 c 132,-1,2
 81 315 81 315 94 329 c 132,-1,3
 107 343 107 343 117.5 346 c 132,-1,4
 128 349 128 349 163 349 c 132,-1,5
 198 349 198 349 241.5 347.5 c 132,-1,6
 285 346 285 346 382 335.5 c 132,-1,7
 479 325 479 325 492.5 314 c 132,-1,8
 506 303 506 303 506 285 c 132,-1,9
 506 267 506 267 492.5 256 c 132,-1,10
 479 245 479 245 450 245 c 132,-1,11
 421 245 421 245 346.5 253 c 132,-1,12
 272 261 272 261 199.5 262 c 132,-1,0
 127 263 127 263 104 269.5 c 132,-1,1
EndSplineSet
Validated: 1
EndChar

StartChar: less
Encoding: 60 60 110
Width: 588
VWidth: 1116
Flags: MW
LayerCount: 2
Fore
SplineSet
410.5 499.5 m 128,-1,1
 421 504 421 504 441 504 c 0,2,3
 459 504 459 504 469 495 c 128,-1,4
 479 486 479 486 478 474 c 0,5,6
 478 452 478 452 456.5 440 c 128,-1,7
 435 428 435 428 380.5 389 c 128,-1,8
 326 350 326 350 296 334 c 0,9,10
 267 316 267 316 234 283 c 2,11,-1
 199 249 l 1,12,-1
 223 240 l 1,13,14
 245 229 245 229 265 227.5 c 128,-1,15
 285 226 285 226 389.5 173.5 c 128,-1,16
 494 121 494 121 508.5 107.5 c 128,-1,17
 523 94 523 94 523 78 c 128,-1,18
 523 62 523 62 515 52 c 128,-1,19
 507 42 507 42 488.5 43.5 c 128,-1,20
 470 45 470 45 396 84 c 128,-1,21
 322 123 322 123 307 123 c 2,22,-1
 306 123 l 1,23,24
 300 119 300 119 284.5 130 c 128,-1,25
 269 141 269 141 202 166 c 128,-1,26
 135 191 135 191 109 197 c 128,-1,27
 83 203 83 203 73 213 c 0,28,29
 62 224 62 224 62 242 c 0,30,31
 63 260 63 260 75 270 c 0,32,33
 87 282 87 282 116.5 297 c 128,-1,34
 146 312 146 312 184 339.5 c 128,-1,35
 222 367 222 367 228 375 c 128,-1,36
 234 383 234 383 317 439 c 128,-1,0
 400 495 400 495 410.5 499.5 c 128,-1,1
EndSplineSet
Validated: 1
EndChar

StartChar: equal
Encoding: 61 61 111
Width: 711
VWidth: 1118
Flags: MW
LayerCount: 2
Fore
SplineSet
80 412 m 4,0,1
 81 426 81 426 92.5 440 c 132,-1,2
 104 454 104 454 147 454 c 4,3,4
 151 454 151 454 312 450 c 132,-1,5
 473 446 473 446 537.5 441 c 132,-1,6
 602 436 602 436 613.5 425.5 c 132,-1,7
 625 415 625 415 625 399 c 132,-1,8
 625 383 625 383 611.5 371 c 132,-1,9
 598 359 598 359 560 359 c 4,10,11
 467 359 467 359 300.5 366.5 c 132,-1,12
 134 374 134 374 107 381 c 132,-1,13
 80 388 80 388 80 412 c 4,0,1
145 198 m 4,14,15
 156 202 156 202 210 202 c 6,16,17
 276 202 l 6,18,19
 395 202 395 202 528 192 c 4,20,21
 602 186 602 186 618 171 c 4,22,23
 632 158 632 158 632 144 c 0,24,25
 632 125 632 125 618 113 c 4,26,27
 604 102 604 102 579 102 c 4,28,29
 577 102 577 102 476 109.5 c 132,-1,30
 375 117 375 117 279.5 117 c 132,-1,31
 184 117 184 117 164 113 c 4,32,33
 144 110 144 110 133 110 c 132,-1,34
 122 110 122 110 108 121 c 4,35,36
 95 133 95 133 96 148 c 4,37,38
 96 181 96 181 145 198 c 4,14,15
EndSplineSet
Validated: 1
EndChar

StartChar: greater
Encoding: 62 62 112
Width: 660
VWidth: 1119
Flags: MW
LayerCount: 2
Fore
SplineSet
150 420 m 132,-1,1
 133 420 133 420 118.5 433.5 c 132,-1,2
 104 447 104 447 104 460.5 c 132,-1,3
 104 474 104 474 118 489 c 4,4,5
 128 502 128 502 158 502 c 4,6,7
 160 502 160 502 161.5 502 c 132,-1,8
 163 502 163 502 164 503 c 4,9,10
 196 503 196 503 236 485 c 4,11,12
 597 337 597 337 597 270 c 4,13,14
 597 254 597 254 585.5 238.5 c 132,-1,15
 574 223 574 223 564 223 c 4,16,17
 542 223 542 223 463 193 c 132,-1,18
 384 163 384 163 340 135.5 c 132,-1,19
 296 108 296 108 238 87.5 c 132,-1,20
 180 67 180 67 161 49 c 5,21,22
 140 35 140 35 118 35 c 132,-1,23
 96 35 96 35 82.5 46 c 132,-1,24
 69 57 69 57 69 74 c 6,25,-1
 69 80 l 5,26,27
 71 97 71 97 112.5 126 c 132,-1,28
 154 155 154 155 185.5 164.5 c 132,-1,29
 217 174 217 174 298 216.5 c 132,-1,30
 379 259 379 259 401 268 c 4,31,32
 442 282 442 282 442 285 c 4,33,34
 442 295 442 295 304.5 357.5 c 132,-1,0
 167 420 167 420 150 420 c 132,-1,1
EndSplineSet
Validated: 1
EndChar

StartChar: multiply
Encoding: 215 215 113
Width: 517
VWidth: 1275
Flags: W
LayerCount: 2
Fore
SplineSet
89 399 m 0,0,1
 88 403 88 403 88 408 c 0,2,3
 88 422 88 422 97 433 c 0,4,5
 109 448 109 448 123 448 c 0,6,7
 161 448 161 448 189 402 c 0,8,9
 192 397 192 397 236 350 c 1,10,-1
 265 325 l 1,11,-1
 308 382 l 2,12,13
 348 435 348 435 373 435 c 0,14,15
 385 435 385 435 406 419 c 0,16,17
 423 407 423 407 423 393 c 0,18,19
 423 389 423 389 424 386 c 0,20,21
 424 353 424 353 387 310 c 0,22,23
 333 250 333 250 333 239 c 0,24,25
 333 225 333 225 386 167 c 0,26,27
 433 116 433 116 441 91 c 0,28,29
 442 88 442 88 442 85 c 0,30,31
 442 72 442 72 431 62 c 0,32,33
 417 48 417 48 399 48 c 128,-1,34
 381 48 381 48 365 60 c 0,35,36
 341 78 341 78 314 110 c 1,37,-1
 266 165 l 1,38,-1
 210 105 l 1,39,40
 153 49 153 49 132 49 c 2,41,-1
 131 49 l 2,42,43
 120 49 120 49 102 63 c 0,44,45
 79 81 79 81 79 97 c 0,46,47
 79 127 79 127 140 186 c 0,48,49
 202 246 202 246 202 252 c 1,50,51
 190 264 190 264 151 306 c 0,52,53
 98 361 98 361 89 399 c 0,0,1
EndSplineSet
Validated: 1
EndChar

StartChar: grave
Encoding: 96 96 114
Width: 360
VWidth: 1089
InSpiro: 1
Flags: W
LayerCount: 2
Fore
SplineSet
203 560 m 0,0,1
 193 568 193 568 182 582 c 0,2,3
 156 616 156 616 149 622 c 0,4,5
 142.262742428 627.799228127 142.262742428 627.799228127 122.892173542 640.232822586 c 128,-1,6
 106.87735921 650.512422939 106.87735921 650.512422939 98 660 c 0,7,8
 89 669 89 669 82 682 c 0,9,10
 75 694 75 694 74 703 c 0,11,12
 73 712 73 712 76 720 c 0,13,14
 79 727 79 727 85 730 c 0,15,16
 90 733 90 733 99 733 c 0,17,18
 99.9998961938 733.017641119 99.9998961938 733.017641119 101 733 c 0,19,20
 113 733 113 733 129 726 c 0,21,22
 150 717 150 717 171 704 c 0,23,24
 196 688 196 688 214 666 c 0,25,26
 222 656 222 656 233 638 c 0,27,28
 241.857260431 623.662425513 241.857260431 623.662425513 247.031008165 616.853638844 c 128,-1,29
 253.003583509 608.99357425 253.003583509 608.99357425 264 598 c 128,-1,30
 276.552647167 585.450597313 276.552647167 585.450597313 279.723261717 577.422330553 c 0,31,32
 282.29947565 570.899136907 282.29947565 570.899136907 281.440603338 564.636200926 c 128,-1,33
 280.52498573 557.959475666 280.52498573 557.959475666 276 553 c 128,-1,34
 271.598911659 548.176318373 271.598911659 548.176318373 264.485385114 545.929078386 c 128,-1,35
 258.724233135 544.109068155 258.724233135 544.109068155 251 544 c 0,36,37
 250.000067299 543.985880694 250.000067299 543.985880694 249 544 c 0,38,39
 236 544 236 544 225 548 c 0,40,41
 213 552 213 552 203 560 c 0,0,1
  Spiro
    203 560 o
    182 582 o
    149 622 o
    98 660 o
    82 682 o
    74 703 o
    76 720 o
    85 730 o
    99 733 o
    101 733 o
    129 726 o
    171 704 o
    214 666 o
    233 638 o
    264 598 o
    276 553 o
    251 544 o
    249 544 o
    225 548 o
    0 0 z
  EndSpiro
EndSplineSet
Validated: 524289
EndChar

StartChar: underscore
Encoding: 95 95 115
Width: 715
VWidth: 1116
Flags: W
LayerCount: 2
Fore
SplineSet
109 40 m 4,0,1
 86 46 86 46 86 65 c 0,2,3
 86 85 86 85 100 99 c 4,4,5
 112 113 112 113 122.5 116 c 132,-1,6
 133 119 133 119 175.5 119 c 132,-1,7
 218 119 218 119 303 117.5 c 132,-1,8
 388 116 388 116 495.5 105.5 c 132,-1,9
 603 95 603 95 617.5 84 c 132,-1,10
 632 73 632 73 632 55 c 132,-1,11
 632 37 632 37 618.5 26 c 132,-1,12
 605 15 605 15 580.5 15 c 132,-1,13
 556 15 556 15 449 23 c 132,-1,14
 342 31 342 31 237 32.5 c 132,-1,15
 132 34 132 34 109 40 c 4,0,1
EndSplineSet
Validated: 1
EndChar

StartChar: bar
Encoding: 124 124 116
Width: 264
VWidth: 1116
Flags: WO
LayerCount: 2
Fore
SplineSet
159 501 m 1050,0,-1
159 676 m 0,1,2
 159 660 159 660 159.5 616.5 c 0,3,4
 159.666666667 602 159.666666667 602 159.666666667 584.333333333 c 0,5,6
 159.666666667 549 159.666666667 549 159 501 c 0,7,8
 159 475 159 475 159 448 c 0,9,10
 159 289 159 289 169 126 c 0,11,12
 177 -3 177 -3 177 -87 c 0,13,14
 177 -114 177 -114 170 -124 c 0,15,16
 158 -139 158 -139 150 -139 c 0,17,18
 147 -139 147 -139 144 -137 c 0,19,-1
 127 -116 l 0,20,21
 124 -114 124 -114 107 68 c 0,22,23
 94 215 94 215 94 337 c 0,24,25
 94 378 94 378 95 416 c 0,26,27
 96 442 96 442 96 470 c 0,28,29
 96 517 96 517 93 571 c 0,30,31
 92 591 92 591 92 611 c 0,32,33
 92 652 92 652 95 662 c 128,-1,34
 98 672 98 672 110 687 c 128,-1,35
 122 702 122 702 133 702 c 0,36,-1
 134 702 l 0,37,38
 158 702 158 702 159 676 c 0,1,2
EndSplineSet
EndChar

StartChar: exclamdown
Encoding: 161 161 117
Width: 292
VWidth: 1236
Flags: W
LayerCount: 2
Fore
SplineSet
96 448 m 132,-1,1
 83 463 83 463 83 480.5 c 132,-1,2
 83 498 83 498 96 511.5 c 132,-1,3
 109 525 109 525 129 526 c 5,4,-1
 132 526 l 6,5,6
 146 526 146 526 160 510.5 c 132,-1,7
 174 495 174 495 174 476.5 c 132,-1,8
 174 458 174 458 160.5 446 c 132,-1,9
 147 434 147 434 128 434 c 5,10,-1
 127 433 l 5,11,0
 109 433 109 433 96 448 c 132,-1,1
140 -178 m 4,12,13
 114 -145 114 -145 102 143 c 4,14,15
 98 219 98 219 98 257 c 132,-1,16
 98 295 98 295 111 308.5 c 132,-1,17
 124 322 124 322 144 322 c 4,18,-1
 145 323 l 4,19,20
 164 323 164 323 176 309 c 132,-1,21
 188 295 188 295 190.5 192.5 c 132,-1,22
 193 90 193 90 204.5 22.5 c 132,-1,23
 216 -45 216 -45 216 -128 c 4,24,25
 216 -163 216 -163 202.5 -177.5 c 132,-1,26
 189 -192 189 -192 171 -192 c 6,27,-1
 170 -192 l 6,28,29
 152 -192 152 -192 140 -178 c 4,12,13
EndSplineSet
Validated: 1
EndChar

StartChar: periodcentered
Encoding: 183 183 118
Width: 255
VWidth: 1333
Flags: W
LayerCount: 2
Fore
SplineSet
82 284.5 m 128,-1,1
 82 302 82 302 95 316.5 c 128,-1,2
 108 331 108 331 127 331 c 128,-1,3
 146 331 146 331 159.5 318.5 c 128,-1,4
 173 306 173 306 173 287.5 c 128,-1,5
 173 269 173 269 158.5 254.5 c 128,-1,6
 144 240 144 240 126 240 c 128,-1,7
 108 240 108 240 95 253.5 c 128,-1,0
 82 267 82 267 82 284.5 c 128,-1,1
EndSplineSet
Validated: 1
EndChar

StartChar: macron
Encoding: 175 175 119
Width: 546
VWidth: 1116
Flags: W
LayerCount: 2
Fore
SplineSet
110 568 m 4,0,1
 87 574 87 574 87 593.5 c 132,-1,2
 87 613 87 613 100 627 c 132,-1,3
 113 641 113 641 123.5 644 c 132,-1,4
 134 647 134 647 169 647 c 4,5,6
 181 647 181 647 192 647 c 0,7,8
 214 647 214 647 232 648 c 4,9,10
 237 648 237 648 242 649 c 0,11,12
 274 648 274 648 348 642 c 4,13,14
 436 634 436 634 449.5 622.5 c 132,-1,15
 463 611 463 611 463 593 c 132,-1,16
 463 575 463 575 449.5 564 c 132,-1,17
 436 553 436 553 407 553 c 132,-1,18
 378 553 378 553 312 558 c 4,19,20
 257 562 257 562 209 562 c 0,21,22
 200 562 200 562 190 562 c 4,23,24
 182 562 182 562 175 562 c 0,25,26
 130 562 130 562 110 568 c 4,0,1
EndSplineSet
Validated: 1
EndChar

StartChar: acute
Encoding: 180 180 120
Width: 362
VWidth: 1089
Flags: W
LayerCount: 2
Fore
SplineSet
161 559.5 m 128,-1,1
 151 552 151 552 139 548 c 128,-1,2
 127 544 127 544 115 544 c 0,3,4
 114 544 114 544 113 544 c 0,5,6
 106 544 106 544 100 546 c 0,7,8
 92 548 92 548 88 553 c 0,9,10
 84 557 84 557 83 564 c 0,11,12
 82 570 82 570 84 577 c 0,13,14
 88 585 88 585 100 598 c 0,15,16
 111 609 111 609 117 617 c 0,17,18
 122 624 122 624 131 638 c 0,19,20
 142 656 142 656 150 666 c 0,21,22
 168 689 168 689 193 704 c 0,23,24
 213 716 213 716 235 726 c 0,25,26
 251 733 251 733 263 733 c 0,27,28
 264 733 264 733 265 733 c 0,29,30
 273 733 273 733 279 730 c 128,-1,31
 285 727 285 727 288 720 c 0,32,33
 291 712 291 712 290 703 c 0,34,35
 288 693 288 693 282 682 c 0,36,37
 276 670 276 670 266 660 c 0,38,39
 257 652 257 652 241 641 c 0,40,41
 223 629 223 629 215 622 c 0,42,43
 206 614 206 614 182 582 c 0,44,0
 171 567 171 567 161 559.5 c 128,-1,1
EndSplineSet
Validated: 1
EndChar

StartChar: uni00AD
Encoding: 173 173 121
Width: 507
VWidth: 1116
Flags: W
LayerCount: 2
Fore
SplineSet
104 269.5 m 132,-1,1
 81 276 81 276 81 295.5 c 132,-1,2
 81 315 81 315 94 329 c 132,-1,3
 107 343 107 343 117.5 346 c 132,-1,4
 128 349 128 349 163 349 c 132,-1,5
 198 349 198 349 206.5 347.5 c 132,-1,6
 215 346 215 346 307 335.5 c 132,-1,7
 399 325 399 325 412.5 314 c 132,-1,8
 426 303 426 303 426 285 c 132,-1,9
 426 267 426 267 412.5 256 c 132,-1,10
 399 245 399 245 370 245 c 132,-1,11
 341 245 341 245 271.5 253 c 132,-1,12
 202 261 202 261 164.5 262 c 132,-1,0
 127 263 127 263 104 269.5 c 132,-1,1
EndSplineSet
Validated: 1
EndChar

StartChar: uniA789
Encoding: 268 42889 122
Width: 252
VWidth: 1267
Flags: W
LayerCount: 2
Fore
SplineSet
87 121.5 m 132,-1,1
 74 135 74 135 74 153 c 132,-1,2
 74 171 74 171 87 185.5 c 132,-1,3
 100 200 100 200 119 200 c 132,-1,4
 138 200 138 200 151.5 187.5 c 132,-1,5
 165 175 165 175 165 157 c 132,-1,6
 165 139 165 139 150.5 123.5 c 132,-1,7
 136 108 136 108 118 108 c 132,-1,0
 100 108 100 108 87 121.5 c 132,-1,1
96 456 m 0,8,9
 109 469 109 469 125 469 c 0,10,11
 126 469 126 469 134 469 c 0,12,13
 146 469 146 469 159.5 456 c 128,-1,14
 173 443 173 443 173 422 c 128,-1,15
 173 401 173 401 160.5 384.5 c 128,-1,16
 148 368 148 368 128.5 368 c 128,-1,17
 109 368 109 368 96 384 c 128,-1,18
 83 400 83 400 83 420 c 0,19,20
 83 442 83 442 96 456 c 0,8,9
EndSplineSet
Validated: 1
EndChar

StartChar: cent
Encoding: 162 162 123
Width: 438
VWidth: 1145
Flags: MW
LayerCount: 2
Fore
SplineSet
221 78 m 4,0,1
 223 78 223 78 223 133.5 c 132,-1,2
 223 189 223 189 214.5 261.5 c 132,-1,3
 206 334 206 334 202 334 c 4,4,5
 192 333 192 333 172 316.5 c 132,-1,6
 152 300 152 300 140 284 c 4,7,8
 122 255 122 255 122 208.5 c 132,-1,9
 122 162 122 162 144 130 c 4,10,11
 157 112 157 112 181 95 c 132,-1,12
 205 78 205 78 221 78 c 4,0,1
288 -76 m 4,13,14
 288 -113 288 -113 264 -114 c 4,15,16
 250 -114 250 -114 241 -92 c 132,-1,17
 232 -70 232 -70 232 -34 c 6,18,-1
 232 12 l 5,19,-1
 193 27 l 6,20,21
 123 53 123 53 88 111 c 4,22,23
 76 130 76 130 73 147 c 132,-1,24
 70 164 70 164 70 214 c 132,-1,25
 70 264 70 264 73.5 278.5 c 132,-1,26
 77 293 77 293 101 323 c 4,27,28
 132 365 132 365 170 382 c 5,29,-1
 209 400 l 5,30,-1
 209 462 l 6,31,32
 209 528 209 528 221 538 c 4,33,34
 227 543 227 543 239.5 543 c 132,-1,35
 252 543 252 543 257.5 525.5 c 132,-1,36
 263 508 263 508 263 461 c 6,37,-1
 263 396 l 5,38,-1
 295 395 l 6,39,40
 317 394 317 394 329 386 c 132,-1,41
 341 378 341 378 341 368 c 4,42,43
 341 343 341 343 292 342 c 6,44,-1
 260 342 l 5,45,-1
 268 294 l 5,46,47
 274 244 274 244 278 156 c 5,48,-1
 282 68 l 5,49,-1
 325 60 l 6,50,51
 385 50 385 50 385 30 c 4,52,53
 385 6 385 6 341 6 c 6,54,-1
 329 6 l 5,55,-1
 284 9 l 5,56,-1
 287 -46 l 6,57,58
 288 -58 288 -58 288 -76 c 4,13,14
EndSplineSet
Validated: 1
EndChar

StartChar: copyright
Encoding: 169 169 124
Width: 567
VWidth: 1096
Flags: MW
LayerCount: 2
Fore
SplineSet
335 667 m 0,0,1
 324 680 324 680 303 680 c 0,2,3
 265 680 265 680 212.5 646 c 128,-1,4
 160 612 160 612 143 585 c 128,-1,5
 126 558 126 558 126 508 c 128,-1,6
 126 458 126 458 143 435.5 c 128,-1,7
 160 413 160 413 223.5 383.5 c 128,-1,8
 287 354 287 354 348 354 c 0,9,10
 398 354 398 354 415 372 c 0,11,12
 436 394 436 394 436 471 c 0,13,14
 436 475 436 475 436 479 c 0,15,16
 436 550 436 550 426 572 c 0,17,18
 416 596 416 596 390.5 625.5 c 128,-1,19
 365 655 365 655 356 655 c 128,-1,20
 347 655 347 655 335 667 c 0,0,1
354 300 m 1,21,-1
 328 301 l 2,22,23
 280 302 280 302 257 307.5 c 128,-1,24
 234 313 234 313 186.5 335.5 c 128,-1,25
 139 358 139 358 106 395 c 2,26,-1
 72 431 l 1,27,-1
 72 500 l 2,28,29
 72 559 72 559 80 585.5 c 128,-1,30
 88 612 88 612 113 640 c 0,31,32
 132 659 132 659 174.5 689.5 c 128,-1,33
 217 720 217 720 231.5 726 c 128,-1,34
 246 732 246 732 306 732 c 1,35,-1
 367 733 l 1,36,-1
 414 685 l 2,37,38
 462 635 462 635 476 604.5 c 128,-1,39
 490 574 490 574 490 512 c 1,40,-1
 489 469 l 2,41,42
 487 368 487 368 468.5 345 c 128,-1,43
 450 322 450 322 425 311 c 128,-1,44
 400 300 400 300 354 300 c 1,21,-1
322 565 m 1,45,-1
 291 568 l 1,46,47
 272 568 272 568 261 557 c 0,48,49
 245 540 245 540 245 503 c 0,50,51
 245 484 245 484 260.5 475.5 c 128,-1,52
 276 467 276 467 319 463 c 0,53,54
 389 456 389 456 389 434 c 0,55,56
 389 427 389 427 382 419 c 0,57,58
 375 408 375 408 348.5 408 c 128,-1,59
 322 408 322 408 289.5 410 c 128,-1,60
 257 412 257 412 244.5 416 c 128,-1,61
 232 420 232 420 210.5 443.5 c 128,-1,62
 189 467 189 467 189 486.5 c 128,-1,63
 189 506 189 506 190 517 c 0,64,65
 195 588 195 588 247 618 c 0,66,67
 270 631 270 631 285.5 631 c 128,-1,68
 301 631 301 631 324 620 c 0,69,70
 358 607 358 607 358 586 c 128,-1,71
 358 565 358 565 322 565 c 1,45,-1
EndSplineSet
Validated: 1
EndChar

StartChar: questiondown
Encoding: 191 191 125
Width: 480
VWidth: 1151
Flags: MW
LayerCount: 2
Fore
SplineSet
269 534 m 4,0,1
 289 554 289 554 305.5 554 c 132,-1,2
 322 554 322 554 343.5 538.5 c 132,-1,3
 365 523 365 523 365 498.5 c 132,-1,4
 365 474 365 474 348 451 c 4,5,6
 332 432 332 432 313.5 432 c 132,-1,7
 295 432 295 432 272 451.5 c 132,-1,8
 249 471 249 471 249 491 c 132,-1,9
 249 511 249 511 269 534 c 4,0,1
343 -191 m 6,10,-1
 316 -192 l 5,11,12
 147 -192 147 -192 79 -78 c 4,13,14
 61 -47 61 -47 61 -21 c 4,15,16
 61 108 61 108 114.5 168.5 c 132,-1,17
 168 229 168 229 240 229 c 6,18,-1
 279 229 l 5,19,-1
 279 289 l 6,20,21
 279 354 279 354 291 363 c 4,22,23
 297 368 297 368 306 368 c 4,24,25
 323 368 323 368 328.5 348.5 c 132,-1,26
 334 329 334 329 334 261 c 132,-1,27
 334 193 334 193 324.5 183.5 c 132,-1,28
 315 174 315 174 268 174 c 4,29,30
 202 174 202 174 163 134 c 4,31,32
 117 86 117 86 117 -4 c 4,33,34
 117 -29 117 -29 140 -65 c 132,-1,35
 163 -101 163 -101 208 -117 c 132,-1,36
 253 -133 253 -133 341.5 -133 c 132,-1,37
 430 -133 430 -133 438 -147 c 132,-1,38
 446 -161 446 -161 432.5 -174 c 132,-1,39
 419 -187 419 -187 343 -191 c 6,10,-1
EndSplineSet
Validated: 1
EndChar

StartChar: plusminus
Encoding: 177 177 126
Width: 424
VWidth: 1146
Flags: MW
LayerCount: 2
Fore
SplineSet
187 438 m 2,0,1
 186 446 186 446 186 467.5 c 128,-1,2
 186 489 186 489 193 496 c 128,-1,3
 200 503 200 503 212.5 503 c 128,-1,4
 225 503 225 503 234 494 c 128,-1,5
 243 485 243 485 243 436 c 2,6,-1
 243 388 l 1,7,-1
 289 388 l 2,8,9
 351 388 351 388 351 364 c 0,10,11
 351 337 351 337 291 335 c 1,12,-1
 244 333 l 1,13,-1
 242 286 l 1,14,15
 240 226 240 226 213 226 c 0,16,17
 189 226 189 226 189 288 c 2,18,-1
 189 334 l 1,19,-1
 135 334 l 2,20,21
 66 334 66 334 66 356 c 0,22,23
 66 365 66 365 70 371 c 0,24,25
 78 384 78 384 135 386 c 1,26,-1
 192 388 l 1,27,-1
 187 438 l 2,0,1
82 75 m 0,28,29
 82 85 82 85 89.5 92.5 c 128,-1,30
 97 100 97 100 130 100 c 128,-1,31
 163 100 163 100 223 96.5 c 128,-1,32
 283 93 283 93 314 87 c 128,-1,33
 345 81 345 81 354 68.5 c 128,-1,34
 363 56 363 56 352.5 45 c 128,-1,35
 342 34 342 34 318 34 c 128,-1,36
 294 34 294 34 228.5 40 c 128,-1,37
 163 46 163 46 122.5 49 c 128,-1,38
 82 52 82 52 82 75 c 0,28,29
EndSplineSet
Validated: 1
EndChar

StartChar: divide
Encoding: 247 247 127
Width: 641
VWidth: 1139
Flags: MW
LayerCount: 2
Fore
SplineSet
279 448 m 0,0,1
 279 501 279 501 291.5 514 c 128,-1,2
 304 527 304 527 324 527 c 128,-1,3
 344 527 344 527 365 509.5 c 128,-1,4
 386 492 386 492 386 467.5 c 128,-1,5
 386 443 386 443 369 426.5 c 128,-1,6
 352 410 352 410 330.5 410 c 128,-1,7
 309 410 309 410 294 420.5 c 128,-1,8
 279 431 279 431 279 448 c 0,0,1
91 332 m 0,9,10
 101 336 101 336 196 336 c 0,11,12
 481 336 481 336 545 328 c 0,13,14
 581 323 581 323 581 308 c 0,15,16
 581 300 581 300 577 294 c 0,17,18
 571 284 571 284 530.5 282.5 c 128,-1,19
 490 281 490 281 282 281 c 128,-1,20
 74 281 74 281 64 290 c 0,21,22
 60 295 60 295 61 302 c 0,23,24
 61 325 61 325 91 332 c 0,9,10
295 84 m 0,25,26
 281 103 281 103 280 136 c 0,27,28
 280 147 280 147 298 165.5 c 128,-1,29
 316 184 316 184 337.5 184 c 128,-1,30
 359 184 359 184 369 174 c 128,-1,31
 379 164 379 164 379 133.5 c 128,-1,32
 379 103 379 103 367.5 88.5 c 128,-1,33
 356 74 356 74 329.5 74 c 128,-1,34
 303 74 303 74 295 84 c 0,25,26
EndSplineSet
Validated: 1
EndChar

StartChar: .notdef
Encoding: 269 -1 128
Width: 459
Flags: W
LayerCount: 2
Fore
SplineSet
97 0 m 1,0,-1
 97 666 l 1,1,-1
 362 666 l 1,2,-1
 362 0 l 1,3,-1
 97 0 l 1,0,-1
130 33 m 1,4,-1
 329 33 l 1,5,-1
 329 633 l 1,6,-1
 130 633 l 1,7,-1
 130 33 l 1,4,-1
EndSplineSet
Validated: 1
EndChar

StartChar: bracketleft
Encoding: 91 91 131
Width: 424
VWidth: 1367
Flags: MW
LayerCount: 2
Fore
SplineSet
157 -11 m 6,0,-1
 153 -23 l 5,1,2
 153 -34 153 -34 229.5 -50.5 c 132,-1,3
 306 -67 306 -67 314 -75.5 c 132,-1,4
 322 -84 322 -84 322 -101 c 132,-1,5
 322 -118 322 -118 298 -130 c 4,6,7
 297 -131 297 -131 276 -131 c 132,-1,8
 255 -131 255 -131 179.5 -115.5 c 132,-1,9
 104 -100 104 -100 93 -90.5 c 132,-1,10
 82 -81 82 -81 82 -58.5 c 132,-1,11
 82 -36 82 -36 86.5 4 c 132,-1,12
 91 44 91 44 103.5 398.5 c 132,-1,13
 116 753 116 753 130 770 c 132,-1,14
 144 787 144 787 172 787 c 132,-1,15
 200 787 200 787 232.5 776 c 132,-1,16
 265 765 265 765 324.5 757 c 132,-1,17
 384 749 384 749 384 721 c 4,18,19
 384 708 384 708 372.5 697 c 132,-1,20
 361 686 361 686 338 686 c 4,21,22
 269 686 269 686 239.5 694 c 132,-1,23
 210 702 210 702 203 702 c 4,24,25
 192 702 192 702 187.5 661.5 c 132,-1,26
 183 621 183 621 173.5 312.5 c 132,-1,27
 164 4 164 4 157 -11 c 6,0,-1
EndSplineSet
Validated: 1
EndChar

StartChar: bracketright
Encoding: 93 93 132
Width: 365
VWidth: 1365
Flags: MW
LayerCount: 2
Fore
SplineSet
41 745 m 0,0,1
 41 753 41 753 53 768.5 c 128,-1,2
 65 784 65 784 143 784 c 0,3,4
 219 784 219 784 233 769 c 0,5,6
 249 752 249 752 260 557 c 0,7,8
 271 367 271 367 271 127 c 0,9,10
 271 -68 271 -68 257 -87 c 128,-1,11
 243 -106 243 -106 158 -106 c 128,-1,12
 73 -106 73 -106 62 -91 c 0,13,14
 49 -74 49 -74 50 -67 c 0,15,16
 52 -38 52 -38 130 -34 c 1,17,-1
 192 -33 l 1,18,-1
 197 84 l 2,19,20
 199 215 199 215 200 231 c 0,21,22
 200 240 200 240 200 247 c 0,23,24
 200 328 200 328 192 488 c 0,25,26
 185 635 185 635 178 674 c 0,27,28
 173 702 173 702 164 707 c 0,29,30
 155 713 155 713 115 714 c 0,31,32
 42 715 42 715 41 745 c 0,0,1
EndSplineSet
Validated: 1
EndChar

StartChar: asciicircum
Encoding: 94 94 133
Width: 547
VWidth: 1088
Flags: MW
LayerCount: 2
Fore
SplineSet
139 563.5 m 128,-1,1
 189 632 189 632 223 671 c 128,-1,2
 257 710 257 710 270 710 c 128,-1,3
 283 710 283 710 309.5 674.5 c 128,-1,4
 336 639 336 639 380 582.5 c 128,-1,5
 424 526 424 526 453.5 488 c 128,-1,6
 483 450 483 450 483 436 c 128,-1,7
 483 422 483 422 467 412 c 0,8,9
 462 410 462 410 455 410 c 128,-1,10
 448 410 448 410 429.5 430 c 128,-1,11
 411 450 411 450 378.5 493 c 128,-1,12
 346 536 346 536 292 604 c 1,13,-1
 264 636 l 1,14,-1
 235 602 l 2,15,16
 201 560 201 560 167 507 c 128,-1,17
 133 454 133 454 124 432 c 0,18,19
 111 401 111 401 94 401 c 0,20,21
 84 401 84 401 75.5 409 c 128,-1,22
 67 417 67 417 67 436 c 128,-1,23
 67 455 67 455 78 475 c 128,-1,0
 89 495 89 495 139 563.5 c 128,-1,1
EndSplineSet
Validated: 1
EndChar

StartChar: braceleft
Encoding: 123 123 134
Width: 362
VWidth: 1277
Flags: MW
LayerCount: 2
Fore
SplineSet
130 720 m 0,0,1
 150 796 150 796 250 796 c 0,2,3
 251 796 251 796 253 796 c 0,4,5
 303 796 303 796 317 779 c 0,6,7
 325 771 325 771 325 761 c 0,8,9
 325 735 325 735 257 731 c 0,10,11
 225 729 225 729 212 724 c 0,12,13
 185 713 185 713 185 643 c 0,14,15
 185 641 185 641 185 638 c 0,16,17
 185 570 185 570 204 516 c 0,18,19
 223 472 223 472 223 426 c 128,-1,20
 223 380 223 380 218.5 366.5 c 128,-1,21
 214 353 214 353 197.5 337.5 c 128,-1,22
 181 322 181 322 181 315 c 128,-1,23
 181 308 181 308 191.5 278 c 128,-1,24
 202 248 202 248 202 225 c 128,-1,25
 202 202 202 202 194 164 c 0,26,27
 169 33 169 33 169 -20 c 0,28,29
 170 -68 170 -68 182 -90 c 0,30,31
 194 -113 194 -113 207 -121 c 128,-1,32
 220 -129 220 -129 254 -135 c 0,33,34
 306 -142 306 -142 306 -169 c 0,35,36
 306 -182 306 -182 288 -191 c 128,-1,37
 270 -200 270 -200 232 -200 c 128,-1,38
 194 -200 194 -200 160 -169.5 c 128,-1,39
 126 -139 126 -139 114 -114.5 c 128,-1,40
 102 -90 102 -90 102 -3.5 c 128,-1,41
 102 83 102 83 130 189 c 0,42,43
 132 197 132 197 132 216 c 0,44,45
 132 276 132 276 86 303 c 0,46,47
 55 322 55 322 54 335 c 0,48,49
 54 355 54 355 115 371 c 1,50,-1
 152 380 l 1,51,-1
 152 428 l 1,52,53
 148 476 148 476 134 504 c 128,-1,54
 120 532 120 532 120 605 c 0,55,56
 120 686 120 686 130 720 c 0,0,1
EndSplineSet
Validated: 1
EndChar

StartChar: braceright
Encoding: 125 125 135
Width: 425
VWidth: 1286
Flags: MW
LayerCount: 2
Fore
SplineSet
129 731 m 5,0,-1
 77 728 l 5,1,2
 58 728 58 728 47 740 c 4,3,4
 40 750 40 750 40 758 c 4,5,6
 40 784 40 784 76 792 c 4,7,8
 86 797 86 797 142 800 c 5,9,-1
 152 800 l 6,10,11
 183 800 183 800 224 771 c 4,12,13
 265 740 265 740 281 713 c 4,14,15
 316 661 316 661 316 552 c 4,16,17
 316 493 316 493 303.5 427.5 c 132,-1,18
 291 362 291 362 291 350.5 c 132,-1,19
 291 339 291 339 294.5 333 c 132,-1,20
 298 327 298 327 321 320.5 c 132,-1,21
 344 314 344 314 357 296 c 4,22,23
 363 284 363 284 360.5 278 c 132,-1,24
 358 272 358 272 342 260 c 4,25,26
 311 232 311 232 310 183 c 4,27,28
 310 160 310 160 316.5 117 c 132,-1,29
 323 74 323 74 323 42 c 132,-1,30
 323 10 323 10 315.5 -36 c 132,-1,31
 308 -82 308 -82 289 -114.5 c 132,-1,32
 270 -147 270 -147 238.5 -170 c 132,-1,33
 207 -193 207 -193 189.5 -198.5 c 132,-1,34
 172 -204 172 -204 124.5 -204 c 132,-1,35
 77 -204 77 -204 58.5 -188 c 132,-1,36
 40 -172 40 -172 40 -160 c 4,37,38
 40 -136 40 -136 80 -136 c 6,39,-1
 122 -136 l 6,40,41
 180 -136 180 -136 207 -109 c 132,-1,42
 234 -82 234 -82 250 -9 c 4,43,44
 256 26 256 26 256 40 c 132,-1,45
 256 54 256 54 249.5 97.5 c 132,-1,46
 243 141 243 141 243 190 c 5,47,-1
 248 256 l 5,48,49
 248 279 248 279 231 296 c 6,50,-1
 212 317 l 5,51,-1
 231 428 l 6,52,53
 247 512 247 512 248 564 c 4,54,55
 248 674 248 674 184 714 c 4,56,57
 153 731 153 731 129 731 c 5,0,-1
EndSplineSet
Validated: 1
EndChar

StartChar: asciitilde
Encoding: 126 126 136
Width: 684
VWidth: 1144
Flags: MW
LayerCount: 2
Fore
SplineSet
97 306 m 0,0,1
 149 358 149 358 207 358 c 0,2,3
 208 358 208 358 209 358 c 0,4,5
 246 358 246 358 277 343 c 0,6,7
 297 333 297 333 298 336 c 128,-1,8
 299 339 299 339 304.5 335 c 128,-1,9
 310 331 310 331 328 315 c 0,10,11
 389 255 389 255 429.5 255 c 128,-1,12
 470 255 470 255 530 319 c 0,13,14
 564 355 564 355 576 355 c 128,-1,15
 588 355 588 355 598 346 c 128,-1,16
 608 337 608 337 608 327.5 c 128,-1,17
 608 318 608 318 564 274 c 128,-1,18
 520 230 520 230 496 214 c 0,19,20
 469 198 469 198 429 198 c 0,21,22
 428 198 428 198 426 198 c 0,23,24
 384 198 384 198 360.5 214.5 c 128,-1,25
 337 231 337 231 337 226 c 0,26,27
 337 225 337 225 334 225 c 128,-1,28
 331 225 331 225 308 248 c 0,29,30
 254 298 254 298 211.5 298 c 128,-1,31
 169 298 169 298 139 268 c 0,32,33
 116 248 116 248 103 248 c 128,-1,34
 90 248 90 248 78 264 c 0,35,36
 76 271 76 271 76 273 c 0,37,38
 76 284 76 284 97 306 c 0,0,1
EndSplineSet
Validated: 1
EndChar

StartChar: brokenbar
Encoding: 166 166 137
Width: 245
VWidth: 1146
Flags: MW
LayerCount: 2
Fore
SplineSet
101 412 m 0,0,1
 101 662 101 662 115 688 c 0,2,3
 127 705 127 705 143 705 c 0,4,5
 168 705 168 705 168 676 c 0,6,7
 168 666 168 666 163.5 653.5 c 128,-1,8
 159 641 159 641 154 501.5 c 128,-1,9
 149 362 149 362 137.5 350.5 c 128,-1,10
 126 339 126 339 112 346 c 0,11,12
 101 352 101 352 101 412 c 0,0,1
124 -159.5 m 128,-1,14
 117 -169 117 -169 106.5 -169 c 128,-1,15
 96 -169 96 -169 89 -160 c 128,-1,16
 82 -151 82 -151 82 -108.5 c 128,-1,17
 82 -66 82 -66 89.5 71 c 128,-1,18
 97 208 97 208 104.5 216.5 c 128,-1,19
 112 225 112 225 122 225 c 128,-1,20
 132 225 132 225 142 214 c 0,21,22
 147 208 147 208 147 163 c 128,-1,23
 147 118 147 118 139 -16 c 128,-1,13
 131 -150 131 -150 124 -159.5 c 128,-1,14
EndSplineSet
Validated: 1
EndChar

StartChar: guillemotleft
Encoding: 171 171 138
Width: 565
VWidth: 1137
Flags: MW
LayerCount: 2
Fore
SplineSet
52 321.5 m 128,-1,1
 52 337 52 337 153 425 c 128,-1,2
 254 513 254 513 285.5 534 c 128,-1,3
 317 555 317 555 331 555 c 128,-1,4
 345 555 345 555 353.5 545 c 128,-1,5
 362 535 362 535 362 528 c 0,6,7
 362 508 362 508 330 493 c 0,8,9
 281 469 281 469 149 349 c 1,10,-1
 118 320 l 1,11,-1
 184 255 l 1,12,13
 318 121 318 121 318 92 c 0,14,15
 318 87 318 87 317 86 c 0,16,17
 307 70 307 70 297 71 c 0,18,19
 277 71 277 71 219 137 c 128,-1,20
 161 203 161 203 117 243 c 0,21,0
 52 306 52 306 52 321.5 c 128,-1,1
274 344 m 0,22,23
 281 366 281 366 377.5 449.5 c 128,-1,24
 474 533 474 533 483 533 c 2,25,-1
 484 533 l 2,26,27
 492 533 492 533 500.5 522.5 c 128,-1,28
 509 512 509 512 509 502.5 c 128,-1,29
 509 493 509 493 437 425 c 128,-1,30
 365 357 365 357 341 344 c 0,31,32
 336 342 336 342 336 336.5 c 128,-1,33
 336 331 336 331 369 297.5 c 128,-1,34
 402 264 402 264 443.5 209.5 c 128,-1,35
 485 155 485 155 485 144.5 c 128,-1,36
 485 134 485 134 475.5 124.5 c 128,-1,37
 466 115 466 115 457 115 c 128,-1,38
 448 115 448 115 400.5 174 c 128,-1,39
 353 233 353 233 312.5 276.5 c 128,-1,40
 272 320 272 320 272 332 c 0,41,42
 272 334 272 334 274 344 c 0,22,23
EndSplineSet
Validated: 1
EndChar

StartChar: registered
Encoding: 174 174 139
Width: 531
VWidth: 1092
Flags: MW
LayerCount: 2
Fore
SplineSet
317 671 m 1,0,-1
 311 670 l 1,1,2
 295 665 295 665 292 674 c 0,3,4
 287 682 287 682 265 682 c 128,-1,5
 243 682 243 682 212 666 c 128,-1,6
 181 650 181 650 152.5 609 c 128,-1,7
 124 568 124 568 124 546 c 128,-1,8
 124 524 124 524 156.5 476.5 c 128,-1,9
 189 429 189 429 214 412 c 0,10,11
 233 398 233 398 258 398 c 0,12,13
 263 398 263 398 306 400 c 0,14,15
 367 406 367 406 381 421 c 128,-1,16
 395 436 395 436 398.5 492.5 c 128,-1,17
 402 549 402 549 402 566.5 c 128,-1,18
 402 584 402 584 389.5 609 c 128,-1,19
 377 634 377 634 355.5 652.5 c 128,-1,20
 334 671 334 671 317 671 c 1,0,-1
185 717 m 0,21,22
 219 735 219 735 280 736 c 1,23,-1
 291 736 l 2,24,25
 328 736 328 736 340 731 c 128,-1,26
 352 726 352 726 388 698 c 0,27,28
 456 643 456 643 456 572 c 0,29,30
 456 531 456 531 452 477.5 c 128,-1,31
 448 424 448 424 440.5 403.5 c 128,-1,32
 433 383 433 383 425 374.5 c 128,-1,33
 417 366 417 366 398 358.5 c 128,-1,34
 379 351 379 351 359 349 c 128,-1,35
 339 347 339 347 301 345 c 2,36,-1
 213 339 l 1,37,-1
 175 370 l 2,38,39
 140 399 140 399 111 441.5 c 128,-1,40
 82 484 82 484 76 499 c 128,-1,41
 70 514 70 514 70 548 c 128,-1,42
 70 582 70 582 87 611 c 0,43,44
 136 693 136 693 185 717 c 0,21,22
309 558 m 1,45,46
 296 565 296 565 283.5 565.5 c 128,-1,47
 271 566 271 566 271 555.5 c 128,-1,48
 271 545 271 545 291 548 c 128,-1,49
 311 551 311 551 312 554 c 1,50,-1
 309 558 l 1,45,46
212 579.5 m 128,-1,52
 215 592 215 592 232 606 c 128,-1,53
 249 620 249 620 269 620 c 128,-1,54
 289 620 289 620 317 617.5 c 128,-1,55
 345 615 345 615 358.5 604 c 128,-1,56
 372 593 372 593 372 561.5 c 128,-1,57
 372 530 372 530 352 504 c 0,58,59
 336 487 336 487 336 482 c 128,-1,60
 336 477 336 477 345.5 466 c 128,-1,61
 355 455 355 455 355 448 c 128,-1,62
 355 441 355 441 348 430.5 c 128,-1,63
 341 420 341 420 325 420 c 128,-1,64
 309 420 309 420 289 447 c 2,65,-1
 268 476 l 1,66,-1
 263 454 l 1,67,68
 257 420 257 420 235 420 c 0,69,70
 229 420 229 420 219 428.5 c 128,-1,71
 209 437 209 437 209 502 c 128,-1,51
 209 567 209 567 212 579.5 c 128,-1,52
EndSplineSet
Validated: 1
EndChar

StartChar: degree
Encoding: 176 176 140
Width: 376
VWidth: 1079
Flags: MW
LayerCount: 2
Fore
SplineSet
221 623 m 0,0,1
 195 647 195 647 178.5 647 c 128,-1,2
 162 647 162 647 151 630 c 0,3,4
 139 614 139 614 139 598.5 c 128,-1,5
 139 583 139 583 156.5 572 c 128,-1,6
 174 561 174 561 201.5 561 c 128,-1,7
 229 561 229 561 238 579 c 0,8,9
 242 587 242 587 241.5 595 c 128,-1,10
 241 603 241 603 221 623 c 0,0,1
119 675 m 0,11,12
 145 702 145 702 173 702 c 0,13,14
 174 702 l 0,15,16
 201 702 201 702 251 663 c 0,17,18
 301 624 301 624 301 594 c 128,-1,19
 301 564 301 564 267 527 c 0,20,21
 257 516 257 516 254 513.5 c 128,-1,22
 251 511 251 511 246 506 c 0,23,24
 239 500 239 500 230.5 500 c 128,-1,25
 222 500 222 500 183 505 c 128,-1,26
 144 510 144 510 122 522.5 c 128,-1,27
 100 535 100 535 93 544 c 0,28,29
 80 560 80 560 80 594 c 0,30,31
 80 632 80 632 119 675 c 0,11,12
EndSplineSet
Validated: 1
EndChar

StartChar: guillemotright
Encoding: 187 187 141
Width: 527
VWidth: 1140
Flags: MW
LayerCount: 2
Fore
SplineSet
398 297 m 128,-1,1
 398 302 398 302 367.5 344 c 128,-1,2
 337 386 337 386 337 392 c 128,-1,3
 337 398 337 398 305.5 429.5 c 128,-1,4
 274 461 274 461 261 467 c 0,5,6
 238 475 238 475 238 492 c 0,7,8
 238 503 238 503 249.5 515.5 c 128,-1,9
 261 528 261 528 273 528 c 128,-1,10
 285 528 285 528 326 486.5 c 128,-1,11
 367 445 367 445 394 405 c 128,-1,12
 421 365 421 365 443.5 346.5 c 128,-1,13
 466 328 466 328 466 308.5 c 128,-1,14
 466 289 466 289 435 253 c 0,15,16
 412 224 412 224 350.5 148 c 128,-1,17
 289 72 289 72 274 72 c 0,18,19
 263 72 263 72 253 80.5 c 128,-1,20
 243 89 243 89 243 101 c 128,-1,21
 243 113 243 113 320.5 202.5 c 128,-1,0
 398 292 398 292 398 297 c 128,-1,1
155.5 400 m 128,-1,23
 97 462 97 462 97 472 c 128,-1,24
 97 482 97 482 106 493.5 c 128,-1,25
 115 505 115 505 122.5 505 c 128,-1,26
 130 505 130 505 188.5 446.5 c 128,-1,27
 247 388 247 388 287 353.5 c 128,-1,28
 327 319 327 319 327 300 c 128,-1,29
 327 281 327 281 273 238 c 0,30,31
 226 203 226 203 167.5 149 c 128,-1,32
 109 95 109 95 97.5 95 c 128,-1,33
 86 95 86 95 76 104 c 128,-1,34
 66 113 66 113 66 120.5 c 128,-1,35
 66 128 66 128 120.5 178.5 c 128,-1,36
 175 229 175 229 234 278 c 2,37,-1
 264 304 l 1,38,-1
 243 317 l 1,39,22
 214 338 214 338 155.5 400 c 128,-1,23
EndSplineSet
Validated: 1
EndChar

StartChar: pi
Encoding: 270 928 142
AltUni2: 0003c0.ffffffff.0
Width: 665
VWidth: 1334
Flags: MW
LayerCount: 2
Fore
SplineSet
530 37 m 1,0,-1
 506 39 l 1,1,2
 463 43 463 43 444 58 c 0,3,4
 428 70 428 70 407 114 c 0,5,6
 387 155 387 155 383 183 c 0,7,8
 380 202 380 202 378 292 c 0,9,10
 376 375 376 375 367 375 c 0,11,12
 366 375 366 375 354 369 c 0,13,14
 344 364 344 364 292 364 c 2,15,-1
 237 364 l 1,16,-1
 240 203 l 2,17,18
 242 147 242 147 242 97 c 0,19,20
 242 38 242 38 228 28 c 0,21,22
 218 20 218 20 209 20 c 0,23,24
 203 20 203 20 196 24 c 0,25,26
 181 33 181 33 172 257 c 0,27,28
 170 308 170 308 169 321 c 0,29,30
 168 345 168 345 168 347 c 0,31,32
 164 362 164 362 142 368 c 0,33,34
 115 375 115 375 100 390 c 128,-1,35
 85 405 85 405 85 420 c 0,36,37
 85 436 85 436 95 446 c 128,-1,38
 105 456 105 456 112 456 c 0,39,40
 123 456 123 456 146 444 c 0,41,42
 171 431 171 431 243 431 c 128,-1,43
 315 431 315 431 341 442 c 128,-1,44
 367 453 367 453 391 453 c 0,45,46
 416 453 416 453 459 450 c 0,47,48
 501 447 501 447 521 441 c 128,-1,49
 541 435 541 435 559 417 c 128,-1,50
 577 399 577 399 577 380 c 0,51,52
 577 362 577 362 559 352 c 0,53,54
 551 347 551 347 544 348 c 0,55,56
 535 349 535 349 517 366 c 128,-1,57
 499 383 499 383 477 383 c 0,58,59
 457 383 457 383 452 375 c 0,60,61
 446 365 446 365 443 333 c 0,62,63
 440 299 440 299 440 285 c 0,64,65
 440 221 440 221 468 153 c 0,66,67
 480 124 480 124 492 116 c 128,-1,68
 504 108 504 108 540 102 c 128,-1,69
 576 96 576 96 576 69 c 0,70,71
 575 60 575 60 567 48.5 c 128,-1,72
 559 37 559 37 530 37 c 1,0,-1
EndSplineSet
Validated: 1
EndChar

StartChar: trademark
Encoding: 271 8482 143
Width: 688
VWidth: 1085
Flags: MW
LayerCount: 2
Fore
SplineSet
132 714 m 0,0,1
 144 728 144 728 155.5 728 c 128,-1,2
 167 728 167 728 173 719.5 c 128,-1,3
 179 711 179 711 179 700.5 c 128,-1,4
 179 690 179 690 173 673 c 128,-1,5
 167 656 167 656 167 652 c 0,6,7
 167 642 167 642 210.5 640 c 128,-1,8
 254 638 254 638 254 615 c 0,9,10
 254 604 254 604 238 596.5 c 128,-1,11
 222 589 222 589 196 589 c 2,12,-1
 156 589 l 1,13,-1
 162 556 l 1,14,15
 176 487 176 487 189 478 c 0,16,17
 194 474 194 474 208 474 c 2,18,-1
 232 474 l 2,19,20
 267 474 267 474 267 453 c 0,21,22
 267 445 267 445 257 433 c 0,23,24
 243 417 243 417 213 417 c 128,-1,25
 183 417 183 417 172 421.5 c 128,-1,26
 161 426 161 426 146.5 441 c 128,-1,27
 132 456 132 456 118.5 492 c 128,-1,28
 105 528 105 528 105 547.5 c 128,-1,29
 105 567 105 567 87 577 c 0,30,31
 69 584 69 584 69 604 c 128,-1,32
 69 624 69 624 89.5 633.5 c 128,-1,33
 110 643 110 643 114.5 672 c 128,-1,34
 119 701 119 701 132 714 c 0,0,1
351 615 m 1,35,-1
 416 609 l 1,36,37
 432 609 432 609 441 618 c 128,-1,38
 450 627 450 627 485 627 c 128,-1,39
 520 627 520 627 532 621.5 c 128,-1,40
 544 616 544 616 572 590 c 2,41,-1
 611 553 l 1,42,-1
 611 493 l 2,43,44
 611 434 611 434 598 424 c 0,45,46
 590 417 590 417 582 417 c 0,47,48
 560 417 560 417 556 482 c 0,49,50
 554 516 554 516 549 528.5 c 128,-1,51
 544 541 544 541 527 556 c 128,-1,52
 510 571 510 571 494 571 c 2,53,-1
 491 571 l 1,54,55
 480 569 480 569 476 559.5 c 128,-1,56
 472 550 472 550 470 516 c 0,57,58
 464 442 464 442 437 441 c 0,59,60
 431 441 431 441 425 445 c 0,61,62
 411 453 411 453 409.5 500.5 c 128,-1,63
 408 548 408 548 395 553 c 0,64,65
 393 554 393 554 387 554 c 0,66,67
 362 554 362 554 362 513 c 0,68,69
 362 485 362 485 350 455.5 c 128,-1,70
 338 426 338 426 320 426 c 0,71,72
 293 426 293 426 293 474 c 0,73,74
 293 516 293 516 302 554 c 0,75,76
 311 596 311 596 320 605.5 c 128,-1,77
 329 615 329 615 351 615 c 1,35,-1
EndSplineSet
Validated: 1
EndChar

StartChar: infinity
Encoding: 272 8734 144
Width: 901
VWidth: 1226
Flags: MW
LayerCount: 2
Fore
SplineSet
710 397 m 0,0,1
 678 423 678 423 669 423 c 128,-1,2
 660 423 660 423 612.5 385.5 c 128,-1,3
 565 348 565 348 534 316 c 2,4,-1
 504 284 l 1,5,-1
 527 266 l 1,6,7
 655 159 655 159 684 152 c 0,8,9
 686 151 686 151 700.5 151 c 128,-1,10
 715 151 715 151 728 159 c 0,11,12
 763 178 763 178 764 286 c 0,13,14
 764 350 764 350 710 397 c 0,0,1
402 317 m 2,15,16
 377 352 377 352 331 391 c 128,-1,17
 285 430 285 430 255.5 430 c 128,-1,18
 226 430 226 430 185 390 c 0,19,20
 133 338 133 338 133 286 c 0,21,22
 133 249 133 249 158 218 c 0,23,24
 195 172 195 172 259 172 c 128,-1,25
 323 172 323 172 401 246 c 2,26,-1
 431 276 l 1,27,-1
 402 317 l 2,15,16
125 411 m 0,28,29
 170 462 170 462 196 477 c 128,-1,30
 222 492 222 492 261.5 492 c 128,-1,31
 301 492 301 492 329.5 479.5 c 128,-1,32
 358 467 358 467 414 402 c 2,33,-1
 469 337 l 1,34,-1
 521 388 l 2,35,36
 576 441 576 441 609 461.5 c 128,-1,37
 642 482 642 482 668.5 482 c 128,-1,38
 695 482 695 482 709.5 475 c 128,-1,39
 724 468 724 468 764 428.5 c 128,-1,40
 804 389 804 389 814.5 369 c 128,-1,41
 825 349 825 349 825 281 c 128,-1,42
 825 213 825 213 817 178 c 0,43,44
 809 142 809 142 782 119 c 0,45,46
 748 90 748 90 692 90 c 0,47,48
 690 90 690 90 688 90 c 0,49,50
 646 90 646 90 577 146.5 c 128,-1,51
 508 203 508 203 506 204 c 2,52,-1
 473 228 l 1,53,-1
 446 202 l 1,54,55
 347 108 347 108 252 107 c 0,56,57
 198 107 198 107 171.5 124.5 c 128,-1,58
 145 142 145 142 112 180 c 0,59,60
 79 220 79 220 72 261 c 0,61,62
 71 273 71 273 71 301.5 c 128,-1,63
 71 330 71 330 82 354 c 128,-1,64
 93 378 93 378 125 411 c 0,28,29
EndSplineSet
Validated: 1
EndChar

StartChar: approxequal
Encoding: 273 8776 145
Width: 705
VWidth: 1147
Flags: MW
LayerCount: 2
Fore
SplineSet
405 313 m 1,0,-1
 414 312 l 1,1,2
 439 312 439 312 481 335.5 c 128,-1,3
 523 359 523 359 559 395 c 128,-1,4
 595 431 595 431 604 431 c 128,-1,5
 613 431 613 431 621.5 422.5 c 128,-1,6
 630 414 630 414 630 404 c 0,7,8
 630 384 630 384 582 340 c 0,9,10
 496 255 496 255 418 254 c 0,11,12
 379 254 379 254 362.5 265 c 128,-1,13
 346 276 346 276 310 314 c 2,14,-1
 260 370 l 1,15,-1
 224 359 l 2,16,17
 194 349 194 349 179 340.5 c 128,-1,18
 164 332 164 332 144 312 c 0,19,20
 123 293 123 293 106 293 c 0,21,22
 105 293 105 293 104 293 c 0,23,24
 86 294 86 294 75 310 c 0,25,26
 71 314 71 314 71.5 321 c 128,-1,27
 72 328 72 328 102 353 c 0,28,29
 170 413 170 413 241 421 c 2,30,-1
 282 426 l 1,31,-1
 334 372 l 1,32,33
 385 318 385 318 405 313 c 1,0,-1
510 210 m 0,34,35
 548 251 548 251 567 275 c 128,-1,36
 586 299 586 299 600 299 c 128,-1,37
 614 299 614 299 624 288 c 0,38,39
 630 280 630 280 630 274 c 0,40,41
 630 256 630 256 560 184 c 2,42,-1
 496 119 l 1,43,-1
 426 121 l 2,44,45
 374 122 374 122 358.5 127.5 c 128,-1,46
 343 133 343 133 302 162 c 128,-1,47
 261 191 261 191 245.5 191 c 128,-1,48
 230 191 230 191 196 165 c 128,-1,49
 162 139 162 139 153.5 118.5 c 128,-1,50
 145 98 145 98 128 98 c 0,51,52
 121 98 121 98 112 104 c 0,53,54
 100 115 100 115 100 128 c 0,55,56
 100 164 100 164 165 214 c 0,57,58
 191 234 191 234 204.5 239.5 c 128,-1,59
 218 245 218 245 244.5 245 c 128,-1,60
 271 245 271 245 284.5 239.5 c 128,-1,61
 298 234 298 234 326.5 212.5 c 128,-1,62
 355 191 355 191 377.5 183 c 128,-1,63
 400 175 400 175 431.5 175 c 128,-1,64
 463 175 463 175 474 180.5 c 128,-1,65
 485 186 485 186 510 210 c 0,34,35
EndSplineSet
Validated: 1
EndChar

StartChar: uni2259
Encoding: 274 8793 146
Width: 513
VWidth: 1138
Flags: MW
LayerCount: 2
Fore
SplineSet
198 479 m 0,0,1
 222 503 222 503 246 521 c 128,-1,2
 270 539 270 539 276 540 c 0,3,4
 288 540 288 540 298 526.5 c 128,-1,5
 308 513 308 513 323 491 c 0,6,7
 349 453 349 453 369 427 c 128,-1,8
 389 401 389 401 389 392 c 128,-1,9
 389 383 389 383 385 378 c 0,10,11
 377 362 377 362 365 362 c 0,12,13
 345 362 345 362 309 411 c 0,14,15
 272 462 272 462 269 462 c 0,16,17
 266 462 266 462 217 420 c 0,18,19
 171 378 171 378 161 378 c 128,-1,20
 151 378 151 378 142.5 386.5 c 128,-1,21
 134 395 134 395 134 402 c 0,22,23
 134 419 134 419 198 479 c 0,0,1
119 296.5 m 128,-1,25
 140 299 140 299 238 300.5 c 128,-1,26
 336 302 336 302 352.5 307 c 128,-1,27
 369 312 369 312 393 312 c 0,28,29
 436 312 436 312 437 290 c 0,30,31
 437 285 437 285 432 277 c 0,32,33
 412 242 412 242 140 242 c 0,34,35
 138 242 138 242 137 242 c 1,36,37
 83 242 83 242 75 254 c 0,38,39
 72 258 72 258 72.5 265.5 c 128,-1,40
 73 273 73 273 85.5 283.5 c 128,-1,24
 98 294 98 294 119 296.5 c 128,-1,25
384 149 m 0,41,42
 445 149 445 149 445 119 c 0,43,44
 445 94 445 94 405 91 c 0,45,46
 385 90 385 90 263 82 c 128,-1,47
 141 74 141 74 116.5 74 c 128,-1,48
 92 74 92 74 80 84 c 0,49,50
 68 96 68 96 75 110 c 0,51,52
 88 130 88 130 251 135 c 0,53,54
 324 137 324 137 344 143 c 128,-1,55
 364 149 364 149 384 149 c 0,41,42
EndSplineSet
Validated: 1
EndChar

StartChar: notequal
Encoding: 275 8800 147
Width: 603
VWidth: 1149
Flags: MW
LayerCount: 2
Fore
SplineSet
252 333 m 2,0,-1
 120 331 l 2,1,2
 76 331 76 331 69 343.5 c 128,-1,3
 62 356 62 356 76 369 c 0,4,5
 93 388 93 388 255 388 c 0,6,7
 308 388 308 388 308 391 c 0,8,9
 308 397 308 397 333.5 467 c 128,-1,10
 359 537 359 537 365 543.5 c 128,-1,11
 371 550 371 550 382 550 c 128,-1,12
 393 550 393 550 400 540.5 c 128,-1,13
 407 531 407 531 407 506 c 128,-1,14
 407 481 407 481 395.5 459 c 128,-1,15
 384 437 384 437 375 407 c 1,16,-1
 369 386 l 1,17,-1
 444 388 l 2,18,19
 461 389 461 389 491 389 c 128,-1,20
 521 389 521 389 529 376 c 128,-1,21
 537 363 537 363 524.5 350.5 c 128,-1,22
 512 338 512 338 443.5 335 c 128,-1,23
 375 332 375 332 364.5 329 c 128,-1,24
 354 326 354 326 354 310.5 c 128,-1,25
 354 295 354 295 345 272.5 c 128,-1,26
 336 250 336 250 328 207 c 1,27,-1
 322 171 l 1,28,-1
 400 166 l 2,29,30
 549 156 549 156 549 119 c 0,31,32
 549 111 549 111 539.5 101.5 c 128,-1,33
 530 92 530 92 518.5 92 c 128,-1,34
 507 92 507 92 481.5 98.5 c 128,-1,35
 456 105 456 105 377 112 c 1,36,-1
 310 117 l 1,37,-1
 297 51 l 2,38,39
 290 20 290 20 284.5 -1.5 c 128,-1,40
 279 -23 279 -23 279 -25 c 0,41,42
 275 -41 275 -41 261.5 -40.5 c 128,-1,43
 248 -40 248 -40 240 -33 c 128,-1,44
 232 -26 232 -26 232 9 c 128,-1,45
 232 44 232 44 242 86 c 1,46,-1
 248 109 l 1,47,-1
 202 104 l 2,48,49
 186 103 186 103 152 98 c 0,50,51
 102 91 102 91 89 91 c 0,52,53
 88 92 88 92 87 92 c 0,54,55
 76 92 76 92 66 103 c 0,56,57
 55 117 55 117 62.5 128 c 128,-1,58
 70 139 70 139 115 149 c 128,-1,59
 160 159 160 159 201 160 c 128,-1,60
 242 161 242 161 255 172.5 c 128,-1,61
 268 184 268 184 274 226.5 c 128,-1,62
 280 269 280 269 289 290 c 128,-1,63
 298 311 298 311 298 319 c 0,64,65
 298 333 298 333 252 333 c 2,0,-1
EndSplineSet
Validated: 1
EndChar

StartChar: lessequal
Encoding: 276 8804 148
Width: 567
VWidth: 1328
Flags: MW
LayerCount: 2
Fore
SplineSet
160 289 m 0,0,1
 338 461 338 461 384 461 c 0,2,3
 397 461 397 461 406.5 450.5 c 128,-1,4
 416 440 416 440 416 433 c 0,5,6
 416 414 416 414 347.5 361 c 128,-1,7
 279 308 279 308 232 266 c 2,8,-1
 190 230 l 1,9,-1
 292 222 l 1,10,11
 384 216 384 216 412 216 c 2,12,-1
 434 216 l 2,13,14
 482 216 482 216 482 190 c 0,15,16
 482 172 482 172 461.5 158 c 128,-1,17
 441 144 441 144 419.5 144 c 128,-1,18
 398 144 398 144 335 150.5 c 128,-1,19
 272 157 272 157 235.5 157 c 128,-1,20
 199 157 199 157 171.5 151 c 128,-1,21
 144 145 144 145 128 145 c 0,22,23
 118 145 118 145 97 157 c 0,24,25
 72 171 72 171 72 187 c 0,26,27
 71 187 l 0,28,29
 71 203 71 203 160 289 c 0,0,1
144 125 m 0,30,31
 173 134 173 134 216 134 c 0,32,33
 218 134 218 134 220 134 c 0,34,35
 258 134 258 134 277.5 124.5 c 128,-1,36
 297 115 297 115 390.5 108.5 c 128,-1,37
 484 102 484 102 494 86 c 0,38,39
 499 78 499 78 499 71 c 128,-1,40
 499 64 499 64 494 56 c 0,41,42
 484 42 484 42 444 42 c 0,43,44
 434 42 434 42 426 42 c 0,45,46
 283 42 283 42 243 60 c 0,47,48
 227 66 227 66 212.5 66 c 128,-1,49
 198 66 198 66 166.5 56 c 128,-1,50
 135 46 135 46 122.5 46 c 128,-1,51
 110 46 110 46 100.5 54 c 128,-1,52
 91 62 91 62 91 77 c 0,53,54
 91 109 91 109 144 125 c 0,30,31
EndSplineSet
Validated: 1
EndChar

StartChar: greaterequal
Encoding: 277 8805 149
Width: 618
VWidth: 1321
Flags: MW
LayerCount: 2
Fore
SplineSet
208 452 m 128,-1,1
 208 460 208 460 219 471 c 128,-1,2
 230 482 230 482 243.5 482 c 128,-1,3
 257 482 257 482 292 452.5 c 128,-1,4
 327 423 327 423 431 323 c 128,-1,5
 535 223 535 223 535 201.5 c 128,-1,6
 535 180 535 180 508.5 169.5 c 128,-1,7
 482 159 482 159 429.5 155.5 c 128,-1,8
 377 152 377 152 306.5 148 c 128,-1,9
 236 144 236 144 194.5 141 c 128,-1,10
 153 138 153 138 147 138 c 0,11,12
 113 138 113 138 103 152 c 0,13,14
 97 160 97 160 97 167 c 0,15,16
 97 174 97 174 101 182 c 0,17,18
 107 195 107 195 154 201.5 c 128,-1,19
 201 208 201 208 347 220 c 1,20,-1
 435 225 l 1,21,-1
 322 336 l 2,22,0
 208 444 208 444 208 452 c 128,-1,1
116 51 m 2,23,24
 68 51 68 51 68 80.5 c 128,-1,25
 68 110 68 110 174 118.5 c 128,-1,26
 280 127 280 127 391 127 c 2,27,-1
 440 127 l 2,28,29
 534 127 534 127 545 113 c 128,-1,30
 556 99 556 99 547.5 86 c 128,-1,31
 539 73 539 73 505 68.5 c 128,-1,32
 471 64 471 64 391 61 c 0,33,34
 181 51 181 51 139 51 c 2,35,-1
 116 51 l 2,23,24
EndSplineSet
Validated: 1
EndChar
